<svg width="25" height="35" viewBox="0 0 25 35" fill="none" xmlns="http://www.w3.org/2000/svg">
<g clip-path="url(#clip0_6_890)">
<path d="M12.5 5.125C5.665 5.125 0.125 10.665 0.125 17.5C0.125 24.335 5.665 29.875 12.5 29.875C19.335 29.875 24.875 24.335 24.875 17.5C24.875 10.665 19.335 5.125 12.5 5.125ZM13.665 23.145C13.665 23.8 13.07 24.12 12.49 24.12C11.91 24.12 11.33 23.8 11.33 23.145V16.195C11.33 15.555 11.91 15.22 12.505 15.22C13.1 15.22 13.665 15.555 13.665 16.195V23.145ZM12.49 14.12C11.745 14.12 11.18 13.555 11.18 12.84C11.18 12.125 11.745 11.53 12.49 11.53C13.235 11.53 13.815 12.11 13.815 12.84C13.815 13.57 13.22 14.12 12.49 14.12Z" fill="#32A54B"/>
</g>
<defs>
<clipPath id="clip0_6_890">
<rect width="25" height="25" fill="white" transform="translate(0 5)"/>
</clipPath>
</defs>
</svg>
