<svg width="25" height="26" viewBox="0 0 25 26" fill="none" xmlns="http://www.w3.org/2000/svg">
<g clip-path="url(#clip0_6_879)">
<path d="M24.935 4.92C24.935 3.94 24.14 3.145 23.16 3.145H20.34V1.27C20.34 0.829998 19.985 0.474998 19.545 0.474998C19.105 0.474998 18.75 0.829998 18.75 1.27V3.145H13.305V1.27C13.305 0.829998 12.95 0.474998 12.51 0.474998C12.07 0.474998 11.715 0.829998 11.715 1.27V3.145H6.255V1.27C6.255 0.829998 5.9 0.474998 5.46 0.474998C5.02 0.474998 4.665 0.829998 4.665 1.27V3.145H1.84C0.860003 3.145 0.0650024 3.94 0.0650024 4.92V7.335H24.935V4.92Z" fill="#32A54B"/>
<path d="M0.0650024 8.4V23.75C0.0650024 24.73 0.860003 25.525 1.84 25.525H23.16C24.14 25.525 24.935 24.73 24.935 23.75V8.4H0.0650024ZM5.59 18.115C5.59 18.305 5.435 18.46 5.245 18.46H3.405C3.215 18.46 3.06 18.305 3.06 18.115V16.275C3.06 16.085 3.215 15.93 3.405 15.93H5.245C5.435 15.93 5.59 16.085 5.59 16.275V18.115ZM5.59 13.215C5.59 13.405 5.435 13.56 5.245 13.56H3.405C3.215 13.56 3.06 13.405 3.06 13.215V11.375C3.06 11.185 3.215 11.03 3.405 11.03H5.245C5.435 11.03 5.59 11.185 5.59 11.375V13.215ZM11.04 18.115C11.04 18.305 10.885 18.46 10.695 18.46H8.855C8.665 18.46 8.51 18.305 8.51 18.115V16.275C8.51 16.085 8.665 15.93 8.855 15.93H10.695C10.885 15.93 11.04 16.085 11.04 16.275V18.115ZM11.04 13.215C11.04 13.405 10.885 13.56 10.695 13.56H8.855C8.665 13.56 8.51 13.405 8.51 13.215V11.375C8.51 11.185 8.665 11.03 8.855 11.03H10.695C10.885 11.03 11.04 11.185 11.04 11.375V13.215ZM16.49 13.215C16.49 13.405 16.335 13.56 16.145 13.56H14.305C14.115 13.56 13.96 13.405 13.96 13.215V11.375C13.96 11.185 14.115 11.03 14.305 11.03H16.145C16.335 11.03 16.49 11.185 16.49 11.375V13.215ZM21.94 13.215C21.94 13.405 21.785 13.56 21.595 13.56H19.755C19.565 13.56 19.41 13.405 19.41 13.215V11.375C19.41 11.185 19.565 11.03 19.755 11.03H21.595C21.785 11.03 21.94 11.185 21.94 11.375V13.215Z" fill="#32A54B"/>
</g>
<defs>
<clipPath id="clip0_6_879">
<rect width="25" height="25" fill="white" transform="translate(0 0.5)"/>
</clipPath>
</defs>
</svg>
