<svg width="25" height="26" viewBox="0 0 25 26" fill="none" xmlns="http://www.w3.org/2000/svg">
<g clip-path="url(#clip0_6_895)">
<g clip-path="url(#clip1_6_895)">
<path d="M6.88 14.145H0.154999C0.309999 17.14 1.53 19.855 3.445 21.915C4.62 21 5.98 20.25 7.47 19.735C7.125 18.065 6.92 16.18 6.88 14.15V14.145Z" fill="#32A54B"/>
<path d="M15.07 25.595C17.165 25.15 19.065 24.175 20.62 22.82C19.62 22.065 18.48 21.44 17.23 20.995C16.7 22.97 15.96 24.555 15.07 25.6V25.595Z" fill="#32A54B"/>
<path d="M7.47 7.27003C5.98 6.75003 4.62 6.00503 3.445 5.09003C1.53 7.14503 0.304999 9.86003 0.154999 12.855H6.88C6.915 10.825 7.125 8.93503 7.47 7.27003Z" fill="#32A54B"/>
<path d="M4.38 22.815C5.935 24.175 7.83501 25.15 9.93001 25.59C9.04001 24.545 8.3 22.96 7.77 20.985C6.52 21.43 5.38 22.055 4.38 22.81V22.815Z" fill="#32A54B"/>
<path d="M18.12 12.855H24.85C24.695 9.86002 23.475 7.14502 21.56 5.08502C20.385 6.00002 19.025 6.75002 17.535 7.26502C17.88 8.93502 18.085 10.82 18.125 12.85L18.12 12.855Z" fill="#32A54B"/>
<path d="M9.93001 1.40502C7.83501 1.85002 5.935 2.82502 4.38 4.18002C5.38 4.93502 6.52 5.56002 7.77 6.00502C8.3 4.03002 9.04001 2.44502 9.93001 1.40002V1.40502Z" fill="#32A54B"/>
<path d="M20.62 4.18497C19.065 2.82497 17.165 1.84997 15.07 1.40997C15.96 2.45497 16.7 4.03997 17.23 6.01497C18.48 5.56997 19.62 4.94497 20.62 4.18997V4.18497Z" fill="#32A54B"/>
<path d="M15.98 6.38998C15.13 3.21998 13.77 1.29498 12.5 1.29498C11.23 1.29498 9.86999 3.21998 9.01999 6.38998C10.125 6.66998 11.29 6.81998 12.5 6.81998C13.71 6.81998 14.875 6.66998 15.98 6.38998Z" fill="#32A54B"/>
<path d="M12.5 8.11002C11.19 8.11002 9.92501 7.94502 8.72501 7.64502C8.41001 9.17502 8.21001 10.93 8.17001 12.855H16.825C16.79 10.93 16.585 9.17502 16.27 7.64502C15.07 7.94502 13.805 8.11002 12.495 8.11002H12.5Z" fill="#32A54B"/>
<path d="M9.01999 20.61C9.86999 23.78 11.23 25.705 12.5 25.705C13.77 25.705 15.13 23.78 15.98 20.61C14.875 20.33 13.71 20.18 12.5 20.18C11.29 20.18 10.125 20.33 9.01999 20.61Z" fill="#32A54B"/>
<path d="M8.72501 19.355C9.92501 19.055 11.19 18.89 12.5 18.89C13.81 18.89 15.075 19.055 16.275 19.355C16.59 17.825 16.79 16.07 16.83 14.145H8.17001C8.20501 16.07 8.41001 17.825 8.72501 19.355Z" fill="#32A54B"/>
<path d="M17.53 19.73C19.02 20.25 20.38 20.995 21.555 21.91C23.47 19.85 24.69 17.135 24.845 14.14H18.115C18.08 16.17 17.87 18.055 17.525 19.725L17.53 19.73Z" fill="#32A54B"/>
<path d="M12.5 1.29498C13.77 1.29498 15.13 3.21998 15.98 6.38998C14.875 6.66998 13.71 6.81998 12.5 6.81998C11.29 6.81998 10.125 6.66998 9.02001 6.38998C9.87001 3.21998 11.23 1.29498 12.5 1.29498ZM12.5 25.705C11.23 25.705 9.87001 23.78 9.02001 20.61C10.125 20.33 11.29 20.18 12.5 20.18C13.71 20.18 14.875 20.33 15.98 20.61C15.13 23.78 13.77 25.705 12.5 25.705ZM16.275 19.355C15.075 19.055 13.81 18.89 12.5 18.89C11.19 18.89 9.92501 19.055 8.72501 19.355C8.41001 17.825 8.21001 16.07 8.17001 14.145H16.825C16.79 16.07 16.585 17.825 16.27 19.355H16.275ZM8.17501 12.855C8.21001 10.93 8.41501 9.17498 8.73001 7.64498C9.93001 7.94498 11.195 8.10998 12.505 8.10998C13.815 8.10998 15.08 7.94498 16.28 7.64498C16.595 9.17498 16.795 10.93 16.835 12.855H8.17001H8.17501Z" fill="#32A54B"/>
</g>
</g>
<defs>
<clipPath id="clip0_6_895">
<rect width="25" height="25" fill="white" transform="translate(0 0.5)"/>
</clipPath>
<clipPath id="clip1_6_895">
<rect width="25" height="25" fill="white" transform="translate(0 1)"/>
</clipPath>
</defs>
</svg>
