<svg width="25" height="37" viewBox="0 0 25 37" fill="none" xmlns="http://www.w3.org/2000/svg">
<g clip-path="url(#clip0_6_884)">
<path d="M10 30.3323C9.57896 30.3323 9.16843 30.1576 8.88422 29.8506L5.74738 26.4782C3.08422 26.9706 1.27896 27.9076 1.27896 28.9876C1.27896 30.5759 5.18422 31.8676 10 31.8676C14.8158 31.8676 18.7211 30.5812 18.7211 28.9876C18.7211 27.9076 16.9158 26.9706 14.2526 26.4782L11.1158 29.8506C10.8316 30.1576 10.4211 30.3323 10 30.3323Z" fill="#32A54B"/>
<path d="M19.7684 14.3653C19.4474 9.62705 15.5211 5.83117 10.6316 5.5347C10.4263 5.52411 10.2211 5.51881 10.0211 5.51881C7.46317 5.51352 4.98949 6.48234 3.15791 8.21881C1.25791 10.0188 0.210541 12.4276 0.210541 15.0006C0.210541 16.88 0.778962 18.6959 1.80528 20.1094C2.83159 21.5282 4.09475 22.8359 5.3158 24.1012C5.75791 24.5565 6.19475 25.017 6.62633 25.4776L7.33686 26.24L9.84738 28.9347C9.95265 29.0459 10.0526 29.0459 10.1579 28.9347L12.6632 26.24L13.6526 25.1812C13.9 24.9112 14.1579 24.6465 14.4105 24.3712C15.9579 22.73 17.5526 21.0359 18.6 19.1512C19.4947 17.5365 19.879 15.9694 19.7684 14.3547V14.3653ZM10 18.267C8.07896 18.267 6.52107 16.7 6.52107 14.7676C6.52107 12.8353 8.07896 11.2682 10 11.2682C11.9211 11.2682 13.479 12.8353 13.479 14.7676C13.479 16.7 11.9211 18.267 10 18.267Z" fill="#32A54B"/>
</g>
<defs>
<clipPath id="clip0_6_884">
<rect width="20" height="27" fill="white" transform="translate(0 5)"/>
</clipPath>
</defs>
</svg>
