<svg width="64" height="33" viewBox="0 0 64 33" fill="none" xmlns="http://www.w3.org/2000/svg">
<path d="M40.1718 1.13672H23.6538L9.35319 5.1651L1.0918 12.1417V20.1985L9.35319 27.1752L23.6538 31.2035H40.1718L54.4771 27.1752L62.7385 20.1985V12.1417L54.4771 5.1651L40.1718 1.13672Z" fill="#000036"/>
<path d="M17.3032 21.8294V23.7995H9.13761V19.836L9.94698 17.8195L10.4594 17.0825L13.7209 13.9024L14.7506 12.2892V11.172L13.9891 10.4117L12.6146 9.9389H9.13281V7.96875H13.1031L15.5312 8.96543L16.2927 9.70248L17.1021 11.7422L16.2927 13.7819L15.7802 14.4958L12.2027 17.9586L11.173 19.595V21.8247H17.3032V21.8294Z" fill="#EE87B4"/>
<path d="M22.4278 22.6128L22.1069 22.33L20.8809 19.5996V12.1965L22.1069 9.46608L22.4278 9.15548L25.0762 7.96875H26.9153L29.5637 9.15548L29.8846 9.46608L31.1106 12.1965V19.5996L29.8846 22.33L29.5637 22.6128L26.9153 23.7995H25.0762L22.4278 22.6128ZM24.1663 10.4396L23.4048 11.1534L22.9163 12.6971V19.1036L23.4048 20.6009L24.1663 21.338L25.5647 21.8386H26.398L27.7965 21.338L28.558 20.6009L29.0752 19.1036V12.6971L28.558 11.1534L27.7965 10.4396L26.398 9.94354H25.5647L24.1663 10.4396Z" fill="#EE87B4"/>
<path d="M43.1461 21.8294V23.7995H34.9805V19.836L35.7898 17.8195L36.3071 17.0825L39.5685 13.9024L40.5982 12.2892V11.172L39.8367 10.4117L38.4622 9.9389H34.9805V7.96875H38.9507L41.3789 8.96543L42.1403 9.70248L42.9497 11.7422L42.1403 13.7819L41.6279 14.4958L38.0504 17.9586L37.0207 19.595V21.8247H43.1509L43.1461 21.8294Z" fill="#EE87B4"/>
<path d="M55.0562 21.8294V23.7995H46.8906V19.836L47.7 17.8195L48.2172 17.0825L51.4787 13.9024L52.5084 12.2892V11.172L51.7469 10.4117L50.3724 9.9389H46.8906V7.96875H50.8609L53.289 8.96543L54.0505 9.70248L54.8599 11.7422L54.0505 13.7819L53.5381 14.4958L49.9605 17.9586L48.9308 19.595V21.8247H55.061L55.0562 21.8294Z" fill="#EE87B4"/>
<path d="M40.1718 1.13672H23.6538L9.35319 5.1651L1.0918 12.1417V20.1985L9.35319 27.1752L23.6538 31.2035H40.1718L54.4771 27.1752L62.7385 20.1985V12.1417L54.4771 5.1651L40.1718 1.13672Z" stroke="#EE87B4" stroke-width="1.6"/>
</svg>
