<svg width="147" height="42" viewBox="0 0 147 42" fill="none" xmlns="http://www.w3.org/2000/svg">
<path d="M40.7536 1.49414H24.2406L9.93963 5.6547L1.68555 12.8603V21.1814L9.93963 28.3869L24.2406 32.5475H40.7536L55.0546 28.3869L63.3087 21.1814V12.8603L55.0546 5.6547L40.7536 1.49414Z" fill="#000036"/>
<path d="M13.0137 12.4588V11.4055L16.1496 8.26953H17.203V25.0075H15.1203V12.4588H13.0137Z" fill="#30A34A"/>
<path d="M22.6758 12.4588V11.4055L25.8118 8.26953H26.8651V25.0075H24.7824V12.4588H22.6758Z" fill="#30A34A"/>
<path d="M40.3606 8.26367V10.3703L39.3073 12.9796L34.0886 22.3923V25.0017H32.207V22.919L33.2603 20.3096L38.479 10.8969V8.26367H40.3606Z" fill="#30A34A"/>
<path d="M53.2121 22.92V25.0027H44.8574V20.8134L45.6857 18.6781L46.2124 17.9025L49.5494 14.5415L50.6027 12.837V11.6592L49.8271 10.8549L48.4195 10.3522H44.8574V8.26953H48.9222L51.4071 9.32284L52.1827 10.0985L53.011 12.2577L52.1827 14.417L51.656 15.1687L47.9934 18.8313L46.9401 20.5645V22.9248H53.2121V22.92Z" fill="#30A34A"/>
<path d="M40.7536 1.49414H24.2406L9.93963 5.6547L1.68555 12.8603V21.1814L9.93963 28.3869L24.2406 32.5475H40.7536L55.0546 28.3869L63.3087 21.1814V12.8603L55.0546 5.6547L40.7536 1.49414Z" stroke="#30A34A" stroke-width="1.6"/>
<path d="M72.8405 23.0116L71.2224 24.6648L70.6098 24.8655H69.7773V24.1153L69.9738 23.4894L72.4009 20.9858L72.8405 20.8377L73.2567 20.9858L74.8748 22.639L76.4929 20.9858L77.1055 20.7852H77.9379V21.5592L77.7415 22.1851L75.3144 24.6648L74.8748 24.8416L74.4586 24.6648L72.8405 23.0116Z" fill="#30A34A"/>
<path d="M123.365 10.1387H106.852L92.551 14.2992L84.2969 21.5048V29.8211L92.551 37.0267L106.852 41.1873H123.365L137.666 37.0267L145.925 29.8211V21.5048L137.666 14.2992L123.365 10.1387Z" fill="#000036"/>
<path d="M94.0781 21.0936V20.0403L97.2141 16.9043H98.2674V33.6423H96.1847V21.0936H94.0781Z" fill="#30A34A"/>
<path d="M103.74 21.0936V20.0403L106.876 16.9043H107.93V33.6423H105.847V21.0936H103.74Z" fill="#30A34A"/>
<path d="M121.454 16.9043V19.0109L120.401 21.6202L115.182 31.033V33.6423H113.301V31.5596L114.354 28.9503L119.573 19.5424V16.9091H121.454V16.9043Z" fill="#30A34A"/>
<path d="M127.024 18.4842L127.349 18.1587L130.059 16.9043H134.148V18.987H130.586L129.131 19.5136L128.355 20.2892L127.852 21.8931V23.2002H131.941L134.651 24.4306L134.976 24.7562L136.231 27.6432V29.1992L134.976 32.0863L134.651 32.3879L131.941 33.6423H130.059L127.349 32.3879L127.024 32.0863L125.77 29.1992V21.3713L127.024 18.4842ZM127.852 28.6726L128.355 30.2526L129.131 31.0282L130.562 31.5548H131.414L132.846 31.0282L133.621 30.2526L134.148 28.6726V28.1699L133.621 26.566L132.846 25.8143L131.414 25.2877H127.852V28.6774V28.6726Z" fill="#30A34A"/>
<path d="M123.365 10.1387H106.852L92.551 14.2992L84.2969 21.5048V29.8211L92.551 37.0267L106.852 41.1873H123.365L137.666 37.0267L145.925 29.8211V21.5048L137.666 14.2992L123.365 10.1387Z" stroke="#30A34A" stroke-width="1.6"/>
</svg>
