<svg width="221" height="87" viewBox="0 0 221 87" fill="none" xmlns="http://www.w3.org/2000/svg">
<path d="M139.841 1H81.1589L30.341 12.2824L1 31.8185V54.3766L30.341 73.9127L81.1589 85.1951H139.841L190.659 73.9127L220 54.3766V31.8185L190.659 12.2824L139.841 1Z" fill="#000036"/>
<path d="M139.841 1H81.1589L30.341 12.2824L1 31.8185V54.3766L30.341 73.9127L81.1589 85.1951H139.841L190.659 73.9127L220 54.3766V31.8185L190.659 12.2824L139.841 1Z" stroke="#30A34A" stroke-width="2"/>
<path d="M33.5974 32.2266L27.513 40.4869V32.2266H21.3613V53.9654H27.513V44.7715L33.8056 53.9654H41.6361L32.9997 42.3673L41.0451 32.2266H33.5974Z" fill="#30A34A"/>
<path d="M49.1575 32.2266H43.0059V53.9587H49.1575V32.2266Z" fill="#30A34A"/>
<path d="M82.891 49.2711C86.8533 49.2711 89.2576 47.1355 89.2576 43.0926C89.2576 39.0497 86.7996 36.9141 82.891 36.9141H81.6755V49.2711H82.891ZM75.6582 53.9587V32.2266H82.7769C91.0976 32.2266 95.2883 36.3903 95.2883 43.0053C95.2883 49.6203 90.876 53.9654 82.7769 53.9654H75.6582V53.9587Z" fill="#30A34A"/>
<path d="M62.3005 37.5656L64.5369 44.9193H59.8762L62.3005 37.5656ZM58.7009 32.2266L50.4473 53.9587H56.7265L58.2912 49.7143H66.1285L67.6127 53.9587H74.3486L65.974 32.2266H58.7009Z" fill="#30A34A"/>
<path d="M105.73 37.5656L107.967 44.9193H103.306L105.73 37.5656ZM102.131 32.2266L93.877 53.9587H100.156L101.721 49.7143H109.558L111.042 53.9587H117.778L109.404 32.2266H102.131Z" fill="#30A34A"/>
<path d="M138.624 53.8044H121.029C121.029 49.6876 122.359 47.6796 127.349 44.3083C129.907 42.4951 130.069 42.3608 130.848 41.7161C131.66 41.0042 132.016 40.3192 132.016 39.4797C132.016 38.1836 131.042 37.277 129.686 37.277C127.678 37.277 126.738 38.506 126.738 41.0714V41.7161H121.197V40.6147C121.197 35.269 124.535 31.9648 130.008 31.9648C134.837 31.9648 138.175 34.8526 138.175 39.0298C138.175 40.9438 137.496 42.5287 136.099 43.9524C135.32 44.7314 134.897 45.0538 131.788 47.0954C131.042 47.5789 130.754 47.8072 130.136 48.3915H138.624V53.8044Z" fill="#30A34A"/>
<path d="M146.401 43.0802C146.401 47.0694 147.731 49.3662 150.028 49.3662C152.325 49.3662 153.627 47.0627 153.627 43.1743C153.627 39.2859 152.331 36.8212 150.001 36.8212C147.67 36.8212 146.401 39.1247 146.401 43.0735M159.363 43.2347C159.363 49.5206 155.373 54.2216 150.001 54.2216C144.628 54.2216 140.666 49.5206 140.666 43.1071C140.666 36.6936 144.622 31.959 150.001 31.959C155.38 31.959 159.363 36.6264 159.363 43.2347Z" fill="#30A34A"/>
<path d="M178.685 53.8044H161.09C161.09 49.6876 162.42 47.6796 167.409 44.3083C169.968 42.4951 170.129 42.3608 170.908 41.7161C171.721 41.0042 172.077 40.3192 172.077 39.4797C172.077 38.1836 171.103 37.277 169.746 37.277C167.738 37.277 166.798 38.506 166.798 41.0714V41.7161H161.258V40.6147C161.258 35.269 164.595 31.9648 170.069 31.9648C174.897 31.9648 178.235 34.8526 178.235 39.0298C178.235 40.9438 177.557 42.5287 176.16 43.9524C175.381 44.7314 174.958 45.0538 171.848 47.0954C171.103 47.5789 170.814 47.8072 170.196 48.3915H178.685V53.8044Z" fill="#30A34A"/>
<path d="M199.63 53.8044H182.035C182.035 49.6876 183.365 47.6796 188.355 44.3083C190.913 42.4951 191.075 42.3608 191.854 41.7161C192.666 41.0042 193.022 40.3192 193.022 39.4797C193.022 38.1836 192.048 37.277 190.692 37.277C188.684 37.277 187.744 38.506 187.744 41.0714V41.7161H182.203V40.6147C182.203 35.269 185.541 31.9648 191.014 31.9648C195.843 31.9648 199.18 34.8526 199.18 39.0298C199.18 40.9438 198.502 42.5287 197.105 43.9524C196.326 44.7314 195.903 45.0538 192.794 47.0954C192.048 47.5789 191.76 47.8072 191.142 48.3915H199.63V53.8044Z" fill="#30A34A"/>
</svg>
