<?xml version="1.0" encoding="utf-8"?>
<!-- Generator: Adobe Illustrator 24.2.1, SVG Export Plug-In . SVG Version: 6.00 Build 0)  -->
<svg version="1.1" id="Layer_1" xmlns="http://www.w3.org/2000/svg" xmlns:xlink="http://www.w3.org/1999/xlink" x="0px" y="0px"
	 viewBox="0 0 56 56" style="enable-background:new 0 0 56 56;" xml:space="preserve">
<style type="text/css">
	.st0{fill:#68CC58;}
</style>
<circle class="st0" cx="28" cy="28" r="28"/>
<path d="M28,11.8c9.2,0,16.7,7.5,16.7,16.7S37.2,45.2,28,45.2c-2.7,0-5.4-0.6-7.7-1.9l-7.2,1.9c-0.2,0.1-0.5,0.1-0.7,0
	c-0.2-0.1-0.5-0.2-0.6-0.4c-0.2-0.2-0.3-0.4-0.4-0.6c-0.1-0.2-0.1-0.5,0-0.7l1.9-7.1c-1.3-2.4-1.9-5.1-1.9-7.8
	C11.3,19.3,18.8,11.8,28,11.8z M28,34.3c-0.4,0-0.9,0.2-1.2,0.5c-0.3,0.3-0.5,0.7-0.5,1.2c0,0.4,0.2,0.9,0.5,1.2
	c0.3,0.3,0.7,0.5,1.2,0.5s0.9-0.2,1.2-0.5c0.3-0.3,0.5-0.7,0.5-1.2c0-0.4-0.2-0.9-0.5-1.2C28.9,34.5,28.4,34.3,28,34.3z M28,19.7
	c-1.2,0-2.4,0.5-3.2,1.3c-0.9,0.9-1.3,2-1.3,3.2c0,0.3,0.1,0.6,0.3,0.9s0.5,0.4,0.8,0.4c0.3,0,0.6-0.1,0.9-0.3
	c0.2-0.2,0.4-0.5,0.4-0.8l0-0.4c0.1-0.5,0.3-1,0.7-1.4c0.4-0.3,0.9-0.5,1.5-0.5c0.5,0,1,0.3,1.4,0.6c0.4,0.4,0.6,0.9,0.6,1.4
	c0,0.9-0.2,1.3-1.1,2.2l-0.5,0.5c-1.3,1.3-1.8,2.2-1.8,3.9c0,0.3,0.1,0.6,0.4,0.9c0.2,0.2,0.6,0.4,0.9,0.4c0.3,0,0.6-0.1,0.9-0.4
	c0.2-0.2,0.4-0.6,0.4-0.9c0-0.9,0.2-1.3,1.1-2.2l0.5-0.5c1.3-1.3,1.8-2.2,1.8-3.9c0-1.2-0.5-2.4-1.3-3.2
	C30.4,20.2,29.2,19.7,28,19.7z"/>
</svg>
