<svg width="358" height="52" viewBox="0 0 358 52" fill="none" xmlns="http://www.w3.org/2000/svg">
<path d="M29.0352 1.61865L14.6142 20.2459V1.61865H0V50.6668H14.6142V29.9086L29.5378 50.6668H48.1342L27.6047 24.5078L46.7424 1.61865H29.0352Z" fill="white"/>
<path d="M65.9956 1.61865H51.3813V50.6668H65.9956V1.61865Z" fill="white"/>
<path d="M146.065 40.0852C155.46 40.0852 161.182 35.2722 161.182 26.1606C161.182 17.1593 155.344 12.2361 146.065 12.2361H143.166V40.1219H146.065V40.0852ZM128.899 50.6664V1.61816H145.795C165.551 1.61816 175.487 11.0237 175.487 25.9402C175.487 40.7098 165.01 50.6664 145.795 50.6664H128.899Z" fill="white"/>
<path d="M97.1969 13.6694L102.494 30.276H91.4363L97.1969 13.6694ZM109.801 50.6668H125.807L105.935 1.61865H88.6526L69.051 50.6668H83.9359L87.6474 41.0776H106.244L109.801 50.6668Z" fill="white"/>
<path d="M200.308 13.6694L205.605 30.276H194.548L200.308 13.6694ZM212.912 50.6668H228.918L209.046 1.61865H191.764L172.162 50.6668H187.047L190.759 41.0776H209.355L212.912 50.6668Z" fill="white"/>
<path d="M250.104 0.626953V15.3965H247.552V8.23218H246.586V14.7719H244.111V0.884135H246.586V6.24821H247.552V0.626953H250.104ZM239.665 10.1794C240.825 10.1427 242.062 10.0692 243.377 9.84875L243.57 11.9062C241.637 12.2369 239.974 12.2736 238.157 12.2736H236.997V2.317H242.719V4.33771H239.626V10.1794H239.665Z" fill="white"/>
<path d="M266.226 4.99904V7.09323H264.293V11.7592H261.586V0.663693H264.293V4.99904H266.226ZM256.483 8.30566C257.256 8.30566 257.798 7.975 257.798 7.31367C257.798 6.65235 257.256 6.32169 256.483 6.32169C255.71 6.32169 255.169 6.65235 255.169 7.31367C255.169 8.01174 255.71 8.30566 256.483 8.30566ZM256.715 13.2288H264.718V15.2496H254.009V10.9142H256.715V13.2288ZM256.483 10.2529C254.241 10.2529 252.617 9.04046 252.617 7.35041C252.617 5.66036 254.241 4.44794 256.483 4.44794C258.725 4.44794 260.388 5.66036 260.388 7.35041C260.349 9.04046 258.725 10.2529 256.483 10.2529ZM261.045 4.04379H251.882V2.05982H255.13V0.626953H257.836V2.05982H261.084V4.04379H261.045Z" fill="white"/>
<path d="M280.222 11.1347H277.515V0.626953H280.222V11.1347ZM273.031 3.74987H270.595V7.09323H273.031V3.74987ZM280.608 13.2288V15.2496H269.628V10.2161H272.335V13.2288H280.608ZM275.66 9.0772H267.966V1.72916H275.66V9.0772Z" fill="white"/>
<path d="M290.856 8.26982V10.0334H294.992V15.4709H292.286V12.0173H283.858V10.0334H288.149V8.26982H282.466V6.24911H292.054C292.286 5.07342 292.325 4.11818 292.363 3.23641H284.167V1.25244H294.992V2.46487C294.992 3.56708 294.992 4.7795 294.722 6.24911H296.578V8.26982H290.856Z" fill="white"/>
<path d="M250.955 21.7911V23.8486H249.022V27.2654H246.316V18.5947H249.022V21.7911H250.955ZM246.509 30.4618C246.509 29.727 245.62 29.4698 243.803 29.4698C242.025 29.4698 241.135 29.7638 241.135 30.4618C241.135 31.1966 242.025 31.4905 243.803 31.4905C245.62 31.4905 246.509 31.1966 246.509 30.4618ZM249.177 30.4618C249.177 32.3356 247.089 33.4378 243.803 33.4378C240.555 33.4378 238.468 32.3356 238.468 30.4618C238.468 28.5881 240.555 27.4859 243.803 27.4859C247.089 27.4859 249.177 28.5881 249.177 30.4618ZM244.77 27.045C243.107 26.6041 241.986 25.7223 241.329 24.5834C240.633 25.9428 239.473 27.045 237.656 27.5961L236.303 25.6121C238.777 24.8406 239.705 23.1505 239.859 21.5707H236.998V19.55H245.465V21.5707H242.643C242.798 23.0036 243.687 24.4364 246.045 25.0977L244.77 27.045Z" fill="white"/>
<path d="M265.376 18.5562V33.3625H262.824V26.1614H261.935V32.7746H259.461V18.7766H261.935V24.1407H262.824V18.5562H265.376ZM256.368 25.0592C256.368 22.8548 256.02 21.9363 255.401 21.9363C254.782 21.9363 254.435 22.8548 254.435 25.0592C254.435 27.2268 254.782 28.1453 255.401 28.1453C256.058 28.1086 256.368 27.2268 256.368 25.0592ZM258.842 25.0592C258.842 28.5128 257.527 30.5335 255.44 30.5335C253.352 30.5335 252.037 28.476 252.037 25.0592C252.037 21.6056 253.352 19.5481 255.44 19.5481C257.489 19.5114 258.842 21.5689 258.842 25.0592Z" fill="white"/>
<path d="M280.222 29.1392H277.516V18.5947H280.222V29.1392ZM271.678 24.914C272.644 24.914 273.379 24.3629 273.379 23.2975C273.379 22.1953 272.644 21.6809 271.678 21.6809C270.711 21.6809 269.976 22.232 269.976 23.2975C269.976 24.3629 270.711 24.914 271.678 24.914ZM280.609 31.1966V33.2173H269.628V28.1104H272.335V31.1599H280.609V31.1966ZM271.678 27.1185C269.242 27.1185 267.347 25.5019 267.347 23.2975C267.347 21.0931 269.242 19.4765 271.678 19.4765C274.113 19.4765 276.008 21.0931 276.008 23.2975C276.008 25.5019 274.113 27.1185 271.678 27.1185Z" fill="white"/>
<path d="M290.856 26.1971V27.9606H294.992V33.3982H292.286V29.9446H283.858V27.9606H288.149V26.1971H282.466V24.2131H292.054C292.286 23.0374 292.325 22.0822 292.363 21.2004H284.167V19.1797H294.992V20.4289C294.992 21.5311 294.992 22.7435 294.722 24.2131H296.578V26.2338H290.856V26.1971Z" fill="white"/>
<path d="M311.19 33.3643H308.638V18.5947H311.19V33.3643ZM305.468 18.7784H307.942V32.7764H305.468V28.8085L304.192 30.3883C302.916 29.6535 302.066 28.5146 301.563 27.1919C301.06 28.6983 300.21 29.9842 298.934 30.7557L297.349 28.9187C299.707 27.4859 300.248 24.8406 300.248 22.4157V21.9748H298.006V19.9541H304.849V21.9748H302.839V22.379C302.839 24.7303 303.341 27.0817 305.468 28.4044V25.5386H303.805V23.5179H305.468V18.7784Z" fill="white"/>
<path d="M322.866 21.2384H317.183V23.3326H322.866V21.2384ZM325.495 25.3533H314.554V19.2544H325.495V25.3533ZM327.119 28.6966H321.358V33.3994H318.652V28.6966H313.007V26.7127H327.119V28.6966Z" fill="white"/>
<path d="M333.924 25.4626H336.592V24.5074C336.205 24.5441 335.742 24.5808 335.278 24.5808C334.814 24.5808 334.35 24.5808 333.886 24.5074V25.4626H333.924ZM338.023 30.7164C338.023 30.1286 337.172 29.9082 335.278 29.9082C333.383 29.9082 332.533 30.1286 332.533 30.7164C332.533 31.3043 333.383 31.5247 335.278 31.5247C337.172 31.5247 338.023 31.3043 338.023 30.7164ZM332.378 21.6784C332.378 22.3397 333.422 22.6703 335.316 22.6703C337.249 22.6703 338.293 22.3764 338.293 21.6784C338.293 20.9803 337.249 20.7231 335.316 20.7231C333.383 20.6864 332.378 20.9803 332.378 21.6784ZM340.729 30.7164C340.729 32.4432 338.641 33.4352 335.278 33.4352C331.875 33.4352 329.826 32.4432 329.826 30.7164C329.826 28.9897 331.914 27.9977 335.278 27.9977C338.641 27.9609 340.729 28.9529 340.729 30.7164ZM342.353 25.4626V27.4466H328.241V25.4626H331.257V23.846C330.174 23.3317 329.594 22.5969 329.594 21.6784C329.594 19.8781 331.875 18.7759 335.316 18.7759C338.757 18.7759 341.038 19.8781 341.038 21.6784C341.038 22.6336 340.42 23.3684 339.298 23.8828V25.4626H342.353Z" fill="white"/>
<path d="M357.004 33.3619H354.452V18.5923H357.004V33.3619ZM351.282 18.776H353.757V32.774H351.282V28.8061L350.006 30.3859C348.73 29.6878 347.919 28.5489 347.377 27.1895C346.875 28.6958 346.024 29.9818 344.748 30.7533L343.163 28.9163C345.522 27.4834 346.063 24.8381 346.063 22.4133V21.9724H343.82V19.9517H350.664V21.9724H348.653V22.3765C348.653 24.7279 349.156 27.0793 351.282 28.4019V25.5362H349.62V23.5155H351.282V18.776Z" fill="white"/>
<path d="M237.113 43.2837C240.515 42.8061 241.907 41.1895 242.177 39.5362H237.809V37.5522H249.523V39.5362H245.154C245.464 41.1895 246.817 42.7326 250.335 43.2102L249.33 45.2309C246.508 44.7901 244.652 43.6511 243.724 42.108C242.757 43.6879 240.979 44.9003 238.195 45.3412L237.113 43.2837ZM250.76 47.6925V49.7133H236.649V47.6925H242.371V44.5696H245.077V47.6925H250.76Z" fill="white"/>
<path d="M264.95 45.4498H262.244V36.522H264.95V45.4498ZM254.202 46.0377H264.95V51.365H262.244V48.0217H254.202V46.0377ZM260.388 45.0457C258.726 44.5681 257.605 43.6128 256.909 42.4004C256.213 43.7231 255.053 44.7885 253.274 45.3029L251.883 43.3189C254.396 42.5841 255.323 40.9308 255.478 39.3142H252.617V37.3303H261.084V39.3142H258.262C258.416 40.8206 259.344 42.3637 261.741 43.0985L260.388 45.0457Z" fill="white"/>
<path d="M280.377 51.3283H277.671V36.522H280.377V51.3283ZM270.635 40.3062C270.635 41.0778 271.292 41.4819 272.22 41.4819C273.148 41.4819 273.766 41.1145 273.766 40.3062C273.766 39.5347 273.148 39.1305 272.22 39.1305C271.292 39.1305 270.635 39.4979 270.635 40.3062ZM268.083 40.3062C268.083 38.4325 269.861 37.0731 272.22 37.0731C274.578 37.0731 276.357 38.3957 276.357 40.3062C276.357 42.18 274.578 43.5394 272.22 43.5394C269.861 43.5026 268.083 42.18 268.083 40.3062ZM277.13 45.5601C275.97 45.7805 274.81 45.9275 273.612 46.0377V50.9241H270.905V46.1846C269.668 46.2214 268.547 46.2581 267.58 46.2581L267.271 44.2374C269.9 44.2374 273.689 44.2007 276.937 43.7231L277.13 45.5601Z" fill="white"/>
<path d="M293.058 45.0457V36.522H295.765V47.7277H293.058V46.7725H290.275V45.0457H293.058ZM286.022 39.6449C286.022 40.2327 286.602 40.4899 287.375 40.4899C288.187 40.4899 288.767 40.2327 288.767 39.6449C288.767 39.0938 288.226 38.8366 287.375 38.8366C286.602 38.8366 286.022 39.0938 286.022 39.6449ZM283.47 39.6449C283.47 38.1018 285.094 36.9629 287.375 36.9629C289.656 36.9629 291.28 38.0651 291.28 39.6449C291.28 41.2247 289.656 42.3269 287.375 42.3269C285.094 42.3269 283.47 41.2615 283.47 39.6449ZM296.113 49.1239V51.1446H284.244V46.699H286.331V44.862C285.055 44.9355 283.857 44.9355 282.736 44.9355L282.426 42.9515C285.249 42.9515 288.999 42.9148 292.247 42.5106L292.44 44.3109C291.319 44.4946 290.159 44.6416 288.999 44.715V47.4338H286.911V49.1239H296.113Z" fill="white"/>
<path d="M310.921 51.3301H308.214V36.5605H310.921V51.3301ZM301.371 43.284C301.371 43.9086 301.951 44.2025 302.763 44.2025C303.575 44.2025 304.155 43.9086 304.155 43.284C304.155 42.6594 303.575 42.3655 302.763 42.3655C301.913 42.4022 301.371 42.6594 301.371 43.284ZM307.403 40.0509H298.085V38.0669H301.41V36.634H304.116V38.1036H307.441V40.0509H307.403ZM304.078 46.9213C305.237 46.8478 306.397 46.7743 307.519 46.6274L307.712 48.4276C304.348 49.0522 300.791 49.0522 298.085 49.0522L297.776 47.0315C298.858 47.0315 300.134 47.0315 301.41 46.9948V45.9293C299.825 45.5619 298.82 44.5699 298.82 43.2473C298.82 41.594 300.482 40.4183 302.802 40.4183C305.121 40.4183 306.745 41.5572 306.745 43.2473C306.745 44.5699 305.701 45.5619 304.116 45.9293V46.9213H304.078Z" fill="white"/>
</svg>
