<svg width="382" height="61" viewBox="0 0 382 61" fill="none" xmlns="http://www.w3.org/2000/svg">
<path d="M74.3103 16.1304C65.8707 16.1304 58.7127 21.4101 56.1183 28.765L67.0585 52.2032C69.3091 53.0882 71.7472 53.5765 74.3103 53.5765H83.2188V16.1304H74.3103Z" fill="white"/>
<path d="M67.3398 58.8241L52.9612 28.0005C51.0232 33.5243 46.7722 38.0411 41.3646 40.452L32.8 58.8241H67.3398Z" fill="white"/>
<path d="M31.1426 16.1304H0.666382V53.9427H30.6738L12.6694 35.2044L31.1426 16.1304Z" fill="white"/>
<path d="M32.3626 39.9029C42.9902 39.9029 51.6174 31.5104 51.6174 21.1646C51.6174 10.8188 42.9902 2.42627 32.3626 2.42627H23.4229V13.6265H37.0825L33.019 17.8076L23.4229 27.6956V39.8419H32.3626V39.9029Z" fill="white"/>
<path d="M112.507 29.4048H108.881V38.774H122.103V35.539H112.507V29.4048Z" fill="white"/>
<path d="M113.976 9.47667H108.756V5.63135H104.849V9.47667H99.879V12.6506H113.976V9.47667Z" fill="white"/>
<path d="M104.224 20.3117C104.224 18.7858 105.444 17.565 107.1 17.565C108.757 17.565 109.913 18.7553 109.913 20.3117C109.913 21.8681 108.726 23.0889 107.1 23.0889C105.475 23.0889 104.224 21.8376 104.224 20.3117ZM113.633 20.2507C113.633 16.7105 110.757 14.0859 107.1 14.0859C103.443 14.0859 100.505 16.7105 100.505 20.2507C100.505 23.7908 103.412 26.4459 107.1 26.4459C110.789 26.4459 113.633 23.7603 113.633 20.2507Z" fill="white"/>
<path d="M120.883 20.677H124.946V17.4726H120.883V11.9487H117.257V27.208H120.883V20.677Z" fill="white"/>
<path d="M138.482 25.8962H142.108V20.8912H151.642V17.6562H128.667V20.8912H138.482V25.8962Z" fill="white"/>
<path d="M142.795 14.3604H146.421V4.31982H133.762V7.5853H142.795V14.3604Z" fill="white"/>
<path d="M134.137 30.932H143.108V38.348H146.734V27.7275H134.137V30.932Z" fill="white"/>
<path d="M169.99 33.0664C168.271 33.0664 166.833 31.7236 166.833 30.0451C166.833 28.3666 168.271 27.0238 169.99 27.0238C171.709 27.0238 173.147 28.3666 173.147 30.0451C173.147 31.7236 171.678 33.0664 169.99 33.0664ZM170.084 23.5752C166.364 23.5752 163.301 26.4134 163.301 29.9841C163.301 33.5547 166.364 36.3929 170.084 36.3929C173.804 36.3929 176.867 33.5852 176.867 29.9841C176.867 26.3829 173.804 23.5752 170.084 23.5752Z" fill="white"/>
<path d="M180.961 13.5068H176.866V7.86084H173.24V21.6247H176.866V16.7417H180.961V13.5068Z" fill="white"/>
<path d="M169.707 18.7862L164.612 11.7669H168.863V8.50146H155.797V11.7669H160.079L154.797 18.8167L157.673 20.8004L162.205 14.5136L166.862 20.8614L169.707 18.7862Z" fill="white"/>
<path d="M190.775 17.7478C189.149 17.7478 187.774 16.344 187.774 14.8181C187.774 13.2921 189.149 11.8883 190.775 11.8883C192.4 11.8883 193.775 13.2616 193.775 14.8181C193.775 16.3745 192.4 17.7478 190.775 17.7478ZM190.712 8.40918C187.024 8.40918 184.086 11.339 184.086 14.8791C184.086 18.4192 187.055 21.349 190.712 21.349C194.369 21.349 197.339 18.4192 197.339 14.8791C197.339 11.339 194.369 8.40918 190.712 8.40918Z" fill="white"/>
<path d="M206.594 28.4615H210.157V7.95312H206.594V13.3854H202.499V7.95312H199.092V28.4615H202.499V17.0171H206.594V28.4615Z" fill="white"/>
<path d="M235.66 7.79834H232.034V23.1491H235.66V7.79834Z" fill="white"/>
<path d="M223.158 24.8896V34.6861H236.411V31.4511H226.784V24.8896H223.158Z" fill="white"/>
<path d="M216.751 14.6052C216.751 13.0792 218.126 11.6754 219.751 11.6754C221.377 11.6754 222.752 13.0792 222.752 14.6052C222.752 16.1311 221.377 17.5349 219.751 17.5349C218.126 17.5349 216.751 16.1311 216.751 14.6052ZM226.347 14.6662C226.347 11.1261 223.377 8.19629 219.72 8.19629C216.063 8.19629 213.094 11.1261 213.094 14.6662C213.094 18.2063 216.063 21.1361 219.72 21.1361C223.377 21.1361 226.347 18.2063 226.347 14.6662Z" fill="white"/>
<path d="M257.073 10.8511H252.165V6.21225H257.073V10.8511ZM260.699 3.00781H248.539V14.086H260.699V3.00781Z" fill="white"/>
<path d="M252.822 25.8962H256.448V20.8912H266.013V17.6562H243.039V20.8912H252.822V25.8962Z" fill="white"/>
<path d="M251.854 26.8721H248.228V36.2107H261.075V33.0368H251.854V26.8721Z" fill="white"/>
<path d="M291.488 20.2495H295.958V17.0146H291.488V11.4907H287.862V32.1517H291.488V20.2495Z" fill="white"/>
<path d="M277.984 16.8643C276.515 16.8643 275.327 15.674 275.327 14.2702C275.327 12.8663 276.515 11.6761 277.984 11.6761C279.453 11.6761 280.641 12.8663 280.641 14.2702C280.641 15.674 279.453 16.8643 277.984 16.8643ZM285.799 23.4257H279.891V19.794C282.235 19.0616 283.986 16.8643 283.986 14.2702C283.986 11.0963 281.329 8.47168 278.015 8.47168C274.702 8.47168 272.045 11.0963 272.045 14.2702C272.045 16.8643 273.764 19.0921 276.234 19.8245V23.3952H269.888V26.6302H285.83V23.3952L285.799 23.4257Z" fill="white"/>
<path d="M285.144 4.38072H279.799V0.626953H276.048V4.38072H270.859V7.52413H285.144V4.38072Z" fill="white"/>
<path d="M326.935 10.7905H323.372V32.1535H326.935V10.7905Z" fill="white"/>
<path d="M305.024 21.6248C303.399 21.6248 302.023 20.2209 302.023 18.695C302.023 17.1691 303.399 15.7652 305.024 15.7652C306.65 15.7652 308.025 17.1691 308.025 18.695C308.025 20.2209 306.65 21.6248 305.024 21.6248ZM304.962 12.2861C301.273 12.2861 298.335 15.2159 298.335 18.756C298.335 22.2962 301.305 25.1954 304.962 25.1954C308.619 25.1954 311.588 22.2657 311.588 18.756C311.588 15.2464 308.619 12.2861 304.962 12.2861Z" fill="white"/>
<path d="M320.153 32.1535V10.7905H316.746V14.117H312.932V17.0468H316.746V20.2513H312.932V23.181H316.746V32.1535H320.153Z" fill="white"/>
<path d="M341.408 8.71426L346.878 14.6348L349.629 12.346L341.408 3.43457L333.25 12.346L336.031 14.6654L341.408 8.71426Z" fill="white"/>
<path d="M335.467 30.9623V40.9113H347.876V37.6764H339.093V34.1362H347.438V24.5229H343.406V20.8912H352.94V17.6562H329.965V20.8912H339.78V24.5229H335.435V27.7579H343.812V30.9623H335.467Z" fill="white"/>
<path d="M378.04 27.4849H381.666V10.7607H378.04V19.7332H374.071V22.9681H378.04V27.4849Z" fill="white"/>
<path d="M371.884 28.2163H368.289V37.5855H381.48V34.4116H371.884V28.2163Z" fill="white"/>
<path d="M372.289 17.5044H356.629V20.7394H362.693V25.5002H366.287V20.7394H372.289V17.5044Z" fill="white"/>
<path d="M364.536 5.48057C366.161 5.48057 367.537 6.88442 367.537 8.41034C367.537 9.93627 366.161 11.3401 364.536 11.3401C362.911 11.3401 361.504 9.93627 361.504 8.41034C361.504 6.88442 362.879 5.48057 364.536 5.48057ZM364.473 14.9108C368.162 14.9108 371.1 11.981 371.1 8.47138C371.1 4.96176 368.131 2.00146 364.473 2.00146C360.816 2.00146 357.847 4.93124 357.847 8.47138C357.847 12.0115 360.816 14.9108 364.473 14.9108Z" fill="white"/>
<path d="M102.565 48.0532H103.753V54.1569L109.754 48.0532H111.255L106.785 52.5089L111.474 58.2464H109.973L105.972 53.3329L103.753 55.5302V58.2464H102.565V48.0532Z" fill="white"/>
<path d="M118.978 54.5228C118.978 52.8748 117.727 51.5625 116.102 51.5625C114.476 51.5625 113.289 52.9053 113.289 54.4923C113.289 56.1403 114.508 57.4526 116.133 57.4526C117.758 57.4526 118.978 56.1403 118.978 54.5533M112.101 54.5533C112.101 52.3865 113.789 50.5859 116.133 50.5859C118.477 50.5859 120.165 52.356 120.165 54.4923C120.165 56.6591 118.446 58.4597 116.133 58.4597C113.82 58.4597 112.132 56.6896 112.132 54.5533" fill="white"/>
<path d="M122.229 50.7085H123.386V52.6922C123.948 51.4409 125.074 50.5253 126.543 50.5864V51.8071H126.449C124.761 51.8071 123.386 52.9973 123.386 55.2557V58.2465H122.229V50.7085Z" fill="white"/>
<path d="M133.7 54.0353C133.575 52.6619 132.763 51.5022 131.231 51.5022C129.918 51.5022 128.887 52.5704 128.73 54.0353H133.7ZM131.45 57.4533C132.513 57.4533 133.263 57.0261 133.888 56.3852L134.607 57.0261C133.825 57.8806 132.888 58.4299 131.419 58.4299C129.293 58.4299 127.574 56.843 127.574 54.493C127.574 52.2957 129.137 50.5562 131.262 50.5562C133.544 50.5562 134.857 52.3262 134.857 54.5541C134.857 54.6456 134.857 54.7677 134.857 54.9508H128.73C128.887 56.5378 130.075 57.4533 131.45 57.4533Z" fill="white"/>
<path d="M141.984 55.4992V54.7972C141.421 54.6447 140.671 54.4921 139.733 54.4921C138.295 54.4921 137.483 55.1024 137.483 55.9875C137.483 56.9641 138.389 57.5134 139.421 57.5134C140.827 57.5134 141.984 56.6894 141.984 55.4992ZM136.295 56.079C136.295 54.431 137.639 53.5765 139.608 53.5765C140.577 53.5765 141.265 53.6986 141.953 53.9122V53.6681C141.953 52.3252 141.109 51.6233 139.671 51.6233C138.764 51.6233 138.045 51.837 137.326 52.1727L136.983 51.2571C137.827 50.8604 138.671 50.6162 139.796 50.6162C140.921 50.6162 141.734 50.9214 142.296 51.4402C142.828 51.959 143.109 52.6915 143.109 53.6681V58.2763H141.984V57.1472C141.453 57.8186 140.577 58.4289 139.202 58.4289C137.764 58.4289 136.326 57.6355 136.326 56.079" fill="white"/>
<path d="M153.831 57.1787C156.488 57.1787 158.176 55.4392 158.176 53.1808C158.176 50.8919 156.488 49.1219 153.831 49.1219H151.393V57.2093H153.831V57.1787ZM150.205 48.0537H153.831C157.113 48.0537 159.395 50.251 159.395 53.1198C159.395 56.019 157.113 58.2469 153.831 58.2469H150.205V48.0537Z" fill="white"/>
<path d="M161.801 58.2442H162.958V50.7061H161.801V58.2442ZM161.738 49.0581H163.052V47.8374H161.738V49.0581Z" fill="white"/>
<path d="M164.864 57.2995L165.458 56.506C166.302 57.1164 167.208 57.4521 168.146 57.4521C169.083 57.4521 169.74 56.9943 169.74 56.2619C169.74 55.4684 168.833 55.1937 167.802 54.9191C166.583 54.5834 165.239 54.1866 165.239 52.7828C165.239 51.4705 166.333 50.5854 167.864 50.5854C168.802 50.5854 169.834 50.9212 170.646 51.4094L170.115 52.264C169.396 51.8062 168.583 51.5315 167.833 51.5315C166.927 51.5315 166.333 51.9893 166.333 52.6302C166.333 53.3626 167.302 53.6373 168.333 53.973C169.521 54.3392 170.803 54.7665 170.803 56.1398C170.803 57.6047 169.584 58.4287 168.052 58.4287C166.958 58.4287 165.708 58.0014 164.864 57.33" fill="white"/>
<path d="M178.024 55.4982V54.7963C177.462 54.6437 176.712 54.4911 175.774 54.4911C174.336 54.4911 173.523 55.1014 173.523 55.9865C173.523 56.9631 174.43 57.5124 175.461 57.5124C176.868 57.5124 178.024 56.6884 178.024 55.4982ZM172.367 56.078C172.367 54.43 173.711 53.5755 175.649 53.5755C176.618 53.5755 177.306 53.6976 177.993 53.9112V53.6671C177.993 52.3243 177.149 51.6223 175.711 51.6223C174.805 51.6223 174.086 51.836 173.367 52.1717L173.023 51.2561C173.867 50.8594 174.68 50.6152 175.836 50.6152C176.993 50.6152 177.774 50.9204 178.337 51.4392C178.868 51.958 179.15 52.6905 179.15 53.6671V58.2754H178.024V57.1462C177.493 57.8176 176.618 58.428 175.243 58.428C173.805 58.428 172.367 57.6345 172.367 56.078Z" fill="white"/>
<path d="M188.246 54.5214C188.246 52.7209 186.995 51.5611 185.526 51.5611C184.057 51.5611 182.744 52.7514 182.744 54.4604C182.744 56.2305 184.088 57.4207 185.526 57.4207C186.964 57.4207 188.246 56.322 188.246 54.5214ZM182.775 56.8103V58.2447H181.619V47.5938H182.775V52.202C183.401 51.2865 184.307 50.5235 185.745 50.5235C187.589 50.5235 189.433 51.9579 189.433 54.4299C189.433 56.9324 187.62 58.3668 185.745 58.3668C184.307 58.3668 183.369 57.6038 182.775 56.7493" fill="white"/>
<path d="M191.557 58.2442H192.714V50.7061H191.557V58.2442ZM191.494 49.0581H192.808V47.8374H191.494V49.0581Z" fill="white"/>
<path d="M196.497 47.6265H195.34V58.2774H196.497V47.6265Z" fill="white"/>
<path d="M199.121 58.2442H200.278V50.7061H199.121V58.2442ZM199.058 49.0581H200.372V47.8374H199.058V49.0581Z" fill="white"/>
<path d="M203.156 56.2615V51.7142H202.093V50.7071H203.156V48.4487H204.312V50.7071H206.75V51.7142H204.312V56.1089C204.312 57.0244 204.843 57.3601 205.594 57.3601C205.969 57.3601 206.313 57.2991 206.719 57.0855V58.0621C206.313 58.2757 205.906 58.3978 205.344 58.3978C204.093 58.3978 203.156 57.7874 203.156 56.2615Z" fill="white"/>
<path d="M208.471 60.2603L208.846 59.3752C209.221 59.5584 209.565 59.6499 210.065 59.6499C210.752 59.6499 211.19 59.3142 211.659 58.2155L208.158 50.708H209.44L212.253 56.9948L214.722 50.708H215.941L212.69 58.4902C212.034 60.0467 211.284 60.6265 210.127 60.6265C209.471 60.6265 209.002 60.5044 208.502 60.2603" fill="white"/>
<path d="M229.224 54.5224L226.848 49.3038L224.473 54.5224H229.224ZM226.317 47.9609H227.411L232.162 58.2457H230.881L229.662 55.56H223.973L222.722 58.2457H221.503L226.255 47.9609H226.317Z" fill="white"/>
<path d="M234.006 50.7085H235.163V52.6922C235.726 51.4409 236.851 50.5253 238.32 50.5864V51.8071H238.226C236.538 51.8071 235.163 52.9973 235.163 55.2557V58.2465H234.006V50.7085Z" fill="white"/>
<path d="M240.725 56.2644V51.7171H239.663V50.71H240.725V48.4517H241.882V50.71H244.351V51.7171H241.882V56.1118C241.882 57.0273 242.413 57.3631 243.195 57.3631C243.57 57.3631 243.914 57.302 244.32 57.0884V58.065C243.914 58.2786 243.476 58.4007 242.945 58.4007C241.694 58.4007 240.757 57.7903 240.757 56.2644" fill="white"/>
<path d="M245.79 57.3005L246.384 56.507C247.228 57.1174 248.134 57.4531 249.041 57.4531C249.947 57.4531 250.635 56.9953 250.635 56.2629C250.635 55.4694 249.728 55.1947 248.697 54.92C247.478 54.5843 246.134 54.1876 246.134 52.7838C246.134 51.4715 247.228 50.5864 248.759 50.5864C249.697 50.5864 250.76 50.9221 251.541 51.4104L251.01 52.2649C250.291 51.8072 249.478 51.5325 248.728 51.5325C247.822 51.5325 247.228 51.9903 247.228 52.6312C247.228 53.3636 248.165 53.6383 249.228 53.974C250.416 54.3402 251.698 54.7675 251.698 56.1408C251.698 57.6057 250.479 58.4297 248.947 58.4297C247.853 58.4297 246.634 58.0024 245.759 57.331" fill="white"/>
<path d="M263.388 50.2816C263.388 49.427 262.763 48.8472 261.919 48.8472C260.981 48.8472 260.325 49.4881 260.325 50.3121C260.325 50.953 260.575 51.4107 261.388 52.2347C262.7 51.8075 263.388 51.1666 263.388 50.3121M263.701 56.1411L260.887 53.3334C259.512 53.8217 258.887 54.6457 258.887 55.5307C258.887 56.6599 259.762 57.4839 261.075 57.4839C262.044 57.4839 262.919 56.9651 263.701 56.1716M264.42 56.8735C263.451 57.8807 262.357 58.4605 261.012 58.4605C259.137 58.4605 257.73 57.3008 257.73 55.5918C257.73 54.2184 258.668 53.2418 260.262 52.6315C259.543 51.8075 259.2 51.1971 259.2 50.3731C259.2 48.9998 260.294 47.9316 261.981 47.9316C263.451 47.9316 264.513 48.9693 264.513 50.2205C264.513 51.5633 263.576 52.3873 262.044 52.9061L264.451 55.2866C264.92 54.6152 265.326 53.8522 265.701 53.0282L266.67 53.4555C266.201 54.4321 265.732 55.2866 265.17 56.019L266.983 57.8501L266.076 58.5215L264.451 56.8735H264.42Z" fill="white"/>
<path d="M272.954 53.1823C272.954 50.2525 275.173 47.8721 278.237 47.8721C280.143 47.8721 281.269 48.5435 282.3 49.4895L281.487 50.3441C280.612 49.5506 279.612 48.9402 278.205 48.9402C275.892 48.9402 274.173 50.7713 274.173 53.1212C274.173 55.5017 275.924 57.3633 278.205 57.3633C279.643 57.3633 280.581 56.814 281.581 55.8984L282.363 56.6309C281.269 57.699 280.081 58.4315 278.174 58.4315C275.142 58.4315 272.923 56.1121 272.923 53.1823" fill="white"/>
<path d="M284.08 55.4078V50.7385H285.237V55.1332C285.237 56.537 286.018 57.3915 287.363 57.3915C288.707 57.3915 289.676 56.4455 289.676 55.0416V50.708H290.801V58.2461H289.676V56.9338C289.144 57.7273 288.363 58.3987 287.019 58.3987C285.143 58.3987 284.049 57.1779 284.049 55.3773" fill="white"/>
<path d="M294.553 47.6265H293.426V58.2774H294.553V47.6265Z" fill="white"/>
<path d="M297.49 56.2615V51.7142H296.427V50.7071H297.49V48.4487H298.646V50.7071H301.085V51.7142H298.646V56.1089C298.646 57.0244 299.178 57.3601 299.959 57.3601C300.334 57.3601 300.678 57.2991 301.085 57.0855V58.0621C300.678 58.2757 300.241 58.3978 299.678 58.3978C298.428 58.3978 297.49 57.7874 297.49 56.2615Z" fill="white"/>
<path d="M302.834 55.4074V50.738H303.991V55.1327C303.991 56.5365 304.772 57.3911 306.116 57.3911C307.461 57.3911 308.43 56.445 308.43 55.0411V50.7075H309.555V58.2456H308.43V56.9333C307.898 57.7268 307.117 58.3982 305.773 58.3982C303.897 58.3982 302.834 57.1774 302.834 55.3768" fill="white"/>
<path d="M312.117 50.708H313.274V52.6917C313.836 51.4404 314.962 50.5249 316.431 50.5859V51.8066H316.337C314.649 51.8066 313.274 52.9968 313.274 55.2552V58.246H312.117V50.708Z" fill="white"/>
<path d="M323.589 54.0353C323.463 52.6619 322.651 51.5022 321.119 51.5022C319.806 51.5022 318.775 52.5704 318.619 54.0353H323.589ZM321.338 57.4533C322.401 57.4533 323.151 57.0261 323.776 56.3852L324.495 57.0261C323.714 57.8806 322.776 58.4299 321.307 58.4299C319.181 58.4299 317.462 56.843 317.462 54.493C317.462 52.2957 319.025 50.5562 321.15 50.5562C323.432 50.5562 324.745 52.3262 324.745 54.5541C324.745 54.6456 324.745 54.7677 324.745 54.9508H318.619C318.775 56.5378 319.963 57.4533 321.338 57.4533Z" fill="white"/>
<path d="M330.997 53.1818C330.997 50.252 333.216 47.8716 336.279 47.8716C338.186 47.8716 339.311 48.543 340.343 49.4891L339.53 50.3436C338.655 49.5501 337.655 48.9397 336.248 48.9397C333.935 48.9397 332.185 50.7708 332.185 53.1208C332.185 55.5012 333.935 57.3628 336.248 57.3628C337.686 57.3628 338.624 56.8135 339.624 55.8979L340.405 56.6304C339.311 57.6985 338.124 58.431 336.217 58.431C333.216 58.431 330.997 56.1116 330.997 53.1818Z" fill="white"/>
<path d="M347.939 54.0353C347.814 52.6619 347.001 51.5022 345.469 51.5022C344.156 51.5022 343.125 52.5704 342.969 54.0353H347.939ZM345.688 57.4533C346.751 57.4533 347.501 57.0261 348.126 56.3852L348.845 57.0261C348.064 57.8806 347.126 58.4299 345.657 58.4299C343.531 58.4299 341.812 56.843 341.812 54.493C341.812 52.2957 343.375 50.5562 345.5 50.5562C347.782 50.5562 349.095 52.3262 349.095 54.5541C349.095 54.6456 349.095 54.7677 349.095 54.9508H342.969C343.125 56.5378 344.313 57.4533 345.688 57.4533Z" fill="white"/>
<path d="M351.159 50.7087H352.315V52.021C352.815 51.197 353.628 50.5562 354.972 50.5562C356.848 50.5562 357.91 51.7769 357.91 53.5775V58.2468H356.754V53.8521C356.754 52.4483 355.972 51.5633 354.628 51.5633C353.284 51.5633 352.315 52.5093 352.315 53.9132V58.2163H351.159V50.6782V50.7087Z" fill="white"/>
<path d="M360.567 56.2615V51.7142H359.504V50.7071H360.567V48.4487H361.723V50.7071H364.162V51.7142H361.723V56.1089C361.723 57.0244 362.255 57.3601 363.036 57.3601C363.411 57.3601 363.755 57.2991 364.162 57.0855V58.0621C363.755 58.2757 363.318 58.3978 362.786 58.3978C361.536 58.3978 360.598 57.7874 360.598 56.2615" fill="white"/>
<path d="M371.476 54.0353C371.351 52.6619 370.538 51.5022 369.007 51.5022C367.663 51.5022 366.662 52.5704 366.506 54.0353H371.476ZM369.226 57.4533C370.288 57.4533 371.039 57.0261 371.664 56.3852L372.383 57.0261C371.601 57.8806 370.663 58.4299 369.194 58.4299C367.069 58.4299 365.35 56.843 365.35 54.493C365.35 52.2957 366.913 50.5562 369.069 50.5562C371.351 50.5562 372.664 52.3262 372.664 54.5541C372.664 54.6456 372.664 54.7677 372.664 54.9508H366.537C366.694 56.5378 367.882 57.4533 369.257 57.4533" fill="white"/>
<path d="M374.696 50.708H375.853V52.6917C376.416 51.4404 377.541 50.5249 379.01 50.5859V51.8066H378.916C377.228 51.8066 375.853 52.9968 375.853 55.2552V58.246H374.696V50.708Z" fill="white"/>
</svg>
