<svg id="Layer_1" data-name="Layer 1" xmlns="http://www.w3.org/2000/svg" viewBox="0 0 481.89 78.16"><defs><style>.cls-1{fill:#fff;}.cls-2{fill:#fff;}</style></defs><path class="cls-1" d="M394,284.46h-9.64v5.64H394v27.39h6.67V273.11H394v11.35Zm-3.94,17.34c-4.27-2.69-7.47-5.82-9.24-9.19-1.71-3.13-2.62-7.75-2.62-12.37v-5h-6.9v5.24c0,4.28-.74,8.56-2.34,11.58-1.77,3.37-5.59,7.42-10.15,10.55l4.16,4.22a44.07,44.07,0,0,0,7.07-5.81,28.36,28.36,0,0,0,4.79-5.82,28.2,28.2,0,0,0,5.08,6.1,33.92,33.92,0,0,0,6.33,4.79l3.82-4.33Zm39.64-.86v3.31h-11.3v5.13h22.31V312H418.42v12.66h30.29v-5.18H425.5V316.8h22.24V304.25h-11v-3.31h20.53v-5.19H409.18v5.19ZM433.14,271c-7.07,0-12.78,5.3-12.78,11.69s5.71,11.69,12.78,11.69,12.78-5.24,12.78-11.69S440.21,271,433.14,271m-6.5,11.69a6.51,6.51,0,0,1,13,0,6.51,6.51,0,0,1-13,0m55.44,21.56v9.52H489v-9.52h19.16v-5.42H461v5.42ZM469.42,308v16.48h30.85v-5.53H476.32V308Zm.23-13.75h29.54V274.65H469.65v19.56ZM476.32,280h16v8.95h-16V280Zm55.9-2.85v-5.59h-6.84v5.59H514.65v5.36h5.48a10.75,10.75,0,0,0-3.14,7.47,11.19,11.19,0,0,0,8,10.78v3.88c-1.83,0-3.53.06-5.13.06h-7.19V310l9.19-.05c7.35-.06,18.2-.8,22.7-1.43v-5.19c-2.91.34-7.65.69-12.61,1v-3.54a11.24,11.24,0,0,0,8.33-10.84,10.59,10.59,0,0,0-3.2-7.47h5.19V277.1Zm2,12.66a5.65,5.65,0,1,1-5.64-6,6,6,0,0,1,5.64,6M553,292.84V273.16h-6.56v44.15H553V298.38h7.19v-5.54Zm20.13-11.23v2a26.91,26.91,0,0,1-1.7,9.87c-1.38,3.19-4.17,6.62-8,9.87l4,3.93a29.1,29.1,0,0,0,6-5.82,28.26,28.26,0,0,0,3.2-4.56,24.15,24.15,0,0,0,3.14,4.4,24.41,24.41,0,0,0,5.7,5.24l3.37-3.94a28,28,0,0,1-7.25-8.78,25.67,25.67,0,0,1-1.94-10.32v-1.88h7V276h-20.7v5.65Zm27.5,5.47h-4.68V274h-6.27v42.61h6.27V293.12h4.68v24.76h6.5V273.16h-6.5v13.92Zm55,.23V273.05H649v37.76h6.61V292.9h7.25v-5.59Zm-28.68,20.76v16.48h29.48V319H633.58V308.07ZM646.29,295a149.53,149.53,0,0,1-17.62,1.32l-4.11.05v-15.4h15.8v-5.59H617.89v26.41l9.87-.06a142.18,142.18,0,0,0,18.53-1.48V295Z" transform="translate(-180.95 -259.54)"/><path class="cls-2" d="M240.67,279.08h19.65V259.54H240.67v19.54Zm13.42-6.2h-7.2v-7.16h7.2v7.16Z" transform="translate(-180.95 -259.54)"/><polygon class="cls-2" points="92.47 6.51 92.47 0 85.92 0 85.92 13.03 99.01 13.03 99.01 6.51 92.47 6.51 92.47 6.51"/><polygon class="cls-2" points="66.27 45.59 66.27 39.08 59.73 39.08 59.73 52.1 72.82 52.1 72.82 45.59 66.27 45.59 66.27 45.59"/><polygon class="cls-2" points="66.27 32.57 66.27 39.08 72.82 39.08 72.82 26.05 59.73 26.05 59.73 32.57 66.27 32.57 66.27 32.57"/><polygon class="cls-2" points="118.66 26.05 112.11 26.05 112.11 19.54 105.56 19.54 105.56 39.08 112.11 39.08 112.11 32.57 118.66 32.57 118.66 26.05 118.66 26.05"/><path class="cls-2" d="M273.41,298.06a9.82,9.82,0,1,0-6.55,0v7.07h-6.54v6.51H280v-6.51h-6.55v-7.07Zm-3.27-13.12a3.91,3.91,0,1,1-3.93,3.9,3.92,3.92,0,0,1,3.93-3.9" transform="translate(-180.95 -259.54)"/><polygon class="cls-2" points="46.63 58.62 46.63 52.11 40.07 52.11 40.07 65.13 53.17 65.13 53.17 58.62 46.63 58.62 46.63 58.62"/><polygon class="cls-2" points="26.98 32.57 26.98 45.59 33.53 45.59 33.53 26.05 20.43 26.05 20.43 32.57 26.98 32.57 26.98 32.57"/><polygon class="cls-2" points="53.17 32.57 53.17 26.05 40.07 26.05 40.07 45.59 46.63 45.59 46.63 52.1 53.17 52.1 53.17 39.08 46.63 39.08 46.63 32.57 53.17 32.57 53.17 32.57"/><polygon class="cls-2" points="118.66 52.1 118.66 45.59 105.56 45.59 105.56 65.13 118.66 65.13 118.66 58.62 112.11 58.62 112.11 52.1 118.66 52.1 118.66 52.1"/><polygon class="cls-2" points="125.21 71.64 125.21 65.13 118.66 65.13 118.66 78.16 131.75 78.16 131.75 71.64 125.21 71.64 125.21 71.64"/><polygon class="cls-2" points="92.47 65.13 92.47 58.62 85.92 58.62 85.92 78.16 92.47 78.16 92.47 71.64 99.01 71.64 99.01 78.16 105.56 78.16 105.56 65.13 92.47 65.13 92.47 65.13"/><polygon class="cls-2" points="138.3 52.1 131.75 52.1 131.75 45.59 125.21 45.59 125.21 65.13 131.75 65.13 131.75 58.62 138.3 58.62 138.3 52.1 138.3 52.1"/><polygon class="cls-2" points="73.92 65.13 79.37 65.13 79.37 58.62 59.73 58.62 59.73 65.13 65.17 65.13 59.47 78.16 66.32 78.16 69.55 70.8 72.77 78.16 79.63 78.16 73.92 65.13 73.92 65.13"/><path class="cls-2" d="M224.3,259.54a9.77,9.77,0,1,0,9.82,9.77,9.79,9.79,0,0,0-9.82-9.77m0,13.67a3.91,3.91,0,1,1,3.93-3.9,3.92,3.92,0,0,1-3.93,3.9" transform="translate(-180.95 -259.54)"/><polygon class="cls-2" points="0 45.59 6.95 45.59 10.61 36.48 14.27 45.59 21.22 45.59 10.61 22.14 0 45.59 0 45.59"/><polygon class="cls-2" points="158.5 78.16 159.92 78.16 159.92 0 158.5 0 158.5 78.16 158.5 78.16"/></svg>