<?xml version="1.0" encoding="utf-8"?>
<!-- Generator: Adobe Illustrator 24.2.1, SVG Export Plug-In . SVG Version: 6.00 Build 0)  -->
<svg version="1.1" id="Layer_1" xmlns="http://www.w3.org/2000/svg" xmlns:xlink="http://www.w3.org/1999/xlink" x="0px" y="0px"
	 viewBox="0 0 354.1 42.6" style="enable-background:new 0 0 354.1 42.6;" xml:space="preserve">
<style type="text/css">
	.st0{ fill:#30A34A;}
</style>
<g>
	<g>
		<polygon class="st0" points="24.3,42.5 12,24.6 12,42.5 0,42.5 0,0.1 12,0.1 12,16.2 23.9,0.1 38.4,0.1 22.7,19.9 39.6,42.5 		"/>
		<rect x="42.3" y="0.1" class="st0" width="12" height="42.4"/>
		<path class="st0" d="M106,42.5V0.1h13.9c16.3,0,24.4,8.1,24.4,21c0,12.8-8.6,21.4-24.4,21.4H106z M120.1,33.4
			c7.7,0,12.4-4.2,12.4-12.1c0-7.8-4.8-12.1-12.4-12.1h-2.4v24.1H120.1z"/>
		<path class="st0" d="M90.3,42.5h13.2L87.1,0.1H72.9L56.8,42.5h12.3l3.1-8.3h15.3L90.3,42.5z M79.9,10.5l4.4,14.4h-9.1L79.9,10.5z"
			/>
		<path class="st0" d="M175.1,42.5h13.2L171.9,0.1h-14.2l-16.1,42.4h12.3l3.1-8.3h15.3L175.1,42.5z M164.7,10.5l4.4,14.4H160
			L164.7,10.5z"/>
	</g>
	<g>
		<g>
			<path class="st0" d="M201,28.9l-2.4-4l-0.8,0.8v3.1h-2.2v-9.5h2.2v3.5l2.9-3.5h2.6l-3.3,3.8l3.6,5.7H201z"/>
			<path class="st0" d="M207.5,29c-2.2,0-3.8-1.3-3.8-3.5c0-2.2,1.6-3.5,3.8-3.5c2.2,0,3.8,1.4,3.8,3.5
				C211.3,27.7,209.6,29,207.5,29z M207.5,23.7c-1,0-1.5,0.8-1.5,1.8c0,1,0.6,1.8,1.5,1.8c1,0,1.5-0.8,1.5-1.8
				C209,24.5,208.5,23.7,207.5,23.7z"/>
			<path class="st0" d="M216.8,24.1L216.8,24.1c-0.2-0.1-0.5-0.2-0.9-0.2c-1.1,0-1.4,1-1.4,1.9v3h-2.2v-6.8h2.2l0,1h0
				c0.4-0.7,1-1.1,1.7-1.1c0.5,0,0.7,0.1,0.7,0.1L216.8,24.1z"/>
			<path class="st0" d="M224.2,26h-4.8c0.1,1,0.8,1.4,1.7,1.4c0.9,0,1.7-0.4,2-0.6l0.9,1.1c-0.2,0.2-1.1,1.1-3.2,1.1
				c-2.1,0-3.6-1.3-3.6-3.5c0-2.2,1.7-3.5,3.7-3.5c2,0,3.4,1.3,3.4,3.3C224.3,25.6,224.2,26,224.2,26z M220.8,23.4
				c-0.9,0-1.4,0.7-1.4,1.4h2.8C222.2,24.1,221.7,23.4,220.8,23.4z"/>
			<path class="st0" d="M229.4,28.9l0-0.7c-0.3,0.3-0.8,0.9-1.9,0.9c-1.2,0-2.5-0.6-2.5-2.2c0-1.5,1.4-2,2.6-2.1l1.7-0.1v-0.2
				c0-0.7-0.5-1.1-1.4-1.1c-0.9,0-1.7,0.4-2.1,0.6l-0.6-1.4c0.6-0.3,1.6-0.7,2.9-0.7c2.1,0,3.3,0.9,3.3,3.1v3.8H229.4z M228.2,26
				c-0.7,0-1.1,0.3-1.1,0.8c0,0.5,0.4,0.8,1,0.8c0.6,0,1-0.4,1.1-0.6v-1.1L228.2,26z"/>
			<path class="st0" d="M235.7,28.9v-9.5h2.2v9.5H235.7z"/>
			<path class="st0" d="M244,28.9v-3.5c0-0.9-0.1-1.6-1-1.6c-1,0-1.2,0.8-1.2,1.8v3.4h-2.2v-6.8h2.2l0,1h0c0.4-0.6,1-1.1,2-1.1
				c2,0,2.5,1.3,2.5,2.9v4H244z"/>
			<path class="st0" d="M250.2,23.8v2.4c0,0.6,0,1,0.7,1c0.3,0,0.7-0.1,0.7-0.1l0.1,1.7c-0.2,0-0.8,0.2-1.6,0.2
				c-1.8,0-2.1-1.1-2.1-2.6v-2.6h-1v-1.7h1v-1.8h2.2v1.8h1.5v1.7H250.2z"/>
			<path class="st0" d="M259.2,26h-4.8c0.1,1,0.8,1.4,1.7,1.4c0.9,0,1.7-0.4,2-0.6l0.9,1.1c-0.2,0.2-1.1,1.1-3.2,1.1
				c-2.1,0-3.6-1.3-3.6-3.5c0-2.2,1.7-3.5,3.7-3.5c2,0,3.4,1.3,3.4,3.3C259.3,25.6,259.2,26,259.2,26z M255.8,23.4
				c-0.9,0-1.4,0.7-1.4,1.4h2.8C257.2,24.1,256.7,23.4,255.8,23.4z"/>
			<path class="st0" d="M264.7,24.1L264.7,24.1c-0.2-0.1-0.5-0.2-0.9-0.2c-1.1,0-1.4,1-1.4,1.9v3h-2.2v-6.8h2.2l0,1h0
				c0.4-0.7,1-1.1,1.7-1.1c0.5,0,0.7,0.1,0.7,0.1L264.7,24.1z"/>
			<path class="st0" d="M270.1,28.9v-3.5c0-0.9-0.1-1.6-1-1.6c-1,0-1.2,0.8-1.2,1.8v3.4h-2.2v-6.8h2.2l0,1h0c0.4-0.6,1-1.1,2-1.1
				c2,0,2.5,1.3,2.5,2.9v4H270.1z"/>
			<path class="st0" d="M277.7,28.9l0-0.7c-0.3,0.3-0.8,0.9-1.9,0.9c-1.2,0-2.5-0.6-2.5-2.2c0-1.5,1.4-2,2.6-2.1l1.7-0.1v-0.2
				c0-0.7-0.5-1.1-1.4-1.1c-0.9,0-1.7,0.4-2.1,0.6l-0.6-1.4c0.6-0.3,1.6-0.7,2.9-0.7c2.1,0,3.3,0.9,3.3,3.1v3.8H277.7z M276.5,26
				c-0.7,0-1.1,0.3-1.1,0.8c0,0.5,0.4,0.8,1,0.8c0.6,0,1-0.4,1.1-0.6v-1.1L276.5,26z"/>
			<path class="st0" d="M283.7,23.8v2.4c0,0.6,0,1,0.7,1c0.3,0,0.7-0.1,0.7-0.1l0.1,1.7c-0.2,0-0.8,0.2-1.6,0.2
				c-1.8,0-2.1-1.1-2.1-2.6v-2.6h-1v-1.7h1v-1.8h2.2v1.8h1.5v1.7H283.7z"/>
			<path class="st0" d="M287.2,21.3c-0.7,0-1.3-0.5-1.3-1.1c0-0.7,0.5-1.1,1.3-1.1c0.7,0,1.3,0.5,1.3,1.1
				C288.5,20.9,288,21.3,287.2,21.3z M286.1,28.9v-6.8h2.2v6.8H286.1z"/>
			<path class="st0" d="M293.2,29c-2.2,0-3.8-1.3-3.8-3.5c0-2.2,1.6-3.5,3.8-3.5c2.2,0,3.8,1.4,3.8,3.5C297,27.7,295.3,29,293.2,29z
				 M293.2,23.7c-1,0-1.5,0.8-1.5,1.8c0,1,0.6,1.8,1.5,1.8c1,0,1.5-0.8,1.5-1.8C294.7,24.5,294.2,23.7,293.2,23.7z"/>
			<path class="st0" d="M302.5,28.9v-3.5c0-0.9-0.1-1.6-1-1.6c-1,0-1.2,0.8-1.2,1.8v3.4H298v-6.8h2.2l0,1h0c0.4-0.6,1-1.1,2-1.1
				c2,0,2.5,1.3,2.5,2.9v4H302.5z"/>
			<path class="st0" d="M310.1,28.9l0-0.7c-0.3,0.3-0.8,0.9-1.9,0.9c-1.2,0-2.5-0.6-2.5-2.2c0-1.5,1.4-2,2.6-2.1l1.7-0.1v-0.2
				c0-0.7-0.5-1.1-1.4-1.1c-0.9,0-1.7,0.4-2.1,0.6l-0.6-1.4c0.6-0.3,1.6-0.7,2.9-0.7c2.1,0,3.3,0.9,3.3,3.1v3.8H310.1z M308.9,26
				c-0.7,0-1.1,0.3-1.1,0.8c0,0.5,0.4,0.8,1,0.8c0.6,0,1-0.4,1.1-0.6v-1.1L308.9,26z"/>
			<path class="st0" d="M313.6,28.9v-9.5h2.2v9.5H313.6z"/>
			<path class="st0" d="M201.8,42.5l-0.7-1.9h-3.4l-0.7,1.9h-2.3l3.6-9.5h2.3l3.6,9.5H201.8z M199.4,35.4l-1.2,3.4h2.4L199.4,35.4z"
				/>
			<path class="st0" d="M207.9,42.6c-1.9,0-3.6-1.3-3.6-3.5c0-2.3,1.8-3.5,3.6-3.5c1.7,0,2.5,0.7,2.5,0.7l-0.5,1.7
				c-0.2-0.2-0.8-0.6-1.8-0.6c-0.9,0-1.7,0.6-1.7,1.7c0,1.1,0.7,1.8,1.7,1.8c1,0,1.7-0.7,1.7-0.7l0.5,1.7
				C210.5,41.9,209.7,42.6,207.9,42.6z"/>
			<path class="st0" d="M214.6,42.6c-1.9,0-3.6-1.3-3.6-3.5c0-2.3,1.8-3.5,3.6-3.5c1.7,0,2.5,0.7,2.5,0.7l-0.5,1.7
				c-0.2-0.2-0.8-0.6-1.8-0.6c-0.9,0-1.7,0.6-1.7,1.7c0,1.1,0.7,1.8,1.7,1.8c1,0,1.7-0.7,1.7-0.7l0.5,1.7
				C217.1,41.9,216.4,42.6,214.6,42.6z"/>
			<path class="st0" d="M224.7,39.6h-4.8c0.1,1,0.8,1.4,1.7,1.4c0.9,0,1.7-0.4,2-0.6l0.9,1.1c-0.2,0.2-1.1,1.1-3.2,1.1
				c-2.1,0-3.6-1.3-3.6-3.5s1.7-3.5,3.7-3.5c2,0,3.4,1.3,3.4,3.3C224.7,39.2,224.7,39.6,224.7,39.6z M221.3,37
				c-0.9,0-1.4,0.7-1.4,1.4h2.8C222.6,37.7,222.2,37,221.3,37z"/>
			<path class="st0" d="M228,42.6c-1,0-2.1-0.3-2.9-1l0.8-1.3c0.6,0.5,1.5,0.8,2,0.8c0.6,0,0.9-0.1,0.9-0.6c0-0.4-1-0.7-1.2-0.7
				c-1.1-0.3-2.1-0.7-2.1-2.1c0-1.3,1.2-2.1,2.6-2.1c1.4,0,2.2,0.5,2.6,0.8l-0.7,1.3c-0.4-0.3-1.2-0.7-1.7-0.7
				c-0.5,0-0.8,0.1-0.8,0.5c0,0.4,0.5,0.5,1,0.7c1.2,0.3,2.4,0.7,2.4,2.2C230.9,42,229.4,42.6,228,42.6z"/>
			<path class="st0" d="M234.1,42.6c-1,0-2.1-0.3-2.9-1l0.8-1.3c0.6,0.5,1.5,0.8,2,0.8c0.6,0,0.9-0.1,0.9-0.6c0-0.4-1-0.7-1.2-0.7
				c-1.1-0.3-2.1-0.7-2.1-2.1c0-1.3,1.2-2.1,2.6-2.1c1.4,0,2.2,0.5,2.6,0.8l-0.7,1.3c-0.4-0.3-1.2-0.7-1.7-0.7
				c-0.5,0-0.8,0.1-0.8,0.5c0,0.4,0.5,0.5,1,0.7c1.2,0.3,2.4,0.7,2.4,2.2C237,42,235.5,42.6,234.1,42.6z"/>
			<path class="st0" d="M239.2,34.9c-0.7,0-1.3-0.5-1.3-1.1c0-0.7,0.5-1.1,1.3-1.1c0.7,0,1.3,0.5,1.3,1.1
				C240.4,34.4,239.9,34.9,239.2,34.9z M238,42.5v-6.8h2.2v6.8H238z"/>
			<path class="st0" d="M246.1,42.6c-0.9,0-1.7-0.3-2.2-1h0l0,0.9h-2.1V33h2.2v2.3c0,0.6,0,1.3,0,1.3h0c0.3-0.4,1-1,2.1-1
				c2,0,3.2,1.5,3.2,3.5C249.3,41.1,248.1,42.6,246.1,42.6z M245.5,37.3c-1,0-1.6,0.7-1.6,1.8c0,1,0.6,1.8,1.6,1.8
				c1,0,1.6-0.7,1.6-1.8C247.1,38,246.5,37.3,245.5,37.3z"/>
			<path class="st0" d="M250.5,42.5V33h2.2v9.5H250.5z"/>
			<path class="st0" d="M260.8,39.6H256c0.1,1,0.8,1.4,1.7,1.4c0.9,0,1.7-0.4,2-0.6l0.9,1.1c-0.2,0.2-1.1,1.1-3.2,1.1
				c-2.1,0-3.6-1.3-3.6-3.5s1.7-3.5,3.7-3.5c2,0,3.4,1.3,3.4,3.3C260.9,39.2,260.8,39.6,260.8,39.6z M257.4,37
				c-0.9,0-1.4,0.7-1.4,1.4h2.8C258.8,37.7,258.3,37,257.4,37z"/>
			<path class="st0" d="M268,42.5h-3.2V33h3.2c3,0,5.2,1.6,5.2,4.8C273.2,40.9,271,42.5,268,42.5z M268.1,34.8h-1.1v5.8h1.1
				c1.8,0,2.8-1.1,2.8-2.9C270.9,35.9,269.9,34.8,268.1,34.8z"/>
			<path class="st0" d="M278.5,42.5l0-0.7c-0.3,0.3-0.8,0.9-1.9,0.9c-1.2,0-2.5-0.6-2.5-2.2c0-1.5,1.4-2,2.6-2.1l1.7-0.1v-0.2
				c0-0.7-0.5-1.1-1.4-1.1c-0.9,0-1.7,0.4-2.1,0.6l-0.6-1.4c0.6-0.3,1.6-0.7,2.9-0.7c2.1,0,3.3,0.9,3.3,3.1v3.8H278.5z M277.4,39.5
				c-0.7,0-1.1,0.3-1.1,0.8c0,0.5,0.4,0.8,1,0.8c0.6,0,1-0.4,1.1-0.6v-1.1L277.4,39.5z"/>
			<path class="st0" d="M286.5,42.5v-3.5c0-0.9-0.1-1.6-1-1.6c-1,0-1.2,0.8-1.2,1.8v3.4H282v-6.8h2.2l0,1h0c0.4-0.6,1-1.1,2-1.1
				c2,0,2.5,1.3,2.5,2.9v4H286.5z"/>
			<path class="st0" d="M293.3,42.6c-1.9,0-3.6-1.3-3.6-3.5c0-2.3,1.8-3.5,3.6-3.5c1.7,0,2.5,0.7,2.5,0.7l-0.5,1.7
				c-0.2-0.2-0.8-0.6-1.8-0.6c-0.9,0-1.7,0.6-1.7,1.7c0,1.1,0.7,1.8,1.7,1.8c1,0,1.7-0.7,1.7-0.7l0.5,1.7
				C295.8,41.9,295.1,42.6,293.3,42.6z"/>
			<path class="st0" d="M303.4,39.6h-4.8c0.1,1,0.8,1.4,1.7,1.4c0.9,0,1.7-0.4,2-0.6l0.9,1.1c-0.2,0.2-1.1,1.1-3.2,1.1
				c-2.1,0-3.6-1.3-3.6-3.5s1.7-3.5,3.7-3.5c2,0,3.4,1.3,3.4,3.3C303.4,39.2,303.4,39.6,303.4,39.6z M300,37c-0.9,0-1.4,0.7-1.4,1.4
				h2.8C301.3,37.7,300.9,37,300,37z"/>
			<path class="st0" d="M309.5,34.7v2.3h3.5v1.8h-3.5v3.6h-2.2V33h5.9v1.8H309.5z"/>
			<path class="st0" d="M320.8,39.6h-4.8c0.1,1,0.8,1.4,1.7,1.4c0.9,0,1.7-0.4,2-0.6l0.9,1.1c-0.2,0.2-1.1,1.1-3.2,1.1
				c-2.1,0-3.6-1.3-3.6-3.5s1.7-3.5,3.7-3.5c2,0,3.4,1.3,3.4,3.3C320.8,39.2,320.8,39.6,320.8,39.6z M317.4,37
				c-0.9,0-1.4,0.7-1.4,1.4h2.8C318.7,37.7,318.3,37,317.4,37z"/>
			<path class="st0" d="M324.1,42.6c-1,0-2.1-0.3-2.9-1l0.8-1.3c0.6,0.5,1.5,0.8,2,0.8c0.6,0,0.9-0.1,0.9-0.6c0-0.4-1-0.7-1.2-0.7
				c-1.1-0.3-2.1-0.7-2.1-2.1c0-1.3,1.2-2.1,2.6-2.1c1.4,0,2.2,0.5,2.6,0.8l-0.7,1.3c-0.4-0.3-1.2-0.7-1.7-0.7
				c-0.5,0-0.8,0.1-0.8,0.5c0,0.4,0.5,0.5,1,0.7c1.2,0.3,2.4,0.7,2.4,2.2C327,42,325.5,42.6,324.1,42.6z"/>
			<path class="st0" d="M330.6,37.4v2.4c0,0.6,0,1,0.7,1c0.3,0,0.7-0.1,0.7-0.1l0.1,1.7c-0.2,0-0.8,0.2-1.6,0.2
				c-1.8,0-2.1-1.1-2.1-2.6v-2.6h-1v-1.7h1v-1.8h2.2v1.8h1.5v1.7H330.6z"/>
			<path class="st0" d="M334.1,34.9c-0.7,0-1.3-0.5-1.3-1.1c0-0.7,0.5-1.1,1.3-1.1c0.7,0,1.3,0.5,1.3,1.1
				C335.4,34.4,334.9,34.9,334.1,34.9z M333,42.5v-6.8h2.2v6.8H333z"/>
			<path class="st0" d="M340.8,42.5h-2.1l-2.8-6.8h2.3l1.5,4.3l1.5-4.3h2.3L340.8,42.5z"/>
			<path class="st0" d="M348.3,42.5l0-0.7c-0.3,0.3-0.8,0.9-1.9,0.9c-1.2,0-2.5-0.6-2.5-2.2c0-1.5,1.4-2,2.6-2.1l1.7-0.1v-0.2
				c0-0.7-0.5-1.1-1.4-1.1c-0.9,0-1.7,0.4-2.1,0.6l-0.6-1.4c0.6-0.3,1.6-0.7,2.9-0.7c2.1,0,3.3,0.9,3.3,3.1v3.8H348.3z M347.2,39.5
				c-0.7,0-1.1,0.3-1.1,0.8c0,0.5,0.4,0.8,1,0.8c0.6,0,1-0.4,1.1-0.6v-1.1L347.2,39.5z"/>
			<path class="st0" d="M351.9,42.5V33h2.2v9.5H351.9z"/>
		</g>
		<g>
			<path class="st0" d="M197.6,8.8c1,0,2.1-0.1,3.3-0.3l0.2,1.9c-1.7,0.3-3.2,0.3-4.8,0.3h-1V1.6h5.1v1.9h-2.7V8.8z M206.9,0v13.6
				h-2.3V7h-0.9v6h-2.2V0.2h2.2v4.9h0.9V0H206.9z"/>
			<path class="st0" d="M216.5,3.1h-8.2V1.3h2.9V0h2.4v1.3h2.9V3.1z M212.4,8.8c-2,0-3.5-1.1-3.5-2.7c0-1.6,1.4-2.7,3.5-2.7
				s3.5,1.1,3.5,2.7C215.8,7.7,214.4,8.8,212.4,8.8z M212.6,11.6h7.1v1.8h-9.5v-4h2.4V11.6z M212.4,7.1c0.7,0,1.2-0.3,1.2-0.9
				c0-0.6-0.5-0.9-1.2-0.9s-1.2,0.3-1.2,0.9C211.2,6.8,211.7,7.1,212.4,7.1z M221.1,4v1.9h-1.7v4.3h-2.4V0h2.4v4H221.1z"/>
			<path class="st0" d="M229.2,7.8h-6.9V1h6.9V7.8z M233.6,11.6v1.8h-9.8V8.8h2.4v2.8H233.6z M226.9,2.9h-2.2v3.1h2.2V2.9z
				 M233.3,9.7h-2.4V0h2.4V9.7z"/>
			<path class="st0" d="M242.5,7v1.6h3.7v5h-2.4v-3.2h-7.5V8.6h3.8V7h-5.1V5.2h8.5c0.2-1.1,0.3-2,0.3-2.8h-7.3V0.6h9.6v1.1
				c0,1,0,2.1-0.3,3.5h1.6V7H242.5z"/>
			<path class="st0" d="M255.7,7.8c-1.5-0.4-2.5-1.2-3.1-2.2c-0.6,1.2-1.7,2.3-3.3,2.8l-1.2-1.8c2.2-0.7,3-2.2,3.2-3.7h-2.6V0.9h7.5
				v1.8h-2.5c0.1,1.3,0.9,2.6,3,3.2L255.7,7.8z M259.6,10.9c0,1.7-1.9,2.7-4.8,2.7c-2.9,0-4.8-1-4.8-2.7c0-1.7,1.9-2.7,4.8-2.7
				C257.8,8.2,259.6,9.2,259.6,10.9z M257.2,10.9c0-0.7-0.8-0.9-2.4-0.9c-1.6,0-2.4,0.3-2.4,0.9c0,0.7,0.8,0.9,2.4,0.9
				C256.5,11.9,257.2,11.6,257.2,10.9z M261.2,3v1.9h-1.7V8h-2.4V0h2.4V3H261.2z"/>
			<path class="st0" d="M268,5.9c0,3.2-1.2,5-3,5c-1.8,0-3-1.9-3-5c0-3.2,1.2-5.1,3-5.1C266.8,0.9,268,2.8,268,5.9z M265.8,5.9
				c0-2-0.3-2.9-0.9-2.9c-0.6,0-0.9,0.8-0.9,2.9c0,2,0.3,2.8,0.9,2.8C265.5,8.8,265.8,7.9,265.8,5.9z M273.8,0v13.6h-2.3V7h-0.8V13
				h-2.2V0.2h2.2v4.9h0.8V0H273.8z"/>
			<path class="st0" d="M279.2,7.9c-2.2,0-3.9-1.5-3.9-3.5c0-2,1.7-3.5,3.9-3.5c2.2,0,3.9,1.5,3.9,3.5
				C283.1,6.4,281.4,7.9,279.2,7.9z M287.1,11.6v1.8h-9.8V8.8h2.4v2.8H287.1z M279.2,5.8c0.9,0,1.5-0.5,1.5-1.5c0-1-0.7-1.5-1.5-1.5
				c-0.9,0-1.5,0.5-1.5,1.5C277.7,5.3,278.4,5.8,279.2,5.8z M286.8,9.7h-2.4V0h2.4V9.7z"/>
			<path class="st0" d="M296.1,7v1.6h3.7v5h-2.4v-3.2h-7.5V8.6h3.8V7h-5.1V5.2h8.5c0.2-1.1,0.3-2,0.3-2.8h-7.3V0.6h9.6v1.1
				c0,1,0,2.1-0.3,3.5h1.6V7H296.1z"/>
			<path class="st0" d="M308.9,0.2h2.2V13h-2.2V9.4l-1.2,1.4c-1.1-0.7-1.9-1.7-2.3-2.9c-0.4,1.4-1.2,2.6-2.3,3.3l-1.4-1.7
				c2.1-1.3,2.6-3.7,2.6-6V3.1h-2V1.3h6.1v1.9h-1.8v0.4c0,2.1,0.4,4.3,2.3,5.5V6.4h-1.5V4.5h1.5V0.2z M313.9,0v13.6h-2.3V0H313.9z"
				/>
			<path class="st0" d="M327.9,9.3h-5.1v4.3h-2.4V9.3h-5V7.5h12.5V9.3z M326.5,6.2h-9.8V0.6h9.8V6.2z M324.1,2.5h-5.1v1.9h5.1V2.5z"
				/>
			<path class="st0" d="M341.3,6.3v1.8h-12.5V6.3h2.7V4.8c-1-0.5-1.5-1.1-1.5-2c0-1.6,2-2.7,5.1-2.7c3.1,0,5.1,1,5.1,2.7
				c0,0.9-0.6,1.6-1.6,2v1.4H341.3z M339.8,11.1c0,1.6-1.8,2.5-4.8,2.5c-3,0-4.9-0.9-4.9-2.5c0-1.6,1.8-2.5,4.9-2.5
				C338,8.6,339.8,9.6,339.8,11.1z M332.4,2.8c0,0.6,0.9,0.9,2.6,0.9c1.7,0,2.6-0.3,2.6-0.9S336.7,2,335,2
				C333.3,2,332.4,2.2,332.4,2.8z M337.4,11.1c0-0.6-0.8-0.8-2.4-0.8c-1.7,0-2.4,0.2-2.4,0.8c0,0.6,0.8,0.8,2.4,0.8
				C336.6,11.9,337.4,11.7,337.4,11.1z M333.8,6.3h2.4V5.4c-0.4,0-0.8,0.1-1.2,0.1c-0.4,0-0.8,0-1.2-0.1V6.3z"/>
			<path class="st0" d="M349,0.2h2.2V13H349V9.4l-1.2,1.4c-1.1-0.7-1.9-1.7-2.3-2.9c-0.4,1.4-1.2,2.6-2.3,3.3l-1.4-1.7
				c2.1-1.3,2.6-3.7,2.6-6V3.1h-2V1.3h6.1v1.9h-1.8v0.4c0,2.1,0.4,4.3,2.3,5.5V6.4h-1.5V4.5h1.5V0.2z M354.1,0v13.6h-2.3V0H354.1z"
				/>
		</g>
	</g>
</g>
</svg>
