<svg width="293" height="51" viewBox="0 0 293 51" fill="none" xmlns="http://www.w3.org/2000/svg">
<path d="M140.181 31.3371C134.101 31.3371 129.612 30.3079 126.753 28.2495C123.894 30.3079 119.406 31.3371 113.325 31.3371L112.529 26.4899C114.773 26.4899 116.582 26.3571 118.03 26.0915C119.478 25.8259 120.6 25.2947 121.432 24.4979H112.927V19.8167H122.518V17.4927H130.988V19.8167H140.579V24.4979H132.074C132.906 25.2947 134.064 25.8259 135.512 26.0915C136.96 26.3571 138.77 26.4899 141.014 26.4899L140.181 31.3371Z" fill="white"/>
<path d="M143.656 18.9541L142.027 13.7417C145.249 13.5093 147.782 12.6129 149.737 10.9861C151.655 9.39249 152.705 6.70328 152.886 2.95166H160.523C160.668 6.70328 161.717 9.39249 163.672 10.9861C165.59 12.5797 168.16 13.5093 171.381 13.7417L169.752 18.9541C163.961 18.5225 159.618 16.7297 156.722 13.5757C153.791 16.7629 149.447 18.5557 143.656 18.9541Z" fill="white"/>
<path d="M211.086 21.4102V25.7262H231.102V31.337H203.449V21.4102H211.086Z" fill="white"/>
<path d="M253.397 8.92772V15.933H260.6L260.998 3.31689H233.345V8.92772H253.397ZM250.972 24.3326V31.3046H243.335V24.3326H232.549V18.755H261.831V24.3658H250.972V24.3326Z" fill="white"/>
<path d="M271.677 26.5902V27.6526H292.163V31.3378H264.076V22.8718H284.092V21.8426H264.076V18.1574H291.765V26.5902H271.677ZM264.04 3.31689H291.729V7.00211H271.677V8.26372H291.729V11.8825H264.04V3.31689ZM263.244 13.0445H292.561V17.1282H263.244V13.0445Z" fill="white"/>
<path d="M231.5 4.47817C231.5 6.60298 229.618 8.32939 227.301 8.32939C224.985 8.32939 223.103 6.60298 223.103 4.47817C223.103 2.35336 224.985 0.626953 227.301 0.626953C229.618 0.626953 231.5 2.35336 231.5 4.47817Z" fill="white"/>
<path d="M160.885 20.9469C160.885 23.0717 159.003 24.7981 156.687 24.7981C154.37 24.7981 152.488 23.0717 152.488 20.9469C152.488 18.8221 154.37 17.0957 156.687 17.0957C159.003 17.0957 160.885 18.8221 160.885 20.9469Z" fill="white"/>
<path d="M227.302 10.1547C225.854 10.1547 224.551 9.68987 223.502 8.92627V21.4095H231.066V8.95947C230.017 9.68987 228.714 10.1547 227.302 10.1547Z" fill="white"/>
<path d="M189.841 19.3526H180.213V24.565H190.674V30.1758H172.54V13.7417H182.24V8.89452H172.54V3.28369H189.841V19.3526Z" fill="white"/>
<path d="M193.387 12.1802V31.3035H201.024V19.6834C200.807 14.4046 198.889 12.5122 193.387 12.1802Z" fill="white"/>
<path d="M201.024 2.91748H193.387V10.4207C198.889 10.0887 200.807 8.19631 201.024 2.91748Z" fill="white"/>
<path d="M161.391 24.5972C160.269 25.8256 158.568 26.6224 156.686 26.6224C154.804 26.6224 153.103 25.8256 151.981 24.5972H142.027V30.208H171.345V24.5972H161.391Z" fill="white"/>
<path d="M216.045 10.055H220.931V4.44414H215.611V2.21973H207.937V4.44414H202.979C203.558 8.72696 205.693 10.2874 211.086 10.4866V12.1466C206.309 12.3126 204.065 13.541 203.232 16.7946C203.124 17.2262 203.051 18.1226 203.16 19.019C203.196 19.351 203.305 19.7162 203.305 19.7162C204.861 19.7162 206.417 19.4174 207.901 18.853C209.385 18.2886 210.688 17.4586 211.846 16.4294C212.968 17.4586 214.235 18.2886 215.719 18.853C217.203 19.4174 218.723 19.7162 220.28 19.7162L221.51 14.1054C218.615 14.1054 216.805 12.7442 216.045 10.055Z" fill="white"/>
<path d="M140.58 2.95166H132.979V17.8917H140.58V2.95166Z" fill="white"/>
<path d="M122.592 9.62493H119.732V11.7829H122.592V9.62493ZM130.301 3.31689V16.1654H112.095V3.31689H119.769V5.3089H122.664V3.31689H130.301Z" fill="white"/>
<path d="M10.5688 33.1653H4.19857V31.7045H10.5688C20.1965 31.3393 23.1283 28.7497 23.5626 20.0512V2.88672H0V48.1386H23.5626V44.8186C23.0921 36.0869 20.1965 33.4973 10.5688 33.1653Z" fill="white"/>
<path d="M55.0155 23.5703H48.6453V22.0763H55.0155C64.1003 22.0763 68.0093 18.8891 68.0093 10.5558V8.3646C61.6391 7.269 55.4498 6.771 49.4416 6.771C31.1633 6.771 25.2636 10.6554 25.2274 21.2131C25.2274 28.3843 28.9193 31.3723 38.1127 31.7043H44.4829V33.1651H38.1127C28.3763 33.5303 25.517 36.1531 25.1188 45.084V47.8396C32.6473 48.9352 39.1623 49.4332 44.7725 49.4332C63.0869 49.4332 67.9732 45.914 67.9732 35.2899V35.0575C67.9732 26.6911 63.9556 23.5703 55.0155 23.5703Z" fill="white"/>
<path d="M91.6817 21.6774C91.6817 19.951 93.2381 18.5234 95.6631 18.5234C97.5091 18.5234 99.4636 18.623 102.106 18.8222V2.68693C98.0882 2.15572 95.084 1.72412 90.7769 1.72412C75.6114 1.72412 69.7117 5.11054 69.7117 10.1238C69.7117 18.8886 72.9692 21.6774 82.7055 22.0426H87.5194V23.5034H82.7055C72.9692 23.8686 70.1098 26.4914 69.7117 35.4223V48.0716H91.9351V36.4847H102.106V23.5698H91.6817V21.6774Z" fill="white"/>
<path d="M112.674 37.7451V48.1368H121.614V45.5804H116.003V37.7451H112.674Z" fill="white"/>
<path d="M133.197 42.6917C133.052 42.3265 132.582 42.0277 131.821 42.0277C131.025 42.0277 130.591 42.3265 130.446 42.6917C130.374 42.8577 130.337 43.2561 130.41 43.5217C130.518 43.8869 130.917 44.1857 131.821 44.1857C132.726 44.1857 133.088 43.8869 133.197 43.5549C133.269 43.3225 133.305 42.8909 133.197 42.6917ZM133.016 47.8045C131.93 47.8377 130.555 47.8045 130.156 47.7381C129.903 47.8045 129.686 47.8709 129.686 48.1697C129.686 48.6345 130.374 48.8005 131.966 48.8005C133.523 48.8005 134.138 48.6345 134.138 48.2361C134.138 47.9041 133.921 47.8045 133.016 47.8045ZM135.803 42.2601C135.948 42.4593 136.02 42.8909 136.02 43.1565C136.02 44.8497 134.536 45.6797 131.93 45.6797C131.315 45.6797 130.518 45.5801 130.156 45.4473C129.939 45.4805 129.758 45.5801 129.758 45.7461C129.758 46.1113 130.482 46.2441 132.183 46.2109C135.948 46.1445 137.033 46.7421 137.033 48.1697C137.033 49.7965 135.477 50.6265 132.075 50.6265C128.383 50.6265 127.261 49.8297 127.261 48.5349C127.261 47.9041 127.731 47.4061 128.6 47.2401C127.949 47.0409 127.695 46.6757 127.695 46.0781C127.695 45.5801 128.13 45.1153 128.781 44.9493C128.021 44.5841 127.659 44.0197 127.587 43.2561C127.587 43.1233 127.587 42.7249 127.587 42.5257C127.659 41.1977 129.143 40.1021 131.749 40.1021C133.124 40.1021 134.174 40.3677 134.789 40.7993C135.332 40.3677 136.346 40.1685 137.178 40.2349V42.2269C137.214 42.2933 135.948 42.2601 135.803 42.2601Z" fill="white"/>
<path d="M144.563 48.1358C144.491 48.0362 144.454 46.6418 144.454 43.5542C144.454 42.8238 143.839 42.4254 142.97 42.4254C141.957 42.4254 141.305 43.0562 141.305 43.7202V48.1358H138.265V37.6777H141.233V41.1306C141.993 40.3669 143.26 40.1345 144.237 40.1345C146.192 40.1345 147.531 41.0642 147.531 42.7574C147.531 46.4426 147.567 48.1026 147.64 48.1358H144.563Z" fill="white"/>
<path d="M153.139 42.3585V45.3466C153.139 45.911 153.501 46.1434 154.116 46.1434C154.442 46.1434 154.949 46.1102 155.239 46.0438V48.0358C154.84 48.1686 154.044 48.3014 153.031 48.3014C151.293 48.3014 150.063 47.6374 150.063 46.0106V42.3917H148.615V40.3001H150.063V38.4741H153.103V40.2669H155.456V42.3585H153.139Z" fill="white"/>
<path d="M166.895 48.2696C163.095 48.2696 161.466 47.1408 161.177 44.5843H164.434C164.615 45.5803 165.592 45.9787 166.859 45.9787C168.379 45.9787 168.85 45.7131 168.85 45.1155C168.85 44.3851 168.416 44.1527 165.592 43.7543C162.444 43.3227 161.394 42.2603 161.394 40.5007C161.394 38.8739 162.986 37.6123 166.57 37.6123C170.044 37.6123 171.745 38.8075 171.963 41.1979H168.741C168.597 40.2683 168.054 39.9031 166.606 39.9031C165.267 39.9031 164.796 40.2683 164.796 40.7663C164.796 41.2643 165.194 41.6959 167.8 41.9947C171.275 42.3931 172.361 43.3227 172.361 45.1487C172.397 47.2736 170.443 48.2696 166.895 48.2696Z" fill="white"/>
<path d="M180.395 43.1233C180.178 42.5921 179.49 42.2933 178.621 42.2933C177.716 42.2933 177.065 42.5921 176.848 43.1233C176.703 43.4553 176.667 43.7873 176.667 44.1857C176.667 44.6173 176.703 45.0489 176.812 45.2813C177.029 45.7793 177.644 46.1113 178.658 46.1113C179.671 46.1113 180.214 45.7793 180.431 45.2481C180.54 44.9825 180.576 44.5509 180.576 44.1525C180.54 43.7873 180.54 43.4221 180.395 43.1233ZM183.544 45.1817C183.327 47.2069 181.372 48.2693 178.585 48.2693C175.726 48.2693 173.735 47.2401 173.59 45.1485C173.554 44.7833 173.554 44.5841 173.554 44.1857C173.554 43.8205 173.59 43.4553 173.627 43.2561C173.771 41.1977 175.907 40.1353 178.621 40.1353C181.517 40.1353 183.399 41.2309 183.58 43.2229C183.616 43.4221 183.652 43.7873 183.652 44.1857C183.616 44.5841 183.58 44.9161 183.544 45.1817Z" fill="white"/>
<path d="M191.47 48.1375L191.325 47.2411C190.71 48.0047 189.696 48.2703 188.285 48.2703C186.33 48.2703 185.1 47.3739 185.1 45.7471V40.269H188.176C188.176 40.269 188.14 43.7551 188.14 44.7511C188.176 45.5479 188.611 45.9463 189.588 45.9463C190.674 45.9463 191.217 45.3155 191.217 44.6847V40.269H194.257C194.257 40.269 194.257 44.2863 194.257 46.5771C194.257 47.1747 194.366 48.0711 194.402 48.1375H191.47Z" fill="white"/>
<path d="M202.763 48.1365C202.69 48.0369 202.654 45.9453 202.654 43.6213C202.654 42.8909 202.184 42.4261 201.134 42.4261C200.193 42.4261 199.469 42.9241 199.469 43.6877V48.1365H196.429V40.2681H199.433V41.1645C200.012 40.5337 200.808 40.1353 202.473 40.1353C204.609 40.1353 205.731 41.2973 205.731 42.8245C205.731 46.0781 205.767 48.0369 205.876 48.1365H202.763Z" fill="white"/>
<path d="M213.947 43.2554C213.838 42.6578 213.223 42.2926 212.101 42.2926C211.015 42.2926 210.472 42.7242 210.364 43.2886C210.328 43.5542 210.291 43.9858 210.291 44.1518C210.291 44.351 210.291 44.7494 210.328 45.0814C210.436 45.7454 210.943 46.0774 212.173 46.0774C213.295 46.0774 213.875 45.6458 213.947 45.0814C213.983 44.9154 213.983 44.5502 213.983 44.1518C213.983 43.8198 213.983 43.521 213.947 43.2554ZM214.164 48.1358L214.019 47.4718C213.404 47.9366 212.173 48.2354 211.232 48.2354C208.88 48.2354 207.541 47.3058 207.323 45.7122C207.251 45.347 207.251 44.683 207.251 44.2846C207.251 43.8862 207.287 43.1558 207.323 42.857C207.504 41.2302 208.988 40.1677 211.341 40.1677C212.716 40.1677 213.44 40.533 213.911 40.9314V37.6777H216.987V46.9738C216.987 47.4386 217.132 48.1358 217.132 48.1358H214.164Z" fill="white"/>
<path d="M224.153 37.7451V48.1368H227.519V44.1196H233.021V41.9947H227.519V40.1687H233.383V37.7451H224.153Z" fill="white"/>
<path d="M240.656 44.1193C240.656 44.0529 240.656 43.4885 240.656 43.3225C240.583 42.7581 240.185 42.4261 239.425 42.4261C238.52 42.4261 237.869 42.9241 237.869 43.7541V48.1365H234.865V40.2681H237.869V41.1313C238.484 40.5005 239.498 40.1353 240.62 40.1353C242.683 40.1353 243.66 41.0981 243.696 42.5589C243.696 42.9241 243.696 44.0861 243.696 44.1525H240.656V44.1193Z" fill="white"/>
<path d="M256.511 42.9905C256.33 42.5589 255.787 42.2601 254.846 42.2601C253.869 42.2601 253.435 42.6253 253.218 42.9573C253.145 43.0901 253.073 43.3225 253.037 43.4885H256.62C256.584 43.2893 256.584 43.1233 256.511 42.9905ZM253 44.6173C253 44.8829 253.073 45.1817 253.109 45.3477C253.29 45.8789 253.905 46.1777 254.883 46.1777C256.041 46.1777 256.403 45.8125 256.511 45.4805C256.548 45.4141 256.584 45.3145 256.584 45.2149H259.515C259.515 45.3809 259.515 45.5801 259.443 45.7129C259.045 47.3397 257.38 48.2693 254.774 48.2693C251.987 48.2693 250.177 47.1405 249.996 45.2481C249.96 44.9493 249.924 44.6173 249.924 44.1857C249.924 43.7541 249.996 43.3557 249.996 43.1565C250.25 41.3969 251.987 40.1021 254.81 40.1021C257.742 40.1021 259.335 41.3637 259.515 43.2561C259.515 43.4885 259.552 44.4181 259.552 44.5841H253V44.6173Z" fill="white"/>
<path d="M267.44 48.1365C267.367 48.0369 267.331 45.9453 267.331 43.6213C267.331 42.8909 266.861 42.4261 265.811 42.4261C264.87 42.4261 264.146 42.9241 264.146 43.6877V48.1365H261.106V40.2681H264.11V41.1645C264.689 40.5337 265.485 40.1353 267.15 40.1353C269.286 40.1353 270.408 41.2973 270.408 42.8245C270.408 46.0781 270.444 48.0369 270.552 48.1365H267.44Z" fill="white"/>
<path d="M278.66 43.2554C278.551 42.6578 277.936 42.2926 276.814 42.2926C275.728 42.2926 275.185 42.7242 275.077 43.2886C275.04 43.5542 275.004 43.9858 275.004 44.1518C275.004 44.351 275.004 44.7494 275.04 45.0814C275.149 45.7454 275.656 46.0774 276.886 46.0774C278.008 46.0774 278.588 45.6458 278.66 45.0814C278.696 44.9154 278.696 44.5502 278.696 44.1518C278.66 43.8198 278.696 43.521 278.66 43.2554ZM278.841 48.1358L278.696 47.4718C278.081 47.9366 276.85 48.2354 275.909 48.2354C273.557 48.2354 272.217 47.3058 272 45.7122C271.928 45.347 271.928 44.683 271.928 44.2846C271.928 43.8862 271.964 43.1558 272 42.857C272.181 41.2302 273.665 40.1677 276.054 40.1677C277.429 40.1677 278.153 40.533 278.624 40.9314V37.6777H281.7V46.9738C281.7 47.4386 281.809 48.1358 281.809 48.1358H278.841Z" fill="white"/>
<path d="M287.856 48.3025C285.141 48.3025 283.44 47.7049 283.259 45.3809H286.263C286.263 45.5137 286.299 45.6797 286.336 45.7461C286.48 46.1113 286.915 46.2773 287.856 46.2773C288.905 46.2773 289.448 46.1445 289.448 45.7461C289.448 45.3809 289.05 45.1817 287.711 45.0157C287.458 44.9825 286.698 44.8165 286.408 44.7833C284.309 44.4845 283.332 43.8205 283.332 42.5257C283.332 40.9985 284.852 40.1353 287.53 40.1353C290.245 40.1353 291.91 40.9321 292.054 43.0901H289.159C289.123 42.9905 289.123 42.8245 289.086 42.7249C288.942 42.3597 288.544 42.2269 287.639 42.2269C286.77 42.2269 286.263 42.3597 286.263 42.6917C286.263 43.0237 286.661 43.1897 287.711 43.3557C288.037 43.3889 288.942 43.5549 289.34 43.6213C291.62 43.9201 292.416 44.5841 292.416 45.8125C292.453 47.4393 290.932 48.3025 287.856 48.3025Z" fill="white"/>
<path d="M123.241 48.1361C123.096 48.1361 123.06 47.6713 123.06 46.9741V40.7988H126.1V46.9077C126.1 47.7045 126.137 48.0697 126.281 48.1361H123.241Z" fill="white"/>
<path d="M126.282 38.5423C126.282 39.4055 125.522 40.1027 124.545 40.1027C123.604 40.1027 122.844 39.4055 122.844 38.5423C122.844 37.6791 123.604 36.9487 124.545 36.9487C125.522 36.9819 126.282 37.6791 126.282 38.5423Z" fill="white"/>
<path d="M245.326 48.1361C245.182 48.1361 245.145 47.6713 245.145 46.9741V40.7988H248.186V46.9077C248.186 47.7045 248.222 48.0697 248.367 48.1361H245.326Z" fill="white"/>
<path d="M248.367 38.5423C248.367 39.4055 247.607 40.1027 246.63 40.1027C245.689 40.1027 244.929 39.4055 244.929 38.5423C244.929 37.6791 245.689 36.9487 246.63 36.9487C247.607 36.9819 248.367 37.6791 248.367 38.5423Z" fill="white"/>
</svg>
