<svg width="321" height="66" viewBox="0 0 321 66" fill="none" xmlns="http://www.w3.org/2000/svg">
<path d="M109.656 25.728H107.649V17.7446H103.882V43.9276C103.882 44.9676 104.715 45.7934 105.765 45.7934C106.815 45.7934 107.649 44.9676 107.649 43.9276V28.695H109.656V43.9276C109.656 44.9676 110.49 45.7934 111.54 45.7934C112.59 45.7934 113.423 44.9676 113.423 43.9276V17.7446H109.656V25.728Z" fill="white"/>
<path d="M161.472 34.8744C161.472 36.0367 162.43 36.9849 163.572 36.9849C164.715 36.9849 165.672 36.0367 165.672 34.8744V21.7829C165.672 20.3759 164.53 19.2441 163.14 19.2441H146.094V22.1805H161.472V34.8438V34.8744Z" fill="white"/>
<path d="M23.9628 42.5842H10.2211V36.2832H5.99048V43.0125C5.99048 44.4195 7.1331 45.5512 8.55359 45.5512H23.9937C24.8274 45.5512 25.4759 44.8783 25.4759 44.083C25.4759 43.2878 24.7966 42.6148 23.9937 42.6148" fill="white"/>
<path d="M27.236 25.208H24.7038V17.7446H20.4732V35.7607C20.4732 36.923 21.4306 37.8407 22.5731 37.8407C23.7157 37.8407 24.673 36.8924 24.673 35.7607V28.175H27.2052C28.008 28.175 28.6873 27.5021 28.6873 26.7068C28.6873 25.9115 28.008 25.2386 27.2052 25.2386" fill="white"/>
<path d="M85.6306 22.9751H83.0984V17.7446H78.8678V30.6832C78.8678 31.8455 79.8251 32.7631 80.9676 32.7631C82.1102 32.7631 83.0676 31.8149 83.0676 30.6832V25.9115H85.5997C86.4334 25.9115 87.0819 25.2386 87.0819 24.4433C87.0819 23.648 86.4334 22.9751 85.5997 22.9751" fill="white"/>
<path d="M16.5519 27.6253C16.5519 26.7382 16.3049 26.0041 15.7181 25.3006C15.0388 24.5053 13.4947 24.4136 12.8771 25.0865C12.2904 25.6982 12.2287 26.3406 12.4449 27.3194C12.8772 29.2464 11.3948 31.3569 9.26411 31.3569C7.47306 31.3569 6.02173 29.7052 6.02173 27.6253C6.02173 25.6982 7.2878 23.9547 9.48029 23.9547H17.2312C18.065 23.9547 18.7135 23.2818 18.7135 22.4865C18.7135 21.6913 18.0341 21.0183 17.2312 21.0183H11.4258V17.3784H7.04083V21.0183H6.10352e-05V23.9547H3.24253C2.40877 24.9947 1.91471 26.2488 1.91471 27.6253C1.91471 31.1734 5.18796 34.0486 9.20238 34.0486C13.433 34.0486 16.4901 31.1734 16.4901 27.6253" fill="white"/>
<path d="M139.3 42.5824H125.836V35.7002H121.606V43.0412C121.606 44.4482 122.748 45.58 124.138 45.58H139.269C140.103 45.58 140.751 44.9071 140.751 44.1118C140.751 43.3165 140.072 42.6436 139.269 42.6436" fill="white"/>
<path d="M167.927 38.9127H156.346V29.0635H152.116V38.9127H142.944V41.8491H167.927C168.76 41.8491 169.409 41.1762 169.409 40.3809C169.409 39.5856 168.729 38.9127 167.927 38.9127Z" fill="white"/>
<path d="M223.325 29.6743H219.99C220.947 28.3591 221.164 26.2791 221.164 24.4133V20.8957C221.164 19.4887 220.021 18.3569 218.601 18.3569H200.875V21.2933H216.933V25.5144C216.933 26.7991 216.871 28.3591 216.161 29.6132H211.807V24.3215H207.576V29.6132H197.201V32.5496H204.704C202.852 33.559 201.369 36.0977 201.369 38.2389C201.369 40.38 202.296 42.1235 204.18 43.5917C206.063 45.0599 208.317 45.8246 210.973 45.8246C213.629 45.8246 215.883 45.0905 217.798 43.5917C219.681 42.0929 220.639 40.38 220.639 38.2389C220.639 36.5565 219.959 35.1801 218.601 34.0178C217.736 33.2837 216.315 33.1919 215.482 33.9566C214.71 34.6601 214.802 35.9142 215.543 36.5565C216.593 37.4436 216.779 39.6765 214.71 41.3588C213.629 42.2458 212.363 42.7046 210.973 42.7046C209.584 42.7046 208.348 42.2458 207.268 41.3588C206.187 40.4717 205.662 39.4012 205.662 38.1471C205.662 34.3236 209.923 32.5496 212.116 32.5496H223.325C224.159 32.5496 224.808 31.8766 224.808 31.0814C224.808 30.2861 224.159 29.6132 223.325 29.6132" fill="white"/>
<path d="M251.272 25.0245H248.74V17.7446H244.509V28.8785C243.336 29.3985 241.699 29.6432 240.186 29.6432H230.644V21.2928H239.506C240.34 21.2928 240.989 20.6504 240.989 19.8246C240.989 18.9987 240.309 18.3564 239.506 18.3564H226.413V30.0714C226.413 31.4784 227.556 32.6102 228.976 32.6102H239.877C241.514 32.6102 243.397 32.3349 244.54 31.7537V35.7607C244.54 36.923 245.497 37.8407 246.64 37.8407C247.782 37.8407 248.74 36.8924 248.74 35.7607V27.9609H251.272C252.106 27.9609 252.754 27.2879 252.754 26.4927C252.754 25.6974 252.075 25.0245 251.272 25.0245Z" fill="white"/>
<path d="M247.813 42.6134H234.473V35.4253H230.243V43.0416C230.243 44.418 231.385 45.5498 232.806 45.5498H247.813C248.647 45.5498 249.296 44.8769 249.296 44.0816C249.296 43.2863 248.616 42.6134 247.813 42.6134Z" fill="white"/>
<path d="M138.126 37.8713C139.3 37.8713 140.257 36.9536 140.257 35.7913V17.7446H136.027V35.7607C136.027 36.923 136.984 37.8407 138.126 37.8407" fill="white"/>
<path d="M67.7202 27.3489C68.801 29.0924 71.0244 30.377 72.8463 31.1111C74.6683 31.8758 76.1814 31.9676 76.7681 30.9888C77.2004 30.2547 76.7372 29.2453 76.0578 29.0618C75.0079 28.7559 73.0933 27.7159 72.1052 26.7371C70.8082 25.4524 70.098 23.036 69.9436 21.3231H74.2359C75.0697 21.3231 75.7182 20.6502 75.7182 19.8549C75.7182 19.0596 75.0388 18.3867 74.2359 18.3867H60.0619V21.3537H65.5586C65.4042 23.0666 64.694 25.483 63.397 26.7677C62.1001 28.0524 60.1855 28.9394 58.0856 29.5206L59.9693 31.9676C63.2117 31.1723 66.1453 29.4594 67.751 27.4101" fill="white"/>
<path d="M55.6466 27.9606H51.8792C52.8056 26.8901 53.1144 25.0854 53.1144 23.3725V20.8949C53.1144 19.4879 51.9719 18.3867 50.5514 18.3867H32.9188V21.3231H48.8529V24.8101C48.8529 26.0642 48.6677 27.2877 47.9266 27.9912H29.244V30.9276H40.9167V34.7205H32.9188V37.6569H48.575V43.7132C48.575 44.8756 49.5323 45.7932 50.6749 45.7932C51.8174 45.7932 52.7748 44.845 52.7748 43.7132V37.2287C52.7748 35.8522 51.6322 34.7205 50.2426 34.7205H45.1474V30.9276H55.6157C56.4495 30.9276 57.098 30.2547 57.098 29.4594C57.098 28.6641 56.4186 27.9912 55.6157 27.9912" fill="white"/>
<path d="M74.2355 32.6411C69.5726 32.6411 65.7744 35.7305 65.7744 39.5233C65.7744 43.3162 69.5726 46.4055 74.2355 46.4055C78.8984 46.4055 82.6967 43.3162 82.6967 39.5233C82.6967 35.7305 78.8984 32.6411 74.2355 32.6411ZM74.2355 43.4691C71.9195 43.4691 70.0666 41.695 70.0666 39.5233C70.0666 37.3516 71.9195 35.5775 74.2355 35.5775C76.5515 35.5775 78.4043 37.3516 78.4043 39.5233C78.4043 41.695 76.5515 43.4691 74.2355 43.4691Z" fill="white"/>
<path d="M195.225 30.6838H190.223V26.4322C191.242 25.4228 191.829 24.1687 191.829 22.8228C191.829 19.3359 187.783 16.4912 182.812 16.4912C177.84 16.4912 173.795 19.3359 173.795 22.8228C173.795 24.2299 174.443 25.5145 175.524 26.5545V30.6838H169.101V33.6203H176.666C174.906 34.7826 173.578 36.7096 173.578 38.6978C173.578 40.686 174.474 42.3683 176.296 43.7753C178.118 45.1824 180.31 45.8859 182.873 45.8859C185.436 45.8859 187.66 45.1824 189.482 43.7447C191.304 42.3377 192.23 40.686 192.23 38.6672C192.23 37.2296 191.334 35.8837 190.439 35.119C189.482 34.3238 188.154 33.9873 187.258 34.8743C186.702 35.3943 186.394 36.1896 187.351 37.566C188.123 38.6366 187.598 40.5636 186.332 41.6036C185.344 42.3989 184.201 42.8271 182.873 42.8271C181.545 42.8271 180.434 42.4295 179.446 41.6036C178.457 40.8083 177.994 39.8295 177.994 38.6366C177.994 35.6696 181.298 33.6203 184.325 33.6203H195.194C196.028 33.6203 196.677 32.9473 196.677 32.152C196.677 31.3568 195.997 30.6838 195.194 30.6838M182.781 19.3359C185.375 19.3359 187.474 20.8958 187.474 22.8228C187.474 24.7499 185.375 26.3098 182.781 26.3098C180.187 26.3098 178.056 24.7499 178.056 22.8228C178.056 20.8958 180.156 19.3359 182.781 19.3359ZM179.662 30.6838V28.7568C180.619 29.0015 181.7 29.1545 182.781 29.1545C183.861 29.1545 185.004 29.0015 186.023 28.7262V30.6838H179.662Z" fill="white"/>
<path d="M94.9879 18.1426C90.8499 18.1426 87.484 21.4766 87.484 25.6059C87.484 29.7353 90.8499 33.0693 94.9879 33.0693C99.1258 33.0693 102.492 29.7353 102.492 25.6059C102.492 21.4766 99.1258 18.1426 94.9879 18.1426ZM94.9879 29.9188C93.1659 29.9188 91.6837 27.9918 91.6837 25.6059C91.6837 23.2201 93.1659 21.2931 94.9879 21.2931C96.8098 21.2931 98.2921 23.2201 98.2921 25.6059C98.2921 27.9918 96.8098 29.9188 94.9879 29.9188Z" fill="white"/>
<path d="M132.229 25.6697C132.229 21.5404 128.647 18.1758 124.262 18.1758C119.877 18.1758 116.295 21.5404 116.295 25.6697C116.295 29.7991 119.877 33.1943 124.262 33.1943C128.647 33.1943 132.229 29.8296 132.229 25.6697ZM120.464 25.6697C120.464 23.1921 122.162 21.204 124.262 21.204C126.362 21.204 128.06 23.1921 128.06 25.6697C128.06 28.1473 126.362 30.1661 124.262 30.1661C122.162 30.1661 120.464 28.1473 120.464 25.6697Z" fill="white"/>
<path d="M120.032 63.5044V63.6267H121.205L124.046 55.0928H122.78C122.78 55.0928 121.483 59.4362 121.36 59.8644C121.236 59.4362 119.939 55.0928 119.939 55.0928H118.611L120.711 61.2715L120.032 63.5044Z" fill="white"/>
<path d="M7.72041 52.4639H6.23822C6.23822 52.4639 3.48991 55.8897 3.27375 56.165V52.4639H1.97675V61.3037H3.27375V56.8991C3.48991 57.2355 6.23822 61.3037 6.23822 61.3037H7.87487C7.87487 61.3037 4.50888 56.5626 4.44712 56.4708C4.53976 56.3791 7.68959 52.4639 7.68959 52.4639" fill="white"/>
<path d="M10.1602 54.9399C7.9368 54.9399 7.75153 56.5305 7.75153 58.274C7.75153 60.8739 8.70881 61.4245 10.1602 61.4245C11.6115 61.4245 12.5688 60.9045 12.5688 58.274C12.5688 56.5305 12.3836 54.9399 10.1602 54.9399ZM10.1602 60.4457C9.23377 60.4457 8.9559 59.8645 8.9559 57.8458C8.9559 56.2552 9.44993 55.9187 10.1602 55.9187C10.8704 55.9187 11.3645 56.2552 11.3645 57.8458C11.3645 59.8645 11.0866 60.4457 10.1602 60.4457Z" fill="white"/>
<path d="M16.7366 54.9403H16.644C15.8102 54.9403 15.2544 55.032 14.8221 55.7967V55.0626H13.6486V61.3025H14.8221V57.632C14.8221 56.592 15.2544 56.072 16.119 56.072H16.4896L16.7366 56.1332V54.9097V54.9403Z" fill="white"/>
<path d="M19.6084 54.9399C17.385 54.9399 17.1997 56.4999 17.1997 58.274C17.1997 60.8739 18.157 61.4245 19.6084 61.4245C21.0597 61.4245 21.8317 60.6904 21.8317 59.3751V59.2834H20.5656V59.3751C20.5348 59.8645 20.2569 60.4457 19.5775 60.4457C18.8673 60.4457 18.4658 60.1092 18.4349 58.5799H21.8626V57.9681C21.8626 56.0411 21.4921 54.9399 19.5775 54.9399M18.4041 57.6622C18.4041 56.1023 18.929 55.8576 19.454 55.8576C20.1025 55.8576 20.5657 56.0105 20.5965 57.6622H18.4041Z" fill="white"/>
<path d="M27.267 56.867C27.267 55.5823 26.5876 54.9399 25.1979 54.9399C23.8083 54.9399 23.0981 55.5211 23.0364 56.8364V56.9281H24.3025V56.8364C24.2716 56.5305 24.3334 56.2858 24.4878 56.1023C24.6422 55.9493 24.8583 55.8576 25.1671 55.8576C25.4759 55.8576 25.6921 55.9187 25.8465 56.1023C26.0935 56.347 26.1244 56.714 26.1244 57.1117C26.1244 57.2034 26.1244 57.2952 26.1244 57.3564C25.0745 57.3564 24.0245 57.4175 23.4069 57.9987C23.0673 58.3046 22.9128 58.7634 22.9128 59.314C22.9128 60.721 23.4687 61.3939 24.673 61.3939C25.3833 61.3939 25.8155 61.1492 26.1552 60.5986V61.2716H27.4213L27.2979 59.7422V56.8058L27.267 56.867ZM25.6612 60.1704C25.4759 60.3539 25.2288 60.4763 24.92 60.4763C24.2716 60.4763 24.0554 59.9563 24.0554 59.4363C24.0554 58.3046 25.0745 58.3046 26.0009 58.3046H26.0935C26.0935 58.3046 26.0935 58.4575 26.0935 58.5493C26.0935 59.314 25.9391 59.8645 25.6612 60.1704Z" fill="white"/>
<path d="M32.2088 57.3579H35.3585V56.2261H32.2088V53.5956H35.6056V52.4639H35.5129H30.9117V61.3037H35.6673V60.1719H32.2088V57.3579Z" fill="white"/>
<path d="M41.9974 54.9399C41.5651 54.9399 40.9475 55.0317 40.5461 55.674C40.2373 55.1541 39.6197 54.9399 39.1256 54.9399C38.4154 54.9399 37.9521 55.1846 37.6433 55.6435V55.0623H36.4081L36.47 56.4081V61.3022H37.6433V57.1422C37.6433 57.1422 37.6434 56.6223 37.8595 56.2858C37.983 56.1023 38.3536 55.9187 38.6315 55.9187C39.2491 55.9187 39.5271 56.2552 39.5271 57.0199V61.3022H40.7005V57.1422C40.7005 56.867 40.7623 56.347 41.0094 56.1329C41.2564 55.9187 41.349 55.9187 41.7195 55.9187C42.3371 55.9187 42.6151 56.2552 42.6151 57.0199V61.3022H43.7885V56.5917C43.7885 55.4905 43.2018 54.9399 42.0284 54.9399" fill="white"/>
<path d="M47.4938 54.9399C46.907 54.9399 46.5056 55.1846 46.135 55.674V55.0623H44.9617V63.5962H46.1659C46.1659 63.5962 46.135 61.0575 46.135 60.7822C46.4747 61.2104 46.9071 61.4245 47.432 61.4245C49.5628 61.4245 49.5628 59.4975 49.5628 58.0905C49.5628 55.307 48.4511 54.9399 47.4938 54.9399ZM47.2159 60.4457C46.2586 60.4457 46.135 59.4363 46.135 58.4575V58.2434C46.135 57.5399 46.1351 56.5917 46.5674 56.1634C46.7218 56.0105 46.938 55.9493 47.185 55.9493C48.3585 55.9493 48.3584 57.2034 48.3584 58.121C48.3584 59.8034 48.2041 60.4763 47.2468 60.4763" fill="white"/>
<path d="M50.5811 52.4639V61.3037H51.7546V52.4639H51.6619H50.5811Z" fill="white"/>
<path d="M57.5907 58.274C57.5907 56.5305 57.4055 54.9399 55.1821 54.9399C52.9587 54.9399 52.7734 56.5305 52.7734 58.274C52.7734 60.8739 53.7307 61.4245 55.1821 61.4245C56.6335 61.4245 57.5907 60.9045 57.5907 58.274ZM55.1821 60.4457C54.2557 60.4457 53.9777 59.8645 53.9777 57.8458C53.9777 56.2552 54.4718 55.9187 55.1821 55.9187C55.8923 55.9187 56.3864 56.2552 56.3864 57.8458C56.3864 59.8645 56.1085 60.4457 55.1821 60.4457Z" fill="white"/>
<path d="M63.1501 55.063H62.0075C62.0075 55.063 60.7106 59.4064 60.5871 59.8347C60.4635 59.4064 59.1665 55.063 59.1665 55.063H57.8387L59.9385 61.2417L59.2591 63.5969H60.4635L63.2736 55.063H63.1501Z" fill="white"/>
<path d="M66.8862 57.0199V61.3022H68.0597V57.1422C68.0597 56.867 68.1214 56.347 68.3685 56.1329C68.6155 55.9187 68.7082 55.9187 69.0788 55.9187C69.6964 55.9187 69.9742 56.2552 69.9742 57.0199V61.3022H71.1477V56.5917C71.1477 55.4905 70.5609 54.9399 69.3875 54.9399C68.9552 54.9399 68.3376 55.0317 67.9361 55.674C67.6582 55.1541 67.0097 54.9399 66.5157 54.9399C65.8054 54.9399 65.3422 55.1846 65.0643 55.6435V55.0623H63.8291L63.8908 56.4081V61.3022H65.0643V57.1422C65.0643 57.1422 65.0643 56.6223 65.2805 56.2858C65.404 56.1023 65.7746 55.9187 66.0525 55.9187C66.6701 55.9187 66.948 56.2552 66.948 57.0199" fill="white"/>
<path d="M74.5756 61.4245C75.9961 61.4245 76.799 60.6904 76.799 59.3751V59.2834H75.5329V59.3751C75.502 59.8645 75.2241 60.4457 74.5447 60.4457C73.958 60.4457 73.4022 60.2928 73.4022 58.5799H76.8607V57.9681C76.8607 56.0411 76.4902 54.9399 74.5756 54.9399C72.3523 54.9399 72.167 56.4999 72.167 58.274C72.167 60.8739 73.1243 61.4245 74.5756 61.4245ZM74.483 55.8576C75.1006 55.8576 75.5947 56.0105 75.6256 57.6622H73.4022C73.4331 56.1023 73.9272 55.8576 74.483 55.8576Z" fill="white"/>
<path d="M80.7216 54.9399C79.9496 54.9399 79.4865 55.1846 79.1159 55.7352V55.0623H77.8806L77.9424 56.4081V61.3022H79.1159V57.6316C79.1159 56.4387 79.4864 55.9187 80.2893 55.9187C80.9686 55.9187 81.2775 56.2552 81.2775 57.0199V61.3022H82.4509V57.0199C82.4509 56.0105 82.2348 54.9399 80.7216 54.9399Z" fill="white"/>
<path d="M85.8474 61.2711L86.3106 61.21V61.1182V60.2617H86.0018L85.7548 60.3229C84.921 60.3229 84.921 59.9253 84.921 59.5276V55.8877H86.2489V54.9701H84.921V53.3184L84.7975 53.3795L83.7476 53.8383V54.9701H82.7285V55.8877H83.7476V60.1088C83.7476 60.8735 84.2417 61.2711 85.199 61.2711L85.8165 61.21L85.8474 61.2711Z" fill="white"/>
<path d="M94.7096 61.3037H96.1301L93.2273 52.4639H91.6833L88.8424 61.3037H90.1702C90.1702 61.3037 90.7878 59.3461 90.8187 59.2237H94.092L94.7096 61.3037ZM91.1584 58.092C91.2202 57.9085 92.301 54.2379 92.4245 53.8097C92.548 54.2074 93.6597 57.8779 93.7214 58.092H91.1584Z" fill="white"/>
<path d="M101.04 61.8524V55.0926H99.8666V55.7349C99.5578 55.2761 99.1255 54.9702 98.5079 54.9702C97.8903 54.9702 96.5006 55.2761 96.5006 58.029C96.5006 59.6501 96.7477 61.3324 98.5696 61.3324C99.0946 61.3324 99.5887 61.0571 99.8666 60.6595V61.7607C99.8666 62.3724 99.496 62.7089 98.8784 62.7089C98.3535 62.7089 98.0446 62.403 98.0446 61.9136V61.8218H96.7477V61.9136C96.7168 62.3724 96.8403 62.7395 97.1183 63.0453C97.4579 63.4124 98.0138 63.6265 98.6932 63.6265C99.8357 63.6265 101.04 63.4124 101.04 61.8524ZM99.8974 58.2431C99.8974 58.8548 99.8974 59.6807 99.496 60.0783C99.3416 60.2313 99.1254 60.323 98.8166 60.323C98.1681 60.323 97.705 59.9254 97.705 57.9984C97.705 56.9278 97.8285 55.9184 98.7858 55.9184C99.0946 55.9184 99.3107 56.0102 99.496 56.1631C99.8974 56.5608 99.8974 57.4172 99.8974 57.9984V58.1819V58.2431Z" fill="white"/>
<path d="M106.845 59.4054V59.3137H105.579V59.4054C105.548 59.8948 105.27 60.476 104.591 60.476C103.912 60.476 103.479 60.1701 103.448 58.6101H106.876V57.9984C106.876 56.0714 106.506 54.9702 104.591 54.9702C102.368 54.9702 102.182 56.5302 102.182 58.3043C102.182 60.9042 103.14 61.4548 104.591 61.4548C106.042 61.4548 106.814 60.7207 106.814 59.4054M104.498 55.8878C105.116 55.8878 105.61 56.0408 105.641 57.6925H103.448C103.479 56.1325 103.973 55.8878 104.529 55.8878" fill="white"/>
<path d="M110.798 54.9399C110.026 54.9399 109.563 55.1846 109.192 55.7352V55.0623H107.957L108.019 56.4081V61.3022H109.192V57.6316C109.192 56.4387 109.563 55.9187 110.366 55.9187C111.045 55.9187 111.354 56.2552 111.354 57.0199V61.3022H112.527V57.0199C112.527 56.0105 112.311 54.9399 110.798 54.9399Z" fill="white"/>
<path d="M116.943 59.1301V59.2219C116.943 59.6501 116.851 60.0172 116.634 60.2313C116.449 60.4148 116.233 60.476 116.14 60.476C115.214 60.476 114.936 59.8948 114.936 57.876C114.936 56.2855 115.399 55.949 116.14 55.949C116.233 55.949 116.449 55.949 116.634 56.1325C116.82 56.3467 116.912 56.6525 116.912 57.1113V57.2031H118.117V57.1113C118.147 56.4078 117.993 55.8573 117.623 55.4902C117.283 55.1232 116.789 54.9702 116.171 54.9702C113.948 54.9702 113.763 56.5302 113.763 58.3043C113.763 60.9042 114.72 61.4548 116.171 61.4548C116.604 61.4548 117.19 61.3018 117.623 60.8736C118.024 60.476 118.209 59.9254 118.178 59.2219V59.1301H116.943Z" fill="white"/>
<path d="M129.172 52.4323C127.937 52.4323 127.536 52.9523 127.536 53.9922V55.0628H126.578V56.011H127.536V61.3333H128.709V56.011H129.944V55.0628H128.709V54.1146C128.709 53.7169 128.833 53.3193 129.635 53.3193C129.697 53.3193 129.79 53.3193 129.852 53.3193H129.944L129.728 52.4323H129.635C129.635 52.4323 129.357 52.3711 129.141 52.3711" fill="white"/>
<path d="M132.6 54.9399C130.377 54.9399 130.191 56.4999 130.191 58.274C130.191 60.8739 131.149 61.4245 132.6 61.4245C134.051 61.4245 135.009 60.9045 135.009 58.274C135.009 56.4999 134.823 54.9399 132.6 54.9399ZM132.6 55.9187C133.31 55.9187 133.774 56.2552 133.774 57.8458C133.774 59.834 133.496 60.4457 132.6 60.4457C131.705 60.4457 131.396 59.8645 131.396 57.8458C131.396 56.2552 131.859 55.9187 132.6 55.9187Z" fill="white"/>
<path d="M137.262 55.7355V55.0626H136.089V61.3025H137.262V57.632C137.262 56.592 137.694 56.072 138.559 56.072C138.652 56.072 138.713 56.072 138.806 56.072L139.177 56.1332V54.9097H139.084C138.157 54.9097 137.663 55.032 137.262 55.6744" fill="white"/>
<path d="M144.366 52.4613H141.895V61.3011H143.192V57.4776H144.551C144.983 57.4776 147.083 57.3553 147.083 55C147.083 53.2871 146.033 52.4307 144.335 52.4307M145.755 54.9388C145.755 56.1318 144.829 56.3153 144.304 56.3153H143.161V53.5624H144.613C144.613 53.5624 145.755 53.593 145.755 54.9083" fill="white"/>
<path d="M149.553 54.9399C147.298 54.9399 147.144 56.4999 147.144 58.274C147.144 60.8739 148.101 61.4245 149.553 61.4245C151.004 61.4245 151.776 60.6904 151.776 59.3751V59.2834H150.51V59.3751C150.479 59.8645 150.201 60.4457 149.522 60.4457C148.812 60.4457 148.379 60.1398 148.379 58.6105H151.807V57.9987C151.807 56.0717 151.436 54.9705 149.522 54.9705M149.429 55.8882C150.047 55.8882 150.541 56.0105 150.572 57.6928H148.379C148.41 56.1329 148.904 55.8882 149.46 55.8882" fill="white"/>
<path d="M153.815 55.7355V55.0626H152.641V61.3025H153.815V57.632C153.815 56.592 154.247 56.072 155.112 56.072C155.204 56.072 155.266 56.072 155.359 56.072L155.698 56.1332V54.9097H155.606C154.679 54.9097 154.185 55.032 153.784 55.6744" fill="white"/>
<path d="M158.478 57.5396C157.86 57.2643 157.305 57.0196 157.305 56.6219C157.305 56.1937 157.644 55.8878 158.169 55.8878C158.447 55.8878 158.663 55.949 158.818 56.102C158.972 56.2549 159.034 56.469 159.034 56.7749V56.8666H160.331V56.7749C160.362 56.2855 160.238 55.8573 159.96 55.5514C159.621 55.1843 159.034 54.9702 158.324 54.9702C156.224 54.9702 156.131 56.4384 156.131 56.7137C156.131 57.7843 157.119 58.2737 158.015 58.6713C158.663 58.9772 159.188 59.2219 159.188 59.6195C159.188 60.1395 158.818 60.4454 158.231 60.4454C157.305 60.4454 157.305 59.6807 157.305 59.3748V59.2831H155.977V59.3748C155.977 60.0172 156.131 60.5372 156.471 60.8736C156.841 61.2407 157.428 61.4242 158.2 61.4242C159.621 61.4242 160.424 60.7513 160.424 59.4972C160.424 58.396 159.374 57.9066 158.54 57.5396" fill="white"/>
<path d="M163.418 54.9399C161.195 54.9399 161.01 56.4999 161.01 58.274C161.01 60.8739 161.967 61.4245 163.418 61.4245C164.87 61.4245 165.827 60.9045 165.827 58.274C165.827 56.4999 165.642 54.9399 163.418 54.9399ZM163.418 55.9187C164.129 55.9187 164.592 56.2552 164.592 57.8458C164.592 59.834 164.314 60.4457 163.418 60.4457C162.523 60.4457 162.214 59.8645 162.214 57.8458C162.214 56.2552 162.708 55.9187 163.418 55.9187Z" fill="white"/>
<path d="M169.408 54.9399C168.636 54.9399 168.173 55.1541 167.803 55.674V55.0623H166.567V55.1541C166.629 55.6129 166.629 56.0411 166.629 56.4081V61.3022H167.803V57.6316C167.803 56.4693 168.142 55.9493 168.945 55.9493C169.624 55.9493 169.933 56.2858 169.933 57.0199V61.3022H171.107V57.0199C171.107 56.0105 170.89 54.9399 169.377 54.9399" fill="white"/>
<path d="M174.38 57.5396C173.763 57.2643 173.207 57.0196 173.207 56.6219C173.207 56.1937 173.547 55.8878 174.072 55.8878C174.35 55.8878 174.566 55.949 174.72 56.102C174.875 56.2549 174.936 56.469 174.936 56.7749V56.8666H176.233V56.7749C176.264 56.2855 176.141 55.8573 175.863 55.5514C175.492 55.1843 174.936 54.9702 174.226 54.9702C172.126 54.9702 172.034 56.4384 172.034 56.7137C172.034 57.7843 173.022 58.2737 173.917 58.6713C174.566 58.9772 175.091 59.2219 175.091 59.6195C175.091 60.1395 174.72 60.4454 174.133 60.4454C173.207 60.4454 173.207 59.6807 173.207 59.3748V59.2831H171.91V59.3748C171.91 60.0172 172.064 60.5372 172.404 60.8736C172.775 61.2407 173.361 61.4242 174.102 61.4242C175.554 61.4242 176.326 60.7513 176.326 59.4972C176.326 58.396 175.276 57.9066 174.442 57.5396" fill="white"/>
<path d="M185.219 60.0182L184.046 55.0936V55.063H182.502L181.205 60.0182L180.155 55.0936V55.063H178.858L180.402 61.2417L180.433 61.3029H181.915L183.212 56.3783L184.478 61.3029H185.929L187.597 55.1853L187.628 55.063H186.393L185.219 60.0182Z" fill="white"/>
<path d="M189.171 55.063H187.998V61.3029H189.171V55.063Z" fill="white"/>
<path d="M189.234 52.4639H187.937V53.718H189.234V52.4639Z" fill="white"/>
<path d="M192.94 60.2926C192.94 60.2926 192.755 60.2926 192.693 60.2926C191.89 60.2926 191.89 59.9256 191.89 59.4974V55.888H193.218V54.9398H191.89V53.2881L190.717 53.8081V54.9398H189.698V55.888H190.717V60.1091C190.717 60.9044 191.211 61.2714 192.168 61.2714C192.353 61.2714 192.57 61.2714 192.755 61.2103C192.755 61.2103 193.002 61.1797 193.156 61.1797H193.249V60.2315H193.156C193.156 60.2315 193.002 60.2315 192.971 60.2621" fill="white"/>
<path d="M196.614 54.9415C195.811 54.9415 195.379 55.1556 195.008 55.6756L195.101 52.4639H193.927L193.835 61.3037H195.008V57.6332C195.008 56.4402 195.348 55.9203 196.151 55.9203C196.83 55.9203 197.139 56.2873 197.139 57.1132V61.3037H198.312V56.8991C198.312 55.5532 197.756 54.9109 196.583 54.9109" fill="white"/>
<path d="M204.366 52.4613H201.463V61.3011H203.563C205.076 61.3011 206.033 60.934 206.527 60.1387C206.898 59.527 207.083 58.4564 207.083 56.5906C207.083 56.5906 207.083 54.633 206.682 53.8071C206.249 52.8895 205.57 52.4307 204.366 52.4307M202.791 53.593H204.149C205.292 53.593 205.755 54.2659 205.755 55.8871V57.6305C205.755 59.527 205.261 60.1387 203.717 60.1387H202.76V53.593H202.791Z" fill="white"/>
<path d="M209.182 52.4639H207.885V53.718H209.182V52.4639Z" fill="white"/>
<path d="M209.12 55.063H207.946V61.3029H209.12V55.063Z" fill="white"/>
<path d="M212.517 57.5396C211.9 57.2643 211.344 57.0196 211.344 56.6219C211.344 56.1937 211.684 55.8878 212.178 55.8878C212.456 55.8878 212.672 55.949 212.826 56.102C212.98 56.2549 213.042 56.469 213.042 56.7749V56.8666H214.339V56.7749C214.37 56.2855 214.247 55.8573 213.969 55.5514C213.629 55.1843 213.042 54.9702 212.332 54.9702C210.232 54.9702 210.14 56.4384 210.14 56.7137C210.14 57.7843 211.128 58.2737 212.023 58.6713C212.672 58.9772 213.197 59.2219 213.197 59.6195C213.197 60.1395 212.826 60.4454 212.239 60.4454C211.313 60.4454 211.313 59.6807 211.313 59.3748V59.2831H209.985V59.3748C209.985 60.0172 210.139 60.5372 210.479 60.8736C210.85 61.2407 211.436 61.4242 212.178 61.4242C213.598 61.4242 214.401 60.7513 214.401 59.4972C214.401 58.396 213.351 57.9066 212.517 57.5396Z" fill="white"/>
<path d="M219.62 59.7728V56.867C219.62 55.5823 218.941 54.9399 217.551 54.9399C216.162 54.9399 215.42 55.5211 215.39 56.867V56.9587H216.656V56.867C216.625 56.5611 216.687 56.3164 216.841 56.1329C216.995 55.9799 217.212 55.8882 217.52 55.8882C217.829 55.8882 218.045 55.9493 218.2 56.1023C218.447 56.3776 218.478 56.867 218.447 57.3564C218.323 57.3564 218.231 57.3564 218.138 57.3564C216.903 57.3564 215.235 57.5705 215.235 59.3446C215.235 60.7822 215.791 61.4245 216.995 61.4245C217.675 61.4245 218.138 61.1798 218.478 60.6904V61.3327H219.775V61.2104C219.682 60.6904 219.62 60.2316 219.62 59.7728ZM217.273 60.4457C216.625 60.4457 216.409 59.9257 216.409 59.4363C216.409 58.3352 217.428 58.3352 218.323 58.3352H218.416C218.447 59.2222 218.292 59.834 217.984 60.1704C217.798 60.3539 217.551 60.4763 217.242 60.4763" fill="white"/>
<path d="M223.14 54.9415C222.615 54.9415 222.183 55.125 221.843 55.5532V52.4639H220.67V61.3037H221.843V60.7531C222.183 61.2119 222.615 61.426 223.171 61.426C224.128 61.426 225.24 61.059 225.24 58.2755C225.24 56.8685 225.24 54.9415 223.14 54.9415ZM222.924 55.9203C223.881 55.9203 224.036 56.6544 224.036 58.2755C224.036 59.1625 224.036 60.4166 222.893 60.4166C222.646 60.4166 222.43 60.3249 222.275 60.1719C221.843 59.7437 221.843 58.7955 221.874 58.1226V57.9085C221.874 56.9296 221.998 55.8897 222.924 55.8897" fill="white"/>
<path d="M227.495 52.4639H226.198V53.718H227.495V52.4639Z" fill="white"/>
<path d="M227.433 55.063H226.26V61.3029H227.433V55.063Z" fill="white"/>
<path d="M229.749 52.4639H228.576V61.3037H229.749V52.4639Z" fill="white"/>
<path d="M232.126 52.4639H230.829V53.718H232.126V52.4639Z" fill="white"/>
<path d="M232.065 55.063H230.891V61.3029H232.065V55.063Z" fill="white"/>
<path d="M236.048 60.3551C236.048 60.3551 235.863 60.3551 235.801 60.3551C234.998 60.3551 234.998 59.9881 234.998 59.5599V55.9505H236.326V55.0023H234.998V53.3506L233.824 53.8706V55.0023H232.836V55.9505H233.824V60.1716C233.824 60.9363 234.318 61.3339 235.276 61.3339C235.461 61.3339 235.677 61.3339 235.862 61.2728C235.862 61.2728 236.11 61.2422 236.233 61.2422H236.326V60.294H236.233C236.233 60.294 236.11 60.294 236.048 60.294" fill="white"/>
<path d="M238.272 52.4639H236.976V53.718H238.272V52.4639Z" fill="white"/>
<path d="M238.211 55.063H237.037V61.3029H238.211V55.063Z" fill="white"/>
<path d="M241.329 54.9399C239.106 54.9399 238.921 56.4999 238.921 58.274C238.921 60.8739 239.878 61.4245 241.329 61.4245C242.781 61.4245 243.553 60.6904 243.553 59.3751V59.2834H242.286V59.3751C242.256 59.8645 241.978 60.4457 241.298 60.4457C240.588 60.4457 240.187 60.1398 240.156 58.6105H243.583V57.9987C243.583 56.0717 243.213 54.9705 241.298 54.9705M241.206 55.8882C241.823 55.8882 242.317 56.0105 242.348 57.6928H240.156C240.156 56.1329 240.681 55.8882 241.237 55.8882" fill="white"/>
<path d="M246.857 57.5396C246.239 57.2643 245.683 57.0196 245.683 56.6219C245.683 56.1937 246.023 55.8878 246.548 55.8878C246.826 55.8878 247.073 55.949 247.197 56.102C247.351 56.2549 247.413 56.469 247.413 56.7749V56.8666H248.71V56.7749C248.741 56.2855 248.617 55.8573 248.308 55.5514C247.968 55.1843 247.382 54.9702 246.672 54.9702C244.572 54.9702 244.479 56.4384 244.479 56.7137C244.479 57.7843 245.467 58.2737 246.363 58.6713C247.011 58.9772 247.536 59.2219 247.536 59.6195C247.536 60.1395 247.166 60.4454 246.579 60.4454C245.652 60.4454 245.653 59.6807 245.653 59.3748V59.2831H244.325V59.3748C244.325 60.0172 244.479 60.5372 244.819 60.8736C245.189 61.2407 245.776 61.4242 246.517 61.4242C247.969 61.4242 248.741 60.7513 248.741 59.4972C248.741 58.396 247.691 57.9066 246.857 57.5396Z" fill="white"/>
<path d="M320.938 19.6421C320.352 22.0585 315.936 24.1691 309.42 25.4843V28.5125C309.42 30.623 311.582 32.7336 314.762 31.8159C318.653 30.4701 321 28.7572 321 26.8608V19.6727C321 19.6727 320.938 19.6421 320.938 19.6727" fill="white"/>
<path d="M267.515 18.4818C267.515 19.9194 268.966 21.2652 271.498 22.3664C274.308 21.1429 275.976 19.6135 275.976 16.4018V13.2207C273.598 13.8019 271.591 14.536 270.047 15.3312C268.41 16.2795 267.515 17.35 267.515 18.4818Z" fill="white"/>
<path d="M288.823 4.92969C288.823 7.59081 286.661 9.73194 283.975 9.73194C281.288 9.73194 279.126 7.59081 279.126 4.92969C279.126 2.26857 281.288 0.127441 283.975 0.127441C286.661 0.127441 288.823 2.26857 288.823 4.92969Z" fill="white"/>
<path d="M279.249 34.478V44.5108C279.249 46.0707 281.38 47.3248 283.973 47.3248C286.567 47.3248 288.698 46.0707 288.698 44.5108V35.5486C285.27 35.3651 282.059 34.998 279.218 34.478" fill="white"/>
<path d="M298.92 26.7704C298.92 26.7704 295.554 26.9233 293.825 26.9233C279.249 26.9233 267.329 23.6199 266.65 19.4905C266.65 19.4294 266.65 19.3988 266.619 19.4905V26.8315C266.619 31.1444 278.786 34.6314 293.825 34.6314C294.257 34.6314 295.06 34.6314 295.06 34.6314C295.955 34.6314 296.697 35.3655 296.697 36.2525V62.3131C296.697 63.8731 298.827 65.1272 301.452 65.1272C304.077 65.1272 306.208 63.8731 306.208 62.3131V33.9585C306.208 29.9821 302.965 26.4645 298.951 26.7704" fill="white"/>
<path d="M317.479 15.269C312.817 12.9138 303.954 11.3232 293.825 11.3232C291.262 11.3232 287.927 11.415 285.611 11.6903C281.751 12.1185 279.281 14.8408 279.281 18.7866V24.5982C282.091 25.1182 285.302 25.5159 288.761 25.6994V20.7442C288.761 19.8572 289.471 19.2454 290.336 19.1231C291.478 19.0925 292.621 19.0313 293.825 19.0313C294.474 19.0313 295.091 19.0313 295.709 19.0313C296.172 16.309 298.55 14.2596 301.422 14.2596C304.633 14.2596 307.227 16.829 307.227 20.0101C310.778 20.6219 313.805 21.4171 316.121 22.3654C318.653 21.2336 320.104 19.8878 320.104 18.4501C320.104 17.2878 319.147 16.2173 317.479 15.2385" fill="white"/>
<path d="M306.238 20.0083C306.238 22.6388 304.076 24.8106 301.39 24.8106C298.703 24.8106 296.542 22.6694 296.542 20.0083C296.542 17.3472 298.703 15.2061 301.39 15.2061C304.076 15.2061 306.238 17.3472 306.238 20.0083Z" fill="white"/>
</svg>
