<svg width="304" height="83" viewBox="0 0 304 83" fill="none" xmlns="http://www.w3.org/2000/svg">
<path d="M110.881 12.9703H96.5899V17.7229H110.881V12.9703ZM96.6515 28.2466V33.5239H114.577V36.5174H93.2635V28.2466H96.6515ZM93.2635 10.0693H114.239V20.5313H93.2635V10.0693ZM116.241 23.3088V26.3023H105.584V30.5303H102.134V26.3023H91.2615V23.3088H116.241Z" fill="white"/>
<path d="M142.052 36.9805H138.694V9.73009H142.052V21.5499H145.532V24.8212H142.052V36.9805ZM131.087 21.9203C131.087 21.0253 130.748 20.2538 130.101 19.6057C129.454 18.9576 128.653 18.649 127.729 18.649C126.805 18.649 126.005 18.9576 125.358 19.6057C124.711 20.2538 124.372 21.0253 124.372 21.9203C124.372 22.8152 124.68 23.5868 125.358 24.2349C126.005 24.8829 126.805 25.2224 127.729 25.2224C128.653 25.2224 129.454 24.8829 130.101 24.2349C130.748 23.5868 131.087 22.8152 131.087 21.9203ZM125.881 12.4459V9.54492H129.547V12.4459H136.169V15.3468H119.29V12.4459H125.912H125.881ZM136.785 34.2339H118.951V31.2712H126.128V27.8765C125.789 27.8148 125.512 27.6913 125.204 27.5679C124.403 27.2593 123.694 26.7963 123.078 26.2717C122.462 25.6853 122 25.0373 121.662 24.2966C121.323 23.5559 121.138 22.7535 121.138 21.9203C121.138 21.087 121.323 20.3155 121.662 19.5748C122 18.8341 122.493 18.1861 123.078 17.6306C123.694 17.0751 124.403 16.6121 125.204 16.3035C126.005 15.9949 126.867 15.8406 127.791 15.8406C128.715 15.8406 129.547 15.9949 130.347 16.3035C131.148 16.6121 131.826 17.0751 132.411 17.6306C133.027 18.1861 133.52 18.865 133.859 19.5748C134.228 20.3155 134.382 21.087 134.382 21.9203C134.382 22.7535 134.197 23.5559 133.859 24.2966C133.52 25.0373 133.027 25.6853 132.411 26.2717C131.826 26.8272 131.117 27.2593 130.347 27.5679C130.039 27.7222 129.701 27.8148 129.331 27.9073V31.2712H136.785V34.2339Z" fill="white"/>
<path d="M169.741 9.73009H173.006V36.9805H169.741V9.73009ZM164.043 9.76095H167.185V36.8262H164.043V23.6794H160.501V20.5932H164.043V9.79181V9.76095ZM147.041 15.3468V12.4459H152.801V9.54492H156.374V12.4459H161.795V15.3468H155.635L162.103 32.4748L159.146 33.4932L154.618 21.1487L150.091 33.7093L147.041 32.7217L153.54 15.3468H147.072H147.041Z" fill="white"/>
<path d="M192.196 15.3176C192.196 14.3917 191.857 13.6202 191.21 12.9721C190.533 12.324 189.763 12.0154 188.808 12.0154C187.853 12.0154 187.083 12.324 186.405 12.9721C185.728 13.6202 185.389 14.3917 185.389 15.3176C185.389 16.2434 185.728 17.0149 186.405 17.663C187.083 18.3111 187.884 18.6197 188.808 18.6197C189.732 18.6197 190.533 18.3111 191.21 17.663C191.857 17.0149 192.196 16.2125 192.196 15.3176ZM185.143 28.6187H192.473V25.44H185.204V28.6187H185.143ZM195.491 15.3176C195.491 16.1817 195.307 16.9841 194.937 17.7247C194.567 18.4654 194.105 19.1444 193.489 19.7307C192.873 20.2862 192.165 20.7183 191.364 21.0577C190.563 21.3972 189.701 21.5515 188.777 21.5515C187.853 21.5515 186.991 21.3664 186.159 21.0577C185.327 20.7183 184.619 20.2862 184.003 19.7307C183.418 19.1444 182.925 18.4654 182.555 17.7247C182.186 16.9841 182.001 16.1817 182.001 15.3176C182.001 14.4534 182.186 13.6511 182.555 12.9104C182.925 12.1697 183.387 11.4908 184.003 10.9044C184.619 10.3489 185.327 9.88599 186.159 9.54651C186.991 9.20704 187.853 9.05273 188.777 9.05273C189.701 9.05273 190.563 9.20704 191.364 9.54651C192.196 9.88599 192.873 10.3489 193.489 10.9044C194.075 11.4908 194.567 12.1697 194.937 12.9104C195.307 13.6511 195.491 14.4843 195.491 15.3176ZM199.28 28.6187V37.013H195.892V31.5197H177.658V28.6187H181.97V25.44H176.272V22.5082H201.251V25.44H195.491V28.6187H199.249H199.28Z" fill="white"/>
<path d="M227.462 26.6743H224.074V9.73145H227.462V16.3975H230.942V19.6379H227.462V26.7051V26.6743ZM209.382 27.8778V33.402H228.17V36.3955H205.994V27.8778H209.382ZM216.774 20.2551V13.2805H205.532V10.2561H220.069V20.2551H216.774ZM221.024 22.7549V25.7176H204.792V22.7549H210.275V16.8295H213.478V22.7549H221.024Z" fill="white"/>
<path d="M255.921 24.73H252.533V9.73145H255.921V15.2865H259.401V18.4652H255.921V24.73ZM250.161 31.5503C250.161 30.6245 249.822 29.8221 249.145 29.1432C248.467 28.4951 247.666 28.1556 246.742 28.1556C245.818 28.1556 244.987 28.4951 244.309 29.1432C243.631 29.8221 243.293 30.5936 243.293 31.5503C243.293 32.507 243.631 33.2786 244.309 33.9266C244.987 34.5747 245.787 34.8833 246.742 34.8833C247.697 34.8833 248.498 34.5747 249.145 33.9266C249.822 33.2786 250.161 32.507 250.161 31.5503ZM253.487 31.5812C253.487 32.4453 253.303 33.2786 252.933 34.0192C252.563 34.7599 252.071 35.4388 251.485 36.0252C250.9 36.6116 250.192 37.0436 249.391 37.3831C248.59 37.7226 247.697 37.8769 246.773 37.8769C245.849 37.8769 244.956 37.7226 244.155 37.3831C243.354 37.0436 242.646 36.5807 242.03 36.0252C241.414 35.4388 240.952 34.7599 240.582 34.0192C240.243 33.2786 240.059 32.4762 240.059 31.5812C240.059 30.6862 240.243 29.8838 240.582 29.1123C240.921 28.3408 241.414 27.6618 242.03 27.0754C242.646 26.5199 243.354 26.0879 244.155 25.7484C244.956 25.4089 245.849 25.2546 246.773 25.2546C247.697 25.2546 248.59 25.4398 249.391 25.7484C250.192 26.0879 250.9 26.5199 251.485 27.0754C252.101 27.6618 252.594 28.3408 252.933 29.1123C253.303 29.8838 253.487 30.6862 253.487 31.5812ZM245.264 18.9898V13.2805H234.022V10.2869H248.559V18.9898H245.264ZM238.734 21.4278V16.1197H241.937V21.4278H249.514V24.2671H233.282V21.4278H238.765H238.734Z" fill="white"/>
<path d="M280.869 16.5509H266.578V20.3159H280.869V16.5509ZM266.578 13.6191H280.869V10.1626H284.227V23.2786H263.252V10.1626H266.578V13.6191ZM261.25 26.9202H286.229V29.9138H275.418V36.9193H272.03V29.9138H261.25V26.9202Z" fill="white"/>
<path d="M105.739 50.3765V62.8753H103.706V52.8145L100.441 62.8753H98.5315L95.2667 52.8145V62.8753H93.2646V50.3765H96.3447L99.4863 60.1286L102.628 50.3765H105.739Z" fill="white"/>
<path d="M108.079 53.8922H110.111V62.8728H108.079V53.8922ZM110.389 51.3616C110.389 51.7011 110.265 52.0097 110.019 52.2566C109.773 52.5035 109.465 52.6269 109.095 52.6269C108.725 52.6269 108.417 52.5035 108.171 52.2566C107.925 52.0097 107.801 51.7011 107.801 51.3616C107.801 51.0221 107.925 50.6827 108.171 50.4358C108.417 50.1889 108.725 50.0654 109.095 50.0654C109.465 50.0654 109.773 50.1889 110.019 50.4358C110.265 50.6827 110.389 50.9913 110.389 51.3616Z" fill="white"/>
<path d="M114.515 58.3667V62.9033H112.482V53.8918H114.453V55.0954C114.7 54.6633 115.038 54.3239 115.5 54.077C115.962 53.7992 116.455 53.6758 116.979 53.6758C118.026 53.6758 118.888 54.0461 119.535 54.7559C120.182 55.4657 120.49 56.4533 120.49 57.6569V62.8724H118.457V58.1815C118.457 57.2248 118.303 56.515 117.995 56.0521C117.687 55.5892 117.194 55.3732 116.578 55.3732C116.24 55.3732 115.901 55.4966 115.593 55.7126C115.285 55.9286 115.038 56.2373 114.854 56.6076C114.638 57.0397 114.546 57.626 114.546 58.3667" fill="white"/>
<path d="M122.769 53.8922H124.802V62.8728H122.769V53.8922ZM125.079 51.3616C125.079 51.7011 124.956 52.0097 124.709 52.2566C124.463 52.5035 124.155 52.6269 123.785 52.6269C123.416 52.6269 123.108 52.5035 122.861 52.2566C122.615 52.0097 122.492 51.7011 122.492 51.3616C122.492 51.0221 122.615 50.6827 122.861 50.4358C123.108 50.1889 123.416 50.0654 123.785 50.0654C124.155 50.0654 124.463 50.1889 124.709 50.4358C124.956 50.6827 125.079 50.9913 125.079 51.3616Z" fill="white"/>
<path d="M126.465 61.2058L127.728 59.9096C128.098 60.4034 128.467 60.7738 128.898 61.0515C129.33 61.2984 129.761 61.4218 130.254 61.4218C130.746 61.4218 131.085 61.3293 131.424 61.1441C131.732 60.9589 131.886 60.712 131.886 60.4034C131.886 60.0948 131.732 59.8479 131.424 59.6628C131.116 59.4776 130.746 59.3233 130.346 59.169C129.853 59.0147 129.36 58.8295 128.837 58.6443C128.128 58.3974 127.635 58.0888 127.327 57.6876C126.989 57.2864 126.835 56.8544 126.835 56.3606C126.835 55.6199 127.173 54.9719 127.882 54.4781C128.59 53.9534 129.391 53.7065 130.346 53.7065C131.362 53.7065 132.163 53.9534 132.81 54.4163C133.149 54.6632 133.395 54.9719 133.58 55.3422L132.317 56.5766C132.163 56.2989 131.948 56.052 131.732 55.8668C131.332 55.5274 130.839 55.3422 130.254 55.3422C129.915 55.3422 129.607 55.4348 129.36 55.5891C129.114 55.7434 128.991 55.9594 128.991 56.2063C128.991 56.4532 129.145 56.7001 129.422 56.8853C129.699 57.0704 130.13 57.2247 130.685 57.4099C130.9 57.4716 131.116 57.5333 131.393 57.6259C132.256 57.9037 132.933 58.274 133.364 58.7369C133.826 59.1998 134.042 59.7245 134.042 60.3726C134.042 61.1132 133.672 61.7613 132.964 62.286C132.256 62.8415 131.332 63.0884 130.223 63.0884C129.299 63.0884 128.467 62.8723 127.759 62.4403C127.297 62.1625 126.865 61.7305 126.527 61.2058" fill="white"/>
<path d="M138.295 50.9902V53.8912H140.236V55.5268H138.295V60.0943C138.295 60.5263 138.388 60.835 138.603 60.9893C138.819 61.1436 139.096 61.2362 139.497 61.2362H140.236V62.8718H139.004C138.049 62.8718 137.341 62.6558 136.879 62.2237C136.447 61.7917 136.232 61.1436 136.232 60.3103V55.5268H134.692V53.8912H136.232V50.9902H138.295Z" fill="white"/>
<path d="M141.929 62.8726V53.892H143.838V55.2499C144.147 54.8178 144.485 54.4475 144.917 54.2315C145.44 53.9229 146.025 53.7686 146.734 53.7686H146.888V55.5894H146.672C145.81 55.5894 145.163 55.8363 144.639 56.3609C144.177 56.8547 143.931 57.6571 143.931 58.7063V62.8726H141.898H141.929Z" fill="white"/>
<path d="M151.2 62.5332L147.658 53.8921H149.783L152.217 60.0335L154.65 53.8921H156.744L151.724 66.36H149.66L151.2 62.5332Z" fill="white"/>
<path d="M166.476 61.4253C167.215 61.4253 167.862 61.1475 168.386 60.5611C168.909 60.0056 169.186 59.265 169.186 58.4009C169.186 57.5368 168.909 56.8269 168.386 56.2406C167.862 55.6542 167.215 55.3765 166.476 55.3765C165.737 55.3765 165.121 55.6851 164.597 56.2406C164.074 56.8269 163.796 57.5368 163.796 58.4009C163.796 59.265 164.074 60.0056 164.597 60.5611C165.121 61.1166 165.768 61.4253 166.476 61.4253ZM166.476 63.1226C165.152 63.1226 164.043 62.6597 163.119 61.7647C162.195 60.8698 161.733 59.7588 161.733 58.4317C161.733 57.1047 162.195 55.9937 163.119 55.0679C164.043 54.1729 165.152 53.71 166.476 53.71C167.8 53.71 168.909 54.1729 169.833 55.0679C170.757 55.9628 171.219 57.1047 171.219 58.4317C171.219 59.7588 170.757 60.8698 169.833 61.7647C168.909 62.6597 167.8 63.1226 166.476 63.1226Z" fill="white"/>
<path d="M173.436 52.9384C173.436 52.1052 173.683 51.4571 174.145 51.025C174.607 50.593 175.346 50.377 176.301 50.377H177.286V52.0126H176.701C176.331 52.0126 176.023 52.1052 175.808 52.2595C175.592 52.4138 175.5 52.7224 175.5 53.1545V53.8951H177.286V55.5616H175.5V62.9066H173.436V55.5616H171.896V53.8951H173.436V52.9384Z" fill="white"/>
<path d="M189.791 61.331C191.085 61.331 192.286 60.899 193.364 60.0657L194.226 61.5779C193.117 62.5655 191.639 63.0593 189.791 63.0593C187.943 63.0593 186.464 62.442 185.202 61.2076C183.97 59.9731 183.323 58.4301 183.323 56.6093C183.323 54.7885 183.939 53.2145 185.202 51.9801C186.464 50.7456 187.974 50.1284 189.791 50.1284C191.608 50.1284 193.056 50.6222 194.134 51.6406L193.302 53.1528C192.224 52.2887 191.054 51.8875 189.791 51.8875C188.59 51.8875 187.573 52.3196 186.711 53.2145C185.848 54.1404 185.417 55.2822 185.417 56.6093C185.417 57.9363 185.848 59.0782 186.711 59.9731C187.573 60.8681 188.59 61.3002 189.791 61.3002" fill="white"/>
<path d="M201.833 58.4292V53.8926H203.866V62.8732H201.926V61.7005C201.679 62.1325 201.34 62.472 200.909 62.7189C200.416 62.9966 199.924 63.1201 199.4 63.1201C198.353 63.1201 197.49 62.7498 196.874 62.0399C196.228 61.3301 195.92 60.3426 195.92 59.139V53.9234H197.952V58.6452C197.952 59.6019 198.106 60.2809 198.414 60.7438C198.722 61.2067 199.215 61.4227 199.862 61.4227C200.201 61.4227 200.509 61.2993 200.848 61.0832C201.156 60.8672 201.402 60.5586 201.587 60.1883C201.772 59.7562 201.864 59.1698 201.864 58.3983" fill="white"/>
<path d="M208.212 50.3765H206.179V62.9061H208.212V50.3765Z" fill="white"/>
<path d="M213.232 50.9937V53.8946H215.173V55.5302H213.232V60.0977C213.232 60.5298 213.325 60.8384 213.54 60.9927C213.756 61.147 214.033 61.2396 214.433 61.2396H215.173V62.8752H213.941C212.955 62.8752 212.277 62.6592 211.815 62.2271C211.353 61.7951 211.169 61.147 211.169 60.3137V55.5302H209.629V53.8946H211.169V50.9937H213.232Z" fill="white"/>
<path d="M222.809 58.4292V53.8926H224.842V62.8732H222.901V61.7005C222.655 62.1325 222.316 62.472 221.885 62.7189C221.392 62.9966 220.899 63.1201 220.376 63.1201C219.329 63.1201 218.466 62.7498 217.85 62.0399C217.203 61.3301 216.895 60.3426 216.895 59.139V53.9234H218.928V58.6452C218.928 59.6019 219.082 60.2809 219.39 60.7438C219.698 61.2067 220.191 61.4227 220.838 61.4227C221.177 61.4227 221.485 61.2993 221.793 61.0832C222.101 60.8672 222.347 60.5586 222.532 60.1883C222.717 59.7562 222.809 59.1698 222.809 58.3983" fill="white"/>
<path d="M227.216 62.8731V53.8925H229.126V55.2504C229.434 54.8183 229.773 54.448 230.204 54.232C230.728 53.9233 231.313 53.769 232.021 53.769H232.175V55.5899H231.96C231.097 55.5899 230.45 55.8367 229.927 56.3614C229.465 56.8552 229.218 57.6576 229.218 58.7068V62.8731H227.186H227.216Z" fill="white"/>
<path d="M234.913 57.6905H239.903C239.903 57.1041 239.626 56.5795 239.164 56.0857C238.702 55.5919 238.117 55.345 237.377 55.345C236.638 55.345 236.022 55.5919 235.56 56.1474C235.221 56.5486 235.006 57.0732 234.913 57.6905ZM234.944 59.2952C235.067 59.8508 235.314 60.2828 235.714 60.6531C236.299 61.1778 237.039 61.4555 237.993 61.4555C238.979 61.4555 239.903 61.0852 240.765 60.3754L241.381 61.8876C240.396 62.7208 239.256 63.1529 237.932 63.1529C236.423 63.1529 235.191 62.7208 234.236 61.8567C233.281 60.9926 232.819 59.8508 232.819 58.462C232.819 57.0732 233.25 55.9622 234.082 55.0673C234.913 54.1723 236.022 53.7402 237.377 53.7402C238.733 53.7402 239.811 54.1723 240.673 55.0673C241.535 55.9622 241.967 57.0424 241.967 58.3694C241.967 58.7398 241.936 59.0484 241.874 59.3878H234.944V59.2952Z" fill="white"/>
<path d="M244.493 63.6763H244.401C244.031 63.6763 243.723 63.5529 243.477 63.306C243.2 63.0591 243.076 62.7505 243.076 62.3802C243.076 62.0098 243.2 61.7012 243.477 61.4543C243.754 61.2074 244.062 61.084 244.401 61.084C244.74 61.084 245.078 61.2074 245.325 61.4543C245.633 61.7321 245.787 62.1333 245.787 62.6579C245.787 63.522 245.571 64.2627 245.14 64.8182C244.709 65.3428 244.247 65.744 243.692 65.9601L243.169 65.3737C243.662 65.0651 244.031 64.6947 244.247 64.2936C244.37 64.1084 244.432 63.9232 244.493 63.7072" fill="white"/>
<path d="M251.485 60.3435L252.871 58.9547C253.24 59.7571 253.702 60.3126 254.257 60.683C254.873 61.0841 255.489 61.3002 256.105 61.3002C256.751 61.3002 257.337 61.115 257.799 60.7755C258.261 60.4361 258.507 60.004 258.507 59.4485C258.507 58.9547 258.261 58.5535 257.799 58.2449C257.337 57.9363 256.813 57.6894 256.259 57.4734C255.704 57.2574 255.15 57.0413 254.534 56.7944C253.579 56.455 252.901 55.992 252.47 55.4365C252.07 54.881 251.854 54.2947 251.854 53.6466C251.854 52.659 252.255 51.8566 253.086 51.1468C253.918 50.4679 254.903 50.1284 256.105 50.1284C257.367 50.1284 258.384 50.437 259.154 51.0851C259.554 51.3937 259.831 51.7332 259.985 52.1344L258.723 53.4614C258.599 53.2454 258.415 52.9985 258.137 52.7208C257.521 52.1653 256.813 51.8875 255.981 51.8875C255.458 51.8875 254.996 52.0418 254.595 52.3196C254.195 52.6282 253.979 52.9985 253.979 53.4923C253.979 54.233 254.78 54.881 256.413 55.4674C256.721 55.56 257.029 55.6834 257.337 55.776C258.415 56.2081 259.246 56.7019 259.77 57.2574C260.324 57.8437 260.571 58.5227 260.571 59.3559C260.571 60.3435 260.139 61.2076 259.308 61.9174C258.476 62.6581 257.398 62.9975 256.074 62.9975C254.842 62.9975 253.856 62.7198 253.055 62.1643C252.285 61.6396 251.731 60.9916 251.423 60.2509" fill="white"/>
<path d="M264.329 58.9872C264.391 59.6662 264.637 60.2217 265.069 60.6846C265.561 61.1784 266.147 61.4253 266.855 61.4253C267.625 61.4253 268.241 61.1475 268.703 60.5611C269.165 60.0056 269.381 59.265 269.381 58.4009C269.381 57.5368 269.134 56.8269 268.703 56.2406C268.241 55.6542 267.625 55.3765 266.855 55.3765C266.147 55.3765 265.531 55.6234 265.069 56.148C264.637 56.6109 264.391 57.1664 264.329 57.8454C264.299 58.2157 264.299 58.586 264.329 58.9872ZM267.071 63.1226C265.962 63.1226 265.038 62.6906 264.299 61.8573V66.3939H262.266V53.926H264.206V55.0679C264.976 54.1729 265.931 53.71 267.04 53.71C268.333 53.71 269.411 54.1729 270.212 55.1296C271.044 56.0554 271.444 57.1664 271.444 58.4317C271.444 59.697 271.044 60.808 270.212 61.7339C269.381 62.6597 268.333 63.1226 267.04 63.1226" fill="white"/>
<path d="M277.326 61.4253C278.065 61.4253 278.712 61.1475 279.236 60.5611C279.759 60.0056 280.036 59.265 280.036 58.4009C280.036 57.5368 279.759 56.8269 279.236 56.2406C278.712 55.6542 278.065 55.3765 277.326 55.3765C276.587 55.3765 275.971 55.6851 275.447 56.2406C274.924 56.8269 274.646 57.5368 274.646 58.4009C274.646 59.265 274.924 60.0056 275.447 60.5611C275.971 61.1166 276.618 61.4253 277.326 61.4253ZM277.326 63.1226C276.002 63.1226 274.893 62.6597 273.969 61.7647C273.045 60.8698 272.583 59.7588 272.583 58.4317C272.583 57.1047 273.045 55.9937 273.969 55.0679C274.893 54.1729 276.002 53.71 277.326 53.71C278.65 53.71 279.759 54.1729 280.683 55.0679C281.607 55.9628 282.069 57.1047 282.069 58.4317C282.069 59.7588 281.607 60.8698 280.683 61.7647C279.759 62.6597 278.65 63.1226 277.326 63.1226Z" fill="white"/>
<path d="M283.826 62.8731V53.8925H285.736V55.2504C286.044 54.8183 286.413 54.448 286.844 54.232C287.368 53.9233 287.953 53.769 288.662 53.769H288.816V55.5899H288.6C287.738 55.5899 287.091 55.8367 286.567 56.3614C286.105 56.8552 285.859 57.6576 285.859 58.7068V62.8731H283.826Z" fill="white"/>
<path d="M293.467 50.9937V53.8946H295.407V55.5302H293.467V60.0977C293.467 60.5298 293.559 60.8384 293.775 60.9927C293.99 61.147 294.268 61.2396 294.668 61.2396H295.407V62.8752H294.175C293.19 62.8752 292.512 62.6592 292.05 62.2271C291.619 61.7951 291.403 61.147 291.403 60.3137V55.5302H289.863V53.8946H291.403V50.9937H293.467Z" fill="white"/>
<path d="M296.423 61.2092L297.686 59.9131C298.055 60.4068 298.425 60.7772 298.856 61.0549C299.287 61.3018 299.718 61.4253 300.211 61.4253C300.704 61.4253 301.043 61.3327 301.382 61.1475C301.69 60.9623 301.844 60.7155 301.844 60.4068C301.844 60.0982 301.69 59.8513 301.382 59.6662C301.074 59.481 300.704 59.3267 300.304 59.1724C299.811 59.0181 299.318 58.8329 298.794 58.6478C298.086 58.4009 297.593 58.0923 297.285 57.6911C296.977 57.2899 296.792 56.8578 296.792 56.364C296.792 55.6234 297.131 54.9753 297.84 54.4815C298.548 53.9569 299.349 53.71 300.304 53.71C301.32 53.71 302.121 53.9568 302.768 54.4198C303.076 54.6667 303.353 54.9753 303.538 55.3456L302.275 56.5801C302.121 56.3023 301.905 56.0554 301.69 55.8702C301.289 55.5308 300.796 55.3456 300.211 55.3456C299.872 55.3456 299.564 55.4382 299.318 55.5925C299.072 55.7777 298.948 55.9628 298.948 56.2097C298.948 56.4566 299.102 56.7035 299.38 56.8887C299.657 57.0738 300.088 57.2281 300.642 57.4133C300.858 57.475 301.074 57.5368 301.351 57.6293C302.213 57.9071 302.891 58.2774 303.322 58.7403C303.784 59.2033 304 59.7279 304 60.376C304 61.1167 303.63 61.7647 302.922 62.2894C302.213 62.8449 301.289 63.0918 300.18 63.0918C299.256 63.0918 298.425 62.8757 297.716 62.4437C297.224 62.1659 296.823 61.7339 296.484 61.2092" fill="white"/>
<path d="M96.4981 80.989C97.0217 80.989 97.5453 80.8656 98.0689 80.5878C98.5925 80.341 98.9621 80.0323 99.1777 79.6929V78.1807H97.3605C96.3441 78.1807 95.6049 78.3041 95.2044 78.5819C94.804 78.8905 94.6192 79.23 94.6192 79.662C94.6192 80.0323 94.7732 80.3718 95.112 80.6187C95.4508 80.8656 95.9129 80.989 96.4981 80.989ZM97.0525 76.5759H99.1777C99.1777 75.9895 98.9621 75.5575 98.5001 75.2489C98.0381 74.9402 97.3913 74.8168 96.5289 74.8168H96.4673C95.6665 74.8168 94.804 75.002 93.88 75.4032L93.3564 73.7984C94.3112 73.3972 95.3276 73.1812 96.4673 73.1812H96.4981C98.0073 73.1812 99.1469 73.4898 99.9477 74.0453C100.749 74.6316 101.149 75.5575 101.149 76.8228V82.3778H99.2085V81.3902C98.8389 81.7606 98.3461 82.0692 97.7917 82.2852C97.2373 82.5012 96.6829 82.5938 96.0977 82.5938C95.0196 82.5938 94.1572 82.3161 93.4796 81.7297C92.802 81.1742 92.494 80.4644 92.494 79.6311C92.494 78.7053 92.8944 77.9338 93.726 77.3474C94.496 76.8228 95.5741 76.545 96.9909 76.545" fill="white"/>
<path d="M105.523 77.8412V82.3778H103.49V73.3972H105.462V74.6008C105.708 74.1996 106.047 73.8292 106.509 73.5824C106.971 73.3355 107.464 73.1812 107.987 73.1812C109.065 73.1812 109.897 73.5515 110.544 74.2613C111.191 74.9711 111.499 75.9587 111.499 77.1623V82.3778H109.466V77.6869C109.466 76.7302 109.312 76.0204 109.004 75.5575C108.696 75.0945 108.203 74.8785 107.587 74.8785C107.248 74.8785 106.909 75.002 106.601 75.218C106.293 75.434 106.047 75.7426 105.862 76.113C105.646 76.545 105.554 77.1314 105.554 77.8721" fill="white"/>
<path d="M120.337 78.4613C120.368 78.0601 120.368 77.6897 120.337 77.3194C120.275 76.6404 120.029 76.0849 119.598 75.622C119.136 75.1282 118.52 74.8814 117.811 74.8814C117.011 74.8814 116.395 75.1591 115.963 75.7455C115.501 76.3318 115.286 77.0416 115.286 77.9058C115.286 78.7699 115.501 79.5105 115.963 80.066C116.425 80.6215 117.041 80.9302 117.811 80.9302C118.52 80.9302 119.105 80.6833 119.598 80.1895C120.029 79.7266 120.275 79.1711 120.337 78.4921M117.627 73.184C118.674 73.184 119.598 73.616 120.368 74.4802V69.8818H122.401V82.4115H120.429V81.2696C119.69 82.1646 118.735 82.6275 117.627 82.6275C116.302 82.6275 115.255 82.1646 114.423 81.2388C113.623 80.3129 113.191 79.2019 113.191 77.9366C113.191 76.6713 113.592 75.5603 114.423 74.6345C115.224 73.6778 116.302 73.2148 117.627 73.2148" fill="white"/>
<path d="M134.752 71.6067V82.3773H132.657V71.6067H128.838V69.8477H138.571V71.6067H134.752Z" fill="white"/>
<path d="M142.728 80.8961C143.467 80.8961 144.114 80.6183 144.638 80.032C145.161 79.4765 145.438 78.7358 145.438 77.8717C145.438 77.0076 145.161 76.2977 144.638 75.7114C144.114 75.125 143.467 74.8473 142.728 74.8473C141.989 74.8473 141.373 75.125 140.849 75.7114C140.326 76.2977 140.048 77.0076 140.048 77.8717C140.048 78.7358 140.326 79.4765 140.849 80.032C141.373 80.5875 142.02 80.8961 142.728 80.8961ZM142.728 82.5934C141.404 82.5934 140.295 82.1305 139.371 81.2355C138.447 80.3406 137.985 79.2296 137.985 77.8717C137.985 76.5138 138.447 75.4336 139.371 74.5078C140.295 73.6128 141.404 73.1499 142.728 73.1499C144.052 73.1499 145.161 73.6128 146.085 74.5078C147.009 75.4028 147.471 76.5446 147.471 77.8717C147.471 79.1987 147.009 80.3097 146.085 81.2355C145.161 82.1305 144.052 82.5934 142.728 82.5934Z" fill="white"/>
<path d="M155.172 77.9048V73.3682H157.205V82.3796H155.265V81.2069C155.018 81.639 154.679 81.9784 154.248 82.2253C153.755 82.4722 153.263 82.6265 152.739 82.6265C151.692 82.6265 150.829 82.2562 150.213 81.5464C149.567 80.8366 149.259 79.849 149.259 78.6454V73.4299H151.291V78.1516C151.291 79.1083 151.445 79.7873 151.753 80.2502C152.061 80.7131 152.554 80.9292 153.201 80.9292C153.54 80.9292 153.848 80.8366 154.156 80.5897C154.464 80.3428 154.71 80.065 154.895 79.6947C155.08 79.2627 155.172 78.6454 155.172 77.9048Z" fill="white"/>
<path d="M159.576 82.378V73.3974H161.485V74.7553C161.793 74.3232 162.132 73.9837 162.563 73.7368C163.087 73.4282 163.672 73.2739 164.381 73.2739H164.535V75.0947H164.319C163.457 75.0947 162.81 75.3416 162.286 75.8663C161.824 76.36 161.578 77.1624 161.578 78.2117V82.4088H159.545L159.576 82.378Z" fill="white"/>
<path d="M166.013 73.3668H168.046V82.3474H166.013V73.3668ZM168.323 70.8362C168.323 71.1757 168.2 71.4843 167.953 71.7312C167.707 71.9781 167.399 72.1015 167.029 72.1015C166.66 72.1015 166.352 71.9781 166.105 71.7312C165.859 71.4843 165.736 71.1757 165.736 70.8362C165.736 70.4967 165.859 70.1573 166.105 69.9104C166.352 69.6635 166.66 69.54 167.029 69.54C167.399 69.54 167.707 69.6635 167.953 69.9104C168.2 70.1573 168.323 70.4659 168.323 70.8362Z" fill="white"/>
<path d="M169.742 80.7108L171.005 79.4146C171.374 79.9084 171.744 80.2787 172.175 80.5565C172.607 80.8034 173.038 80.9268 173.531 80.9268C174.023 80.9268 174.362 80.8342 174.701 80.6491C175.009 80.4639 175.163 80.217 175.163 79.9084C175.163 79.5998 175.009 79.3529 174.701 79.1677C174.393 78.9826 174.023 78.8283 173.623 78.674C173.13 78.5197 172.637 78.3345 172.114 78.1493C171.405 77.9024 170.912 77.563 170.604 77.1926C170.266 76.7914 170.112 76.3594 170.112 75.8347C170.112 75.0941 170.45 74.4768 171.159 73.9522C171.867 73.4276 172.668 73.1807 173.623 73.1807C174.639 73.1807 175.44 73.4276 176.087 73.8905C176.426 74.1374 176.672 74.446 176.857 74.8163L175.594 76.0508C175.44 75.773 175.225 75.5261 175.009 75.341C174.609 75.0015 174.116 74.8163 173.531 74.8163C173.192 74.8163 172.884 74.9089 172.637 75.0632C172.391 75.2175 172.268 75.4335 172.268 75.6804C172.268 75.9273 172.422 76.1742 172.699 76.3594C172.976 76.5445 173.407 76.6988 173.962 76.884C174.177 76.9457 174.393 77.0075 174.67 77.1C175.533 77.3778 176.21 77.7481 176.641 78.211C177.103 78.674 177.319 79.1986 177.319 79.8467C177.319 80.5874 176.949 81.2354 176.241 81.7601C175.533 82.3156 174.609 82.5625 173.5 82.5625C172.576 82.5625 171.744 82.3464 171.036 81.9144C170.543 81.6366 170.142 81.2046 169.804 80.6799" fill="white"/>
<path d="M188.406 73.1499C189.453 73.1499 190.285 73.5202 190.87 74.23C191.455 74.9399 191.733 75.9274 191.733 77.131V82.3465H189.731V77.6556C189.731 76.6989 189.607 75.9891 189.361 75.5262C189.115 75.0633 188.683 74.8473 188.098 74.8473C187.759 74.8473 187.451 74.9399 187.205 75.1559C186.959 75.3411 186.743 75.6497 186.589 76.02C186.435 76.4212 186.343 76.9767 186.343 77.6556V82.3465H184.341V77.6556C184.341 76.6989 184.217 75.9891 183.94 75.5262C183.663 75.0633 183.263 74.8473 182.677 74.8473C182.339 74.8473 182.031 74.9399 181.784 75.1559C181.538 75.3411 181.322 75.6497 181.168 76.02C180.983 76.4521 180.891 77.0384 180.891 77.7791V82.3774H178.889V73.3968H180.799V74.6004C181.291 73.6437 182.061 73.1808 183.139 73.1808C184.248 73.1808 185.08 73.7363 185.603 74.8164C185.911 74.2918 186.281 73.8597 186.712 73.582C187.143 73.3042 187.729 73.1808 188.437 73.1808" fill="white"/>
<path d="M21.0366 12.169C26.7655 7.23125 34.2192 4.17599 42.3813 4.11427C49.1882 4.05255 55.5022 6.05853 60.7999 9.51498C54.3626 3.99083 45.9849 0.626953 36.8372 0.626953C16.4782 0.657814 0 17.1994 0 37.5987C0 43.1229 1.20121 48.3693 3.38804 53.091C8.3469 63.8925 19.2502 71.3917 31.9092 71.3917C44.5681 71.3917 55.4098 63.553 59.8759 52.4738C60.7075 50.4061 61.1387 48.1841 61.1387 45.8386C61.1387 38.5863 55.2866 32.7226 48.0486 32.7226C43.3977 32.7226 39.3013 35.1607 36.9912 38.8023C34.6812 42.4748 30.5848 44.8819 25.9339 44.8819C21.283 44.8819 16.8786 42.2896 14.507 38.1851C13.6138 36.642 13.121 34.9755 12.9054 33.0312C12.8129 32.2288 12.7513 31.3647 12.7513 30.4698C12.6897 23.1865 15.893 16.6131 21.0058 12.1999" fill="white"/>
<path d="M42.7825 6.02783C58.4907 6.02783 73.7061 18.3106 73.7061 37.5371C73.7061 53.5541 63.542 67.2256 49.343 72.3486C60.4003 66.8553 67.9772 55.4366 67.9772 42.2589C67.9772 25.4395 54.3635 11.8297 37.6081 11.8297C30.3392 11.8297 23.7171 14.5455 18.6659 19.0204C18.0807 19.545 17.5571 20.1005 17.0334 20.6869C18.3887 17.8785 20.3291 15.4096 22.6699 13.4345C28.0908 8.86706 35.1133 6.08955 42.7825 6.08955" fill="white"/>
</svg>
