<svg width="283" height="53" viewBox="0 0 283 53" fill="none" xmlns="http://www.w3.org/2000/svg">
<path d="M102.763 27.6707H105.986C106.323 27.6707 106.507 27.52 106.507 27.1884V10.1557C106.507 9.85422 106.354 9.67334 105.986 9.67334H102.763C102.763 9.67334 102.518 9.73363 102.425 9.82407C102.303 9.91451 102.272 10.0351 102.272 10.1557V27.1582C102.272 27.1582 102.333 27.4295 102.425 27.52C102.548 27.6104 102.64 27.6707 102.763 27.6707Z" fill="white"/>
<path d="M106.876 40.3616H89.6614C89.4159 40.3616 89.2625 40.3616 89.2318 40.3013C89.1704 40.2711 89.1397 40.1505 89.1397 39.9395V38.4623C89.1397 38.2815 89.1397 38.1609 89.2318 38.1006C89.2625 38.0403 89.4159 38.0101 89.6307 38.0101H103.93C104.943 38.0101 105.587 37.8594 105.925 37.558C106.262 37.2565 106.446 36.6837 106.446 35.8396V31.5287C106.446 30.7147 106.293 30.1419 105.925 29.8103C105.587 29.4787 104.912 29.2979 103.93 29.2979H85.4576C85.4576 29.2979 85.212 29.3581 85.12 29.4787C85.0279 29.5993 84.9666 29.6898 84.9666 29.8103V32.1618C84.9666 32.1618 85.0279 32.3728 85.12 32.4632C85.2427 32.5537 85.3348 32.5838 85.4576 32.5838H101.843C102.089 32.5838 102.242 32.5838 102.273 32.6742C102.334 32.7345 102.334 32.8853 102.334 33.1566V34.4227C102.334 34.6338 102.334 34.7845 102.273 34.8448C102.212 34.9051 102.089 34.9352 101.874 34.9352H87.4521C86.5008 34.9352 85.8564 35.1161 85.5189 35.4477C85.1814 35.7793 84.9972 36.322 84.9972 37.1058V41.4468C84.9972 42.2005 85.1814 42.7733 85.5189 43.135C85.8871 43.4968 86.5316 43.6777 87.4828 43.6777H106.876C106.876 43.6777 107.091 43.6174 107.183 43.5269C107.305 43.4365 107.336 43.3159 107.336 43.1953V40.9042C107.336 40.9042 107.275 40.663 107.183 40.5424C107.06 40.452 106.937 40.3917 106.845 40.3917" fill="white"/>
<path d="M92.361 22.3946C92.361 22.6056 92.361 22.7262 92.2689 22.7865C92.2075 22.8468 92.0848 22.8468 91.87 22.8468H84.9351C84.751 22.8468 84.5976 22.8468 84.5669 22.7865C84.5055 22.7262 84.4748 22.6056 84.4748 22.3946V14.5867C84.4748 14.3756 84.4748 14.2852 84.5669 14.2249C84.6282 14.1646 84.751 14.1345 84.9351 14.1345H91.87C92.0541 14.1345 92.2075 14.1646 92.2689 14.2249C92.3303 14.2852 92.361 14.4058 92.361 14.5867V22.3644V22.3946ZM95.8897 25.5901C96.258 25.2283 96.4421 24.5952 96.4421 23.6607V13.2904C96.4421 12.386 96.258 11.7529 95.8897 11.361C95.5215 10.9992 94.8464 10.8184 93.9258 10.8184H82.9098C81.9893 10.8184 81.3143 10.9992 80.946 11.361C80.5778 11.7227 80.3936 12.3558 80.3936 13.2602V23.6607C80.3936 24.5651 80.6085 25.1982 81.0074 25.5901C81.4063 25.9518 82.0507 26.1629 82.9098 26.1629H93.9258C94.8464 26.1629 95.4908 25.982 95.8897 25.5901Z" fill="white"/>
<path d="M140.046 40.3621H122.739C122.525 40.3621 122.402 40.3621 122.341 40.3018C122.279 40.2716 122.279 40.151 122.279 39.94V38.493C122.279 38.3121 122.279 38.1915 122.341 38.1312C122.402 38.0709 122.525 38.0408 122.709 38.0408H137.131C138.144 38.0408 138.788 37.8901 139.125 37.5886C139.463 37.2871 139.616 36.7144 139.616 35.8703V31.6196C139.616 30.8057 139.463 30.2329 139.125 29.9013C138.788 29.5697 138.144 29.4189 137.131 29.4189H118.597C118.597 29.4189 118.352 29.4792 118.259 29.5697C118.137 29.6903 118.106 29.8108 118.106 29.9013V32.2828C118.106 32.2828 118.167 32.4939 118.259 32.5843C118.382 32.6748 118.474 32.7049 118.597 32.7049H135.075C135.29 32.7049 135.412 32.735 135.474 32.7953C135.535 32.8556 135.535 33.0064 135.535 33.2777V34.5137C135.535 34.7247 135.535 34.8754 135.474 34.9357C135.412 34.996 135.29 35.0262 135.106 35.0262H120.561C119.61 35.0262 118.965 35.207 118.658 35.5387C118.321 35.8703 118.167 36.4129 118.167 37.1967V41.5076C118.167 42.2613 118.321 42.8341 118.658 43.1958C118.996 43.5576 119.64 43.7385 120.591 43.7385H140.077C140.077 43.7385 140.291 43.6782 140.384 43.5877C140.506 43.4973 140.537 43.3767 140.537 43.2561V40.965C140.537 40.965 140.476 40.7238 140.384 40.6032C140.261 40.5128 140.138 40.4525 140.046 40.4525" fill="white"/>
<path d="M144.556 16.9688H139.585V10.1557C139.585 9.85422 139.432 9.67334 139.094 9.67334H135.842C135.535 9.67334 135.382 9.82407 135.382 10.1557V27.1884C135.382 27.1884 135.443 27.4597 135.535 27.5501C135.627 27.6406 135.75 27.7009 135.873 27.7009H139.125C139.125 27.7009 139.371 27.6406 139.463 27.5501C139.555 27.4295 139.616 27.309 139.616 27.2185V20.4054H144.587C144.587 20.4054 144.833 20.3452 144.925 20.2547C145.047 20.1341 145.078 20.0437 145.078 19.9231V17.421C145.078 17.421 145.017 17.2099 144.925 17.1195C144.802 17.0291 144.679 16.9989 144.587 16.9989" fill="white"/>
<path d="M117.8 18.5957C117.8 17.9626 117.923 17.3597 118.138 16.7869C118.353 16.2142 118.659 15.7318 119.089 15.3098C119.519 14.8877 120.01 14.5561 120.593 14.3149C121.176 14.0738 121.82 13.9532 122.526 13.9532C123.231 13.9532 123.907 14.0738 124.49 14.3149C125.073 14.5561 125.564 14.8877 125.993 15.3098C126.423 15.7318 126.73 16.2142 126.944 16.7869C127.159 17.3597 127.282 17.9626 127.282 18.5957C127.282 19.2288 127.159 19.8016 126.944 20.3442C126.73 20.8868 126.423 21.3692 125.993 21.7912C125.594 22.2133 125.073 22.5449 124.49 22.7861C123.907 23.0272 123.262 23.178 122.526 23.178C121.789 23.178 121.176 23.0574 120.593 22.7861C120.01 22.5449 119.519 22.2133 119.089 21.7912C118.659 21.3692 118.353 20.8868 118.138 20.3442C117.923 19.8016 117.8 19.1986 117.8 18.5957ZM122.526 26.5242C123.845 26.5242 125.042 26.3132 126.116 25.8911C127.19 25.4691 128.11 24.8963 128.878 24.1426C129.645 23.4191 130.228 22.575 130.627 21.6104C131.056 20.6457 131.24 19.6508 131.24 18.5957C131.24 17.5406 131.026 16.4855 130.627 15.5208C130.197 14.5561 129.645 13.712 128.878 12.9885C128.141 12.265 127.221 11.6922 126.116 11.24C125.042 10.818 123.845 10.6069 122.526 10.6069C121.206 10.6069 120.01 10.818 118.936 11.24C117.862 11.6621 116.941 12.265 116.205 12.9885C115.437 13.712 114.854 14.5561 114.455 15.5208C114.057 16.4855 113.842 17.5104 113.842 18.5957C113.842 19.681 114.057 20.6457 114.455 21.6104C114.854 22.575 115.468 23.4191 116.205 24.1426C116.941 24.8662 117.862 25.4389 118.936 25.8911C120.01 26.3132 121.206 26.5242 122.526 26.5242Z" fill="white"/>
<path d="M171.253 32.1626H151.062C151.062 32.1626 150.847 32.1927 150.724 32.2832C150.602 32.3435 150.571 32.4641 150.571 32.6148V35.1772C150.571 35.1772 150.632 35.4184 150.724 35.5088C150.847 35.5993 150.939 35.6596 151.062 35.6596H168.767C169.043 35.6596 169.228 35.6897 169.32 35.75C169.412 35.8103 169.473 35.9912 169.473 36.2022V43.3168C169.473 43.3168 169.534 43.5579 169.627 43.6484C169.749 43.7388 169.872 43.7991 169.995 43.7991H173.125C173.125 43.7991 173.37 43.7388 173.462 43.6484C173.585 43.5278 173.616 43.4373 173.616 43.3168V34.6647C173.616 33.7604 173.462 33.1273 173.094 32.7354C172.756 32.3736 172.112 32.1626 171.191 32.1626" fill="white"/>
<path d="M156.277 19.621C155.817 19.621 155.571 19.41 155.571 19.018V16.6968H169.288V19.018C169.288 19.4401 169.042 19.621 168.613 19.621H156.277ZM178.34 26.3135H164.593V22.9069H170.761C171.835 22.9069 172.571 22.6959 172.939 22.304C173.338 21.882 173.522 21.279 173.522 20.4651V10.5771C173.522 10.5771 173.461 10.3359 173.369 10.2455C173.277 10.155 173.154 10.0947 173.031 10.0947H169.779C169.779 10.0947 169.533 10.155 169.441 10.2455C169.349 10.3359 169.288 10.4565 169.288 10.5771V13.441H155.571V10.6072C155.571 10.6072 155.51 10.3962 155.418 10.3058C155.326 10.2153 155.172 10.1852 155.08 10.1852H151.858C151.858 10.1852 151.613 10.2153 151.521 10.3058C151.429 10.3962 151.367 10.4866 151.367 10.6072V20.3746C151.367 21.3393 151.582 22.0025 151.95 22.3643C152.349 22.7261 153.086 22.9069 154.16 22.9069H160.328V26.3135H146.519C146.182 26.3135 146.028 26.4943 146.028 26.826V29.1774C146.028 29.1774 146.09 29.4487 146.182 29.5693C146.274 29.6899 146.396 29.7502 146.55 29.7502H178.309C178.309 29.7502 178.555 29.6899 178.677 29.5391C178.8 29.4185 178.861 29.298 178.861 29.1774V26.826C178.861 26.826 178.8 26.5848 178.677 26.4943C178.555 26.3738 178.432 26.3436 178.309 26.3436" fill="white"/>
<path d="M202.46 30.9549C201.938 30.5932 201.386 30.141 200.742 29.5682C200.097 28.9954 199.453 28.3925 198.809 27.7594C198.164 27.1263 197.52 26.4631 196.906 25.7697C196.292 25.0764 195.771 24.4433 195.31 23.8102C196.139 22.5139 196.845 21.2176 197.397 19.9515C197.98 18.6854 198.44 17.3891 198.778 16.1229C198.839 15.8516 198.901 15.5501 198.962 15.2487C198.993 14.9171 199.023 14.6156 199.023 14.3141C199.023 13.7414 198.747 13.259 198.226 12.9274C197.673 12.5656 196.937 12.3848 195.985 12.3848H184.08C183.742 12.3848 183.558 12.5656 183.558 12.8973V15.309C183.558 15.309 183.589 15.5803 183.681 15.6707C183.773 15.7913 183.895 15.8215 184.018 15.8215H193.439C193.838 15.8215 194.083 15.8817 194.175 16.0023C194.236 16.1229 194.236 16.3942 194.144 16.7861C193.807 18.0824 193.254 19.439 192.457 20.8257C191.69 22.2125 190.738 23.5992 189.634 24.9257C188.529 26.2521 187.271 27.5484 185.89 28.7542C184.509 29.9601 183.036 31.0454 181.502 31.9799C181.349 32.0703 181.195 32.2211 181.072 32.4019C180.95 32.5828 180.98 32.7938 181.165 33.0049L182.576 34.8739C182.699 35.0548 182.883 35.1754 183.098 35.2056C183.312 35.2056 183.527 35.2056 183.711 35.0548C185.552 33.9093 187.24 32.6431 188.774 31.2564C190.309 29.8697 191.69 28.4226 192.948 26.9153C193.439 27.5484 193.991 28.2116 194.574 28.8748C195.188 29.5682 195.801 30.2314 196.446 30.8645C197.09 31.4976 197.704 32.0703 198.287 32.5527C198.87 33.0652 199.392 33.4872 199.852 33.7585C200.343 34.0299 200.742 34.0299 201.079 33.6982L202.644 31.9498C202.798 31.7689 202.828 31.5578 202.767 31.377C202.705 31.1961 202.583 31.0152 202.429 30.9248" fill="white"/>
<path d="M209.303 9.70349H206.08C206.08 9.70349 205.835 9.76378 205.743 9.85422C205.65 9.94466 205.589 10.0652 205.589 10.1858V43.2865C205.589 43.2865 205.65 43.5277 205.743 43.6181C205.865 43.7086 205.957 43.7387 206.08 43.7387H209.303C209.64 43.7387 209.824 43.588 209.824 43.2865V10.1557C209.824 9.85422 209.671 9.67334 209.303 9.67334" fill="white"/>
<path d="M245.173 9.70349H242.043C241.705 9.70349 241.521 9.85422 241.521 10.1858V22.7267H238.483V10.8189C238.483 10.8189 238.422 10.6079 238.299 10.4873C238.177 10.3969 238.084 10.3366 237.962 10.3366H235.016C235.016 10.3366 234.74 10.3969 234.648 10.4873C234.525 10.5777 234.494 10.6983 234.494 10.8189V41.9299C234.494 41.9299 234.556 42.2013 234.648 42.2917C234.74 42.3821 234.893 42.4424 235.016 42.4424H237.962C237.962 42.4424 238.207 42.3821 238.299 42.2917C238.422 42.2013 238.483 42.0807 238.483 41.9299V26.1935H241.521V43.2865C241.521 43.588 241.675 43.7387 241.981 43.7387H245.173C245.48 43.7387 245.633 43.588 245.633 43.2865V10.1557C245.633 9.85422 245.48 9.67334 245.173 9.67334" fill="white"/>
<path d="M232.808 30.7443C232.378 30.473 231.949 30.0509 231.427 29.5686C230.936 29.0561 230.415 28.5135 229.862 27.8804C229.341 27.2473 228.819 26.6142 228.328 25.951C227.837 25.2878 227.407 24.6246 227.039 24.0217C227.714 22.7254 228.297 21.4291 228.788 20.1026C229.279 18.7762 229.647 17.4196 229.924 16.0329C229.954 15.8218 230.016 15.5807 230.016 15.2792C230.016 15.0079 230.016 14.7667 230.016 14.5557C230.016 13.9226 229.801 13.4403 229.341 13.1087C228.88 12.7771 228.144 12.5962 227.07 12.5962H217.097C216.79 12.5962 216.637 12.7771 216.637 13.1388V15.4299C216.637 15.4299 216.668 15.7013 216.76 15.8219C216.852 15.9424 216.913 15.9726 217.066 15.9726H224.983C225.29 15.9726 225.474 16.0329 225.536 16.1836C225.597 16.3042 225.597 16.5454 225.536 16.877C225.29 18.113 224.861 19.4394 224.247 20.8261C223.633 22.2129 222.866 23.5996 221.945 24.9562C221.025 26.3429 219.951 27.6392 218.724 28.9054C217.496 30.1715 216.146 31.3171 214.704 32.3119C214.52 32.4325 214.397 32.5832 214.366 32.7943C214.366 33.0053 214.366 33.1862 214.52 33.367L216.023 35.0854C216.177 35.2361 216.361 35.3265 216.575 35.3265C216.79 35.3265 216.974 35.2663 217.128 35.1457C220.227 32.9148 222.805 30.3524 224.922 27.3981C225.321 28.0311 225.75 28.6341 226.211 29.2671C226.671 29.9002 227.162 30.473 227.622 31.0156C228.113 31.5583 228.573 32.0707 229.034 32.4928C229.494 32.945 229.893 33.2766 230.261 33.5479C230.752 33.9398 231.151 33.9097 231.519 33.5178L232.9 31.8296C233.054 31.6487 233.176 31.4377 233.176 31.2869C233.176 31.1061 233.054 30.9252 232.808 30.7142" fill="white"/>
<path d="M282.18 20.796C282.18 20.796 281.965 20.6754 281.842 20.6754H276.871V10.1543C276.871 9.85288 276.718 9.70215 276.411 9.70215H273.158C272.852 9.70215 272.698 9.85288 272.698 10.1543V33.3972C272.698 33.6987 272.852 33.8494 273.158 33.8494H276.411C276.718 33.8494 276.871 33.6987 276.871 33.3972V24.1121H281.842C281.842 24.1121 282.088 24.082 282.18 23.9915C282.272 23.9011 282.333 23.8106 282.333 23.6901V21.1276C282.333 21.1276 282.272 20.9166 282.18 20.8262" fill="white"/>
<path d="M277.792 39.6994H260.547C260.301 39.6994 260.148 39.6692 260.025 39.6089C259.933 39.5486 259.871 39.3677 259.871 39.1266V32.9466C259.871 32.9466 259.81 32.6753 259.718 32.5848C259.595 32.4944 259.473 32.4341 259.319 32.4341H256.189C256.189 32.4341 255.944 32.4944 255.852 32.615C255.76 32.7355 255.698 32.8561 255.698 32.9767V40.6037C255.698 41.5383 255.882 42.2015 256.251 42.5934C256.619 42.9853 257.355 43.1662 258.46 43.1662H277.761C277.761 43.1662 278.006 43.136 278.099 43.0757C278.221 43.0155 278.252 42.8949 278.252 42.7441V40.2118C278.252 40.2118 278.191 40.0008 278.099 39.8802C277.976 39.7898 277.853 39.7295 277.761 39.7295" fill="white"/>
<path d="M258.43 28.575C259.903 28.5147 261.345 28.4544 262.818 28.3338C264.291 28.2132 265.671 28.0625 266.991 27.8816C268.31 27.7007 269.415 27.4897 270.305 27.2184C270.428 27.1581 270.55 27.0978 270.673 27.0074C270.796 26.9169 270.857 26.736 270.796 26.4949L270.397 24.4751C270.336 24.1435 270.09 24.0229 269.661 24.0832C268.679 24.264 267.605 24.4449 266.438 24.5957C265.303 24.7464 264.168 24.867 263.032 24.9273C261.897 25.0177 260.823 25.078 259.78 25.1081C258.737 25.1383 257.847 25.1081 257.049 25.1081C256.589 25.1081 256.282 25.0177 256.159 24.8971C256.036 24.7765 255.944 24.5354 255.944 24.1435V15.8532C255.944 15.4613 256.159 15.2503 256.589 15.2503H267.022C267.359 15.2503 267.543 15.0996 267.543 14.7981V12.2959C267.543 11.9945 267.39 11.8438 267.022 11.8438H254.164C253.244 11.8438 252.599 12.0246 252.231 12.3562C251.894 12.6878 251.71 13.2908 251.71 14.1047V26.2236C251.71 27.0677 251.955 27.6404 252.415 28.0022C252.876 28.364 253.52 28.575 254.318 28.6051C255.515 28.6654 256.834 28.6654 258.307 28.6051" fill="white"/>
<path d="M35.6839 5.63357C31.9096 10.4268 31.8482 16.0341 35.285 18.6267C38.7217 21.2192 44.3371 19.8325 48.1114 15.0392C51.8857 10.246 52.1619 4.63874 48.7252 2.04615C45.2884 -0.546434 39.4582 0.840298 35.6839 5.63357Z" fill="white"/>
<path d="M50.0149 2.64927C55.6917 8.22635 57.1953 21.8224 49.4933 32.7052C40.6559 45.1858 27.2464 51.0643 19.5444 45.8189C11.8731 40.5734 13.6221 26.1936 22.4902 13.6828C27.0623 7.23152 34.1199 2.0162 42.7425 0.659614C36.5441 0.418443 28.5966 1.53386 24.0859 3.31249C6.56459 10.1557 -3.46955 25.9826 1.68558 38.6742C6.81002 51.3658 25.3747 56.6113 42.6812 49.2857C58.9444 42.4425 68.4874 28.1531 63.854 15.1299C62.1049 10.1859 56.0599 4.51835 50.0149 2.64927Z" fill="white"/>
</svg>
