<?xml version="1.0" encoding="utf-8"?>
<!-- Generator: Adobe Illustrator 24.2.1, SVG Export Plug-In . SVG Version: 6.00 Build 0)  -->
<svg version="1.1" id="Layer_1" xmlns="http://www.w3.org/2000/svg" xmlns:xlink="http://www.w3.org/1999/xlink" x="0px" y="0px"
	 viewBox="0 0 124 24" style="enable-background:new 0 0 124 24;" xml:space="preserve">
<style type="text/css">
	.st0{fill:#C4C4C4;}
</style>
<path class="st0" d="M59.4,14.2c-2.6,0-4.5-0.5-5.7-1.4c-1.2,1-3.1,1.4-5.7,1.4L47.7,12c1,0,1.7-0.1,2.3-0.2
	c0.6-0.1,1.1-0.4,1.4-0.7h-3.6V8.9h4.1V7.8h3.6v1.1h4.1V11H56c0.4,0.4,0.8,0.6,1.5,0.7c0.6,0.1,1.4,0.2,2.3,0.2L59.4,14.2z"/>
<path class="st0" d="M60.9,8.5l-0.7-2.4c1.4-0.1,2.4-0.5,3.3-1.3c0.8-0.7,1.3-2,1.3-3.7H68c0.1,1.7,0.5,3,1.3,3.7
	c0.8,0.7,1.9,1.2,3.3,1.3l-0.7,2.4c-2.5-0.2-4.3-1-5.5-2.5C65.2,7.5,63.3,8.3,60.9,8.5z"/>
<path class="st0" d="M89.5,9.6v2H98v2.6H86.2V9.6H89.5z"/>
<path class="st0" d="M107.4,3.8v3.2h3.1l0.2-5.8H98.9v2.6H107.4z M106.4,11v3.2h-3.2V11h-4.6V8.4H111V11L106.4,11L106.4,11z"/>
<path class="st0" d="M115.1,12v0.5h8.7v1.7h-11.9v-3.9h8.5V9.8h-8.5V8.1h11.7V12H115.1z M111.9,1.2h11.7v1.7h-8.5v0.6h8.5v1.7h-11.7
	V1.2z M111.6,5.7H124v1.9h-12.4V5.7z"/>
<path class="st0" d="M98.1,1.8c0,1-0.8,1.8-1.8,1.8c-1,0-1.8-0.8-1.8-1.8c0-1,0.8-1.8,1.8-1.8C97.3,0,98.1,0.8,98.1,1.8z"/>
<path class="st0" d="M68.2,9.4c0,1-0.8,1.8-1.8,1.8c-1,0-1.8-0.8-1.8-1.8c0-1,0.8-1.8,1.8-1.8C67.4,7.6,68.2,8.4,68.2,9.4z"/>
<path class="st0" d="M96.3,4.4c-0.6,0-1.2-0.2-1.6-0.6v5.8h3.2V3.9C97.5,4.2,96.9,4.4,96.3,4.4z"/>
<path class="st0" d="M80.5,8.7h-4.1v2.4h4.4v2.6h-7.7V6.1h4.1V3.8h-4.1V1.2h7.3V8.7z"/>
<path class="st0" d="M82,5.3v8.8h3.2V8.8C85.1,6.4,84.3,5.5,82,5.3z"/>
<path class="st0" d="M85.2,1.1H82v3.5C84.3,4.4,85.1,3.5,85.2,1.1z"/>
<path class="st0" d="M68.4,11.1c-0.5,0.6-1.2,0.9-2,0.9s-1.5-0.4-2-0.9h-4.2v2.6h12.4v-2.6H68.4z"/>
<path class="st0" d="M91.6,4.4h2.1V1.8h-2.3v-1h-3.3v1H86c0.2,2,1.2,2.7,3.4,2.8v0.8c-2,0.1-3,0.6-3.3,2.1c0,0.2-0.1,0.6,0,1
	c0,0.2,0.1,0.3,0.1,0.3c0.7,0,1.3-0.1,1.9-0.4c0.6-0.3,1.2-0.6,1.7-1.1c0.5,0.5,1,0.9,1.6,1.1c0.6,0.3,1.3,0.4,1.9,0.4l0.5-2.6
	C92.7,6.2,91.9,5.6,91.6,4.4z"/>
<path class="st0" d="M59.6,1.1h-3.2V8h3.2V1.1z"/>
<path class="st0" d="M52,4.2h-1.2v1H52V4.2z M55.2,1.2v5.9h-7.7V1.2h3.3v0.9H52V1.2H55.2z"/>
<path class="st0" d="M4.5,15H1.8v-0.7h2.7C8.6,14.2,9.8,13,10,9V1H0V22h10v-1.5C9.8,16.4,8.6,15.2,4.5,15z"/>
<path class="st0" d="M23.3,10.6h-2.7V9.9h2.7c3.9,0,5.5-1.5,5.5-5.3v-1c-2.7-0.5-5.3-0.7-7.9-0.7c-7.7,0-10.2,1.8-10.3,6.7
	c0,3.3,1.6,4.7,5.5,4.8h2.7V15h-2.7c-4.1,0.2-5.3,1.4-5.5,5.5v1.3c3.2,0.5,6,0.7,8.3,0.7c7.8,0,9.8-1.6,9.8-6.5v-0.1
	C28.8,12,27.1,10.6,23.3,10.6z"/>
<path class="st0" d="M38.9,9.7c0-0.8,0.7-1.5,1.7-1.5c0.8,0,1.6,0,2.7,0.1V1c-1.7-0.2-3-0.4-4.8-0.4c-6.4,0-8.9,1.6-8.9,3.9
	c0,4,1.4,5.3,5.5,5.5h2v0.7h-2c-4.1,0.2-5.3,1.4-5.5,5.5v5.8H39v-5.4h4.3v-6h-4.4V9.7z"/>
<path class="st0" d="M47.8,17.2V22h3.8v-1.2h-2.4v-3.6H47.8z"/>
<path class="st0" d="M56.5,19.4c-0.1-0.2-0.3-0.3-0.6-0.3c-0.3,0-0.5,0.1-0.6,0.3c0,0.1,0,0.3,0,0.4c0,0.2,0.2,0.3,0.6,0.3
	c0.4,0,0.5-0.1,0.6-0.3C56.5,19.7,56.5,19.5,56.5,19.4z M56.4,21.8c-0.5,0-1,0-1.2,0c-0.1,0-0.2,0.1-0.2,0.2c0,0.2,0.3,0.3,1,0.3
	c0.7,0,0.9-0.1,0.9-0.3C56.9,21.8,56.8,21.8,56.4,21.8z M57.6,19.2c0.1,0.1,0.1,0.3,0.1,0.4c0,0.8-0.6,1.2-1.7,1.2
	c-0.3,0-0.6,0-0.8-0.1c-0.1,0-0.2,0.1-0.2,0.1c0,0.2,0.3,0.2,1,0.2c1.6,0,2.1,0.2,2.1,0.9c0,0.8-0.7,1.1-2.1,1.1c-1.6,0-2-0.4-2-1
	c0-0.3,0.2-0.5,0.6-0.6c-0.3-0.1-0.4-0.3-0.4-0.5c0-0.2,0.2-0.4,0.5-0.5c-0.3-0.2-0.5-0.4-0.5-0.8c0-0.1,0-0.2,0-0.3
	c0-0.6,0.7-1.1,1.8-1.1c0.6,0,1,0.1,1.3,0.3c0.2-0.2,0.7-0.3,1-0.3v0.9C58.2,19.3,57.6,19.2,57.6,19.2z"/>
<path class="st0" d="M61.3,22c0,0,0-0.7,0-2.1c0-0.3-0.3-0.5-0.6-0.5c-0.4,0-0.7,0.3-0.7,0.6v2h-1.3v-4.8h1.3v1.6
	c0.3-0.4,0.9-0.5,1.3-0.5c0.8,0,1.4,0.4,1.4,1.2c0,1.7,0,2.5,0,2.5H61.3z"/>
<path class="st0" d="M64.9,19.3v1.4c0,0.3,0.2,0.4,0.4,0.4c0.1,0,0.4,0,0.5,0v0.9C65.6,22,65.3,22,64.9,22c-0.7,0-1.3-0.3-1.3-1.1
	v-1.7H63v-1h0.6v-0.8h1.3v0.8h1v1H64.9z"/>
<path class="st0" d="M70.7,22c-1.6,0-2.3-0.5-2.4-1.7h1.4c0.1,0.5,0.5,0.6,1,0.6c0.6,0,0.8-0.1,0.8-0.4c0-0.3-0.2-0.4-1.4-0.6
	c-1.3-0.2-1.8-0.7-1.8-1.5c0-0.8,0.7-1.3,2.2-1.3c1.5,0,2.2,0.6,2.3,1.7h-1.4c-0.1-0.4-0.3-0.6-0.9-0.6c-0.6,0-0.8,0.2-0.8,0.4
	c0,0.2,0.2,0.4,1.3,0.6c1.5,0.2,1.9,0.6,1.9,1.5C73.1,21.6,72.2,22,70.7,22z"/>
<path class="st0" d="M76.5,19.6c-0.1-0.2-0.4-0.4-0.8-0.4c-0.4,0-0.7,0.1-0.8,0.4c-0.1,0.2-0.1,0.3-0.1,0.5c0,0.2,0,0.4,0.1,0.5
	c0.1,0.2,0.4,0.4,0.8,0.4c0.4,0,0.7-0.2,0.8-0.4c0-0.1,0.1-0.3,0.1-0.5C76.5,19.9,76.5,19.8,76.5,19.6z M77.8,20.6
	c-0.1,0.9-0.9,1.4-2.1,1.4c-1.2,0-2.1-0.5-2.1-1.4c0-0.2,0-0.3,0-0.4c0-0.2,0-0.3,0-0.4c0.1-1,1-1.4,2.1-1.4c1.2,0,2,0.5,2.1,1.4
	c0,0.1,0,0.3,0,0.4C77.8,20.3,77.8,20.5,77.8,20.6z"/>
<path class="st0" d="M81.2,22l-0.1-0.4c-0.3,0.4-0.7,0.5-1.3,0.5c-0.8,0-1.3-0.4-1.3-1.2v-2.5h1.3c0,0,0,1.6,0,2.1
	c0,0.4,0.2,0.6,0.6,0.6c0.5,0,0.7-0.3,0.7-0.6v-2h1.3c0,0,0,1.9,0,2.9c0,0.3,0,0.7,0.1,0.7H81.2z"/>
<path class="st0" d="M85.9,22c0,0,0-1,0-2.1c0-0.3-0.2-0.6-0.6-0.6c-0.4,0-0.7,0.2-0.7,0.6V22h-1.3v-3.6h1.3v0.4
	c0.2-0.3,0.6-0.5,1.3-0.5c0.9,0,1.4,0.5,1.4,1.2c0,1.5,0,2.4,0.1,2.5H85.9z"/>
<path class="st0" d="M90.7,19.7c0-0.3-0.3-0.4-0.8-0.4c-0.5,0-0.7,0.2-0.7,0.5c0,0.1,0,0.3,0,0.4c0,0.1,0,0.3,0,0.4
	c0,0.3,0.3,0.5,0.8,0.5c0.5,0,0.7-0.2,0.8-0.5c0-0.1,0-0.2,0-0.4C90.7,20,90.7,19.8,90.7,19.7z M90.8,22l-0.1-0.3
	c-0.3,0.2-0.8,0.4-1.2,0.4c-1,0-1.6-0.4-1.7-1.2c0-0.2,0-0.5,0-0.7c0-0.2,0-0.5,0-0.7c0.1-0.8,0.7-1.2,1.7-1.2
	c0.6,0,0.9,0.2,1.1,0.4v-1.5H92v4.3C92,21.6,92,22,92,22H90.8z"/>
<path class="st0" d="M95,17.2V22h1.4v-1.9h2.3v-1h-2.3v-0.8h2.5v-1.1H95z"/>
<path class="st0" d="M102,20.1c0,0,0-0.3,0-0.4c0-0.3-0.2-0.4-0.5-0.4c-0.4,0-0.7,0.2-0.7,0.6v2h-1.3v-3.6h1.3v0.4
	c0.3-0.3,0.7-0.5,1.2-0.5c0.9,0,1.3,0.4,1.3,1.1c0,0.2,0,0.7,0,0.7L102,20.1L102,20.1z"/>
<path class="st0" d="M108.7,19.6c-0.1-0.2-0.3-0.3-0.7-0.3c-0.4,0-0.6,0.2-0.7,0.3c0,0.1-0.1,0.2-0.1,0.2h1.5
	C108.8,19.7,108.8,19.6,108.7,19.6z M107.2,20.3c0,0.1,0,0.3,0,0.3c0.1,0.2,0.3,0.4,0.8,0.4c0.5,0,0.6-0.2,0.7-0.3c0,0,0-0.1,0-0.1
	h1.2c0,0.1,0,0.2,0,0.2c-0.2,0.8-0.9,1.2-2,1.2c-1.2,0-1.9-0.5-2-1.4c0-0.1,0-0.3,0-0.5c0-0.2,0-0.4,0-0.5c0.1-0.8,0.8-1.4,2-1.4
	c1.2,0,1.9,0.6,2,1.5c0,0.1,0,0.5,0,0.6L107.2,20.3L107.2,20.3z"/>
<path class="st0" d="M113.4,22c0,0,0-1,0-2.1c0-0.3-0.2-0.6-0.6-0.6c-0.4,0-0.7,0.2-0.7,0.6V22h-1.3v-3.6h1.3v0.4
	c0.2-0.3,0.6-0.5,1.3-0.5c0.9,0,1.4,0.5,1.4,1.2c0,1.5,0,2.4,0.1,2.5H113.4z"/>
<path class="st0" d="M118.1,19.7c0-0.3-0.3-0.4-0.8-0.4c-0.5,0-0.7,0.2-0.7,0.5c0,0.1,0,0.3,0,0.4c0,0.1,0,0.3,0,0.4
	c0,0.3,0.3,0.5,0.8,0.5c0.5,0,0.7-0.2,0.8-0.5c0-0.1,0-0.2,0-0.4C118.1,20,118.1,19.8,118.1,19.7z M118.2,22l-0.1-0.3
	c-0.3,0.2-0.8,0.4-1.2,0.4c-1,0-1.6-0.4-1.7-1.2c0-0.2,0-0.5,0-0.7c0-0.2,0-0.5,0-0.7c0.1-0.8,0.7-1.2,1.7-1.2
	c0.6,0,0.9,0.2,1.1,0.4v-1.5h1.3v4.3c0,0.2,0,0.5,0,0.5H118.2z"/>
<path class="st0" d="M122,22c-1.2,0-1.9-0.3-1.9-1.3h1.3c0,0.1,0,0.1,0,0.2c0.1,0.2,0.2,0.2,0.6,0.2c0.4,0,0.7-0.1,0.7-0.2
	c0-0.2-0.2-0.3-0.7-0.3c-0.1,0-0.4-0.1-0.6-0.1c-0.9-0.1-1.3-0.4-1.3-1c0-0.7,0.6-1.1,1.8-1.1c1.2,0,1.9,0.4,1.9,1.4h-1.2
	c0,0,0-0.1,0-0.2c-0.1-0.2-0.2-0.2-0.6-0.2c-0.4,0-0.6,0.1-0.6,0.2c0,0.2,0.2,0.2,0.6,0.3c0.1,0,0.5,0.1,0.7,0.1
	c1,0.1,1.3,0.4,1.3,1C124,21.6,123.3,22,122,22z"/>
<path class="st0" d="M52.2,22c-0.1,0-0.1-0.2-0.1-0.5v-2.9h1.3v2.8c0,0.4,0,0.5,0.1,0.6H52.2z"/>
<path class="st0" d="M53.5,17.5c0,0.4-0.3,0.7-0.7,0.7c-0.4,0-0.7-0.3-0.7-0.7c0-0.4,0.3-0.7,0.7-0.7C53.2,16.8,53.5,17.1,53.5,17.5
	z"/>
<path class="st0" d="M104,22c-0.1,0-0.1-0.2-0.1-0.5v-2.9h1.3v2.8c0,0.4,0,0.5,0.1,0.6H104z"/>
<path class="st0" d="M105.3,17.5c0,0.4-0.3,0.7-0.7,0.7c-0.4,0-0.7-0.3-0.7-0.7c0-0.4,0.3-0.7,0.7-0.7
	C104.9,16.8,105.3,17.1,105.3,17.5z"/>
</svg>
