<svg width="331" height="180" viewBox="0 0 331 180" fill="none" xmlns="http://www.w3.org/2000/svg">
<path fill-rule="evenodd" clip-rule="evenodd" d="M2 0H329V180H2V0ZM133.56 2.40604H197.44L256.468 15.7409L301.633 40.3787L326.085 72.5772V107.426L301.633 139.624L256.468 164.271L197.44 177.605H133.56L74.5418 164.271L29.3666 139.624L4.925 107.426V72.5772L29.3666 40.3787L74.5418 15.7409L133.56 2.40604Z" fill="#EE87B4"/>
<path d="M111.44 99H132.56V96.504H123.464V92.304H120.536V96.504H111.44V99ZM118.376 86.112C116.912 87.576 114.68 88.248 113.216 88.248V90.504C115.376 90.504 118.4 89.76 120.56 87.6C121.136 87.024 121.616 86.4 122 85.704C122.384 86.4 122.84 87.024 123.44 87.6C125.6 89.76 128.624 90.504 130.784 90.504V88.248C129.32 88.248 127.088 87.576 125.624 86.112C124.376 84.84 123.68 82.656 123.512 81.048H120.488C120.32 82.656 119.648 84.84 118.376 86.112ZM152.864 90.216V80.088H149.936V90.216H152.864ZM152.864 101.112V93.816H136.256V95.736H149.936V101.112H152.864ZM139.424 82.056C139.424 83.256 138.872 85.08 137.672 86.28C136.976 86.976 135.584 87.48 134.192 87.744V90.048C136.4 89.784 138.824 89.16 140.048 87.936C140.384 87.6 140.648 87.264 140.888 86.904C141.104 87.264 141.392 87.6 141.704 87.936C142.496 88.728 143.768 89.232 145.184 89.592V87C144.728 86.784 144.344 86.544 144.08 86.28C142.952 85.128 142.4 83.448 142.352 82.248V80.568H139.424V82.056Z" fill="#EE87B4"/>
<path d="M198.48 95.1C198.747 94.4067 199.04 93.7667 199.36 93.18C199.68 92.5667 200.04 91.9933 200.44 91.46H179V88.18H200.44C200.067 87.6467 199.72 87.0867 199.4 86.5C199.08 85.8867 198.787 85.2333 198.52 84.54H201.56C203.213 86.4867 205.027 87.9667 207 88.98V90.7C205.027 91.66 203.213 93.1267 201.56 95.1H198.48Z" fill="#EE87B4"/>
<rect x="165.5" y="76" width="55" height="28" rx="14" stroke="#EE87B4"/>
</svg>
