<svg width="331" height="180" viewBox="0 0 331 180" fill="none" xmlns="http://www.w3.org/2000/svg">
<path fill-rule="evenodd" clip-rule="evenodd" d="M2 0H329V180H2V0ZM133.56 2.40604H197.44L256.468 15.7409L301.633 40.3787L326.085 72.5772V107.426L301.633 139.624L256.468 164.271L197.44 177.605H133.56L74.5418 164.271L29.3666 139.624L4.925 107.426V72.5772L29.3666 40.3787L74.5418 15.7409L133.56 2.40604Z" fill="#54C3F1"/>
<path d="M130.736 97.44C130.736 96.672 130.52 95.52 129.752 94.752C128.984 93.984 125.744 93.768 122 93.768C118.256 93.768 115.016 93.984 114.248 94.752C113.48 95.52 113.264 96.672 113.264 97.44C113.264 98.208 113.48 99.36 114.248 100.128C115.016 100.896 118.256 101.112 122 101.112C125.744 101.112 128.984 100.896 129.752 100.128C130.52 99.36 130.736 98.208 130.736 97.44ZM111.44 90.744H132.56V88.488H122.096V85.608H119.168V88.488H111.44V90.744ZM130.544 80.184H113.456V82.392H127.304C127.256 83.352 127.112 84.48 126.848 85.896H129.488C130.064 84.288 130.544 82.344 130.544 81.672V80.184ZM122 95.736C125.24 95.736 126.92 95.856 127.304 96.24C127.664 96.6 127.808 97.08 127.808 97.44C127.808 97.8 127.664 98.28 127.304 98.64C126.92 99.024 125.24 99.144 122 99.144C118.76 99.144 117.056 99.024 116.672 98.64C116.312 98.28 116.192 97.8 116.192 97.44C116.192 97.08 116.312 96.6 116.672 96.24C117.056 95.856 118.76 95.736 122 95.736ZM145.376 85.896C145.376 84.744 145.064 83.016 143.912 81.84C142.76 80.688 141.2 80.376 140.048 80.376C138.896 80.376 137.336 80.688 136.184 81.84C135.008 83.016 134.72 84.744 134.72 85.896C134.72 87.048 135.008 88.8 136.184 89.952C137.336 91.104 138.896 91.416 140.048 91.416C141.2 91.416 142.76 91.104 143.912 89.952C145.064 88.8 145.376 87.048 145.376 85.896ZM152.864 92.088V80.088H149.936V82.104H146.048V84.456H149.936V87.336H146.048V89.688H149.936V92.088H152.864ZM136.256 101.112H153.104V98.76H139.184V95.016H136.256V101.112ZM140.048 82.728C141.56 82.728 142.736 84.072 142.736 85.896C142.736 87.72 141.608 89.064 140.048 89.064C139.496 89.064 138.68 88.848 138.128 88.296C137.576 87.744 137.36 86.616 137.36 85.896C137.36 84.048 138.512 82.728 140.048 82.728Z" fill="#54C3F1"/>
<path d="M198.48 95.1C198.747 94.4067 199.04 93.7667 199.36 93.18C199.68 92.5667 200.04 91.9933 200.44 91.46H179V88.18H200.44C200.067 87.6467 199.72 87.0867 199.4 86.5C199.08 85.8867 198.787 85.2333 198.52 84.54H201.56C203.213 86.4867 205.027 87.9667 207 88.98V90.7C205.027 91.66 203.213 93.1267 201.56 95.1H198.48Z" fill="#54C3F1"/>
<rect x="165.5" y="76" width="55" height="28" rx="14" stroke="#54C3F1"/>
</svg>
