<svg width="331" height="180" viewBox="0 0 331 180" fill="none" xmlns="http://www.w3.org/2000/svg">
<path fill-rule="evenodd" clip-rule="evenodd" d="M2 0H329V180H2V0ZM133.56 2.40604H197.44L256.468 15.7409L301.633 40.3787L326.085 72.5772V107.426L301.633 139.624L256.468 164.271L197.44 177.605H133.56L74.5418 164.271L29.3666 139.624L4.925 107.426V72.5772L29.3666 40.3787L74.5418 15.7409L133.56 2.40604Z" fill="#30A34A"/>
<path d="M91.456 89.208H108.544V80.184H105.616V82.344H94.384V80.184H91.456V89.208ZM94.384 86.952V84.552H105.616V86.952H94.384ZM89.44 95.064H98.536V101.112H101.464V95.064H110.56V92.568H89.44V95.064ZM126.256 101.208V91.032H128.8V101.208H131.44V80.088H128.8V88.536H126.256V80.088H123.616V101.208H126.256ZM121.984 94.92C119.224 95.232 117.064 95.376 115.12 95.4V83.736H121.168V81.24H112.528V98.328H114.4C116.2 98.328 119.464 97.824 121.984 97.272V94.92ZM153.76 97.464C153.76 96.696 153.568 95.568 152.776 94.8C152.008 94.032 148.72 93.816 145.168 93.816C141.616 93.816 138.328 94.008 137.536 94.8C136.744 95.592 136.576 96.672 136.576 97.464C136.576 98.256 136.744 99.36 137.536 100.152C138.328 100.944 141.616 101.112 145.168 101.112C148.72 101.112 152.008 100.92 152.776 100.152C153.544 99.384 153.76 98.232 153.76 97.464ZM148.576 91.272V86.952H151.12V91.752H153.76V80.088H151.12V84.888H148.576V80.088H145.936V91.272H148.576ZM145.168 95.736C148.096 95.736 149.992 95.904 150.328 96.24C150.664 96.576 150.832 97.08 150.832 97.464C150.832 97.848 150.664 98.352 150.328 98.688C149.992 99.024 148.096 99.192 145.168 99.192C142.24 99.192 140.344 99.048 140.008 98.688C139.672 98.352 139.504 97.848 139.504 97.464C139.504 97.08 139.672 96.576 140.008 96.24C140.344 95.904 142.24 95.736 145.168 95.736ZM134.848 83.88H144.304V81.864H141.088V80.568H138.448V81.864H134.848V83.88ZM134.656 88.464C134.656 89.112 134.776 90.048 135.424 90.696C136.096 91.368 137.872 91.464 139.072 91.464C140.272 91.464 142.024 91.368 142.696 90.696C143.344 90.048 143.488 89.088 143.488 88.464C143.488 87.84 143.344 86.904 142.696 86.256C142.024 85.584 140.272 85.464 139.072 85.464C137.872 85.464 136.096 85.584 135.424 86.256C134.776 86.904 134.656 87.816 134.656 88.464ZM139.072 87C139.696 87 140.392 87.12 140.656 87.384C140.92 87.648 141.04 88.032 141.04 88.296C141.04 88.56 140.92 88.944 140.656 89.208C140.392 89.472 139.696 89.592 139.072 89.592C138.448 89.592 137.752 89.472 137.488 89.208C137.224 88.944 137.104 88.56 137.104 88.296C137.104 88.032 137.224 87.648 137.488 87.384C137.752 87.12 138.448 87 139.072 87ZM162.064 83.736C162.064 86.688 161.272 91.464 159.472 93.264C158.68 94.056 157.768 94.656 156.832 95.064V97.824C158.464 97.344 160.144 96.48 161.656 94.992C162.424 94.224 163.048 93.168 163.528 92.016C163.984 93.168 164.584 94.224 165.4 94.992C166.144 95.76 166.984 96.36 167.824 96.84V93.504L167.56 93.264C165.808 91.512 165.016 86.952 164.992 84V81.24H162.064V83.736ZM175.312 101.208V91.032H178.48V88.536H175.312V80.088H172.384V101.208H175.312Z" fill="#30A34A"/>
<path d="M220.48 95.1C220.747 94.4067 221.04 93.7667 221.36 93.18C221.68 92.5667 222.04 91.9933 222.44 91.46H201V88.18H222.44C222.067 87.6467 221.72 87.0867 221.4 86.5C221.08 85.8867 220.787 85.2333 220.52 84.54H223.56C225.213 86.4867 227.027 87.9667 229 88.98V90.7C227.027 91.66 225.213 93.1267 223.56 95.1H220.48Z" fill="#30A34A"/>
<rect x="187.5" y="76" width="55" height="28" rx="14" stroke="#30A34A"/>
</svg>
