<svg width="179" height="24" viewBox="0 0 179 24" fill="none" xmlns="http://www.w3.org/2000/svg">
<path d="M12.5974 1.22656L6.51296 9.48691V1.22656H0.361328V22.9654H6.51296V13.7715L12.8056 22.9654H20.6361L11.9997 11.3673L20.0451 1.22656H12.5974Z" fill="#30A34A"/>
<path d="M28.1575 1.22656H22.0059V22.9587H28.1575V1.22656Z" fill="#30A34A"/>
<path d="M61.891 18.2711C65.8533 18.2711 68.2576 16.1355 68.2576 12.0926C68.2576 8.04974 65.7996 5.91414 61.891 5.91414H60.6755V18.2711H61.891ZM54.6582 22.9587V1.22656H61.7769C70.0976 1.22656 74.2883 5.39032 74.2883 12.0053C74.2883 18.6203 69.876 22.9654 61.7769 22.9654H54.6582V22.9587Z" fill="#30A34A"/>
<path d="M41.3005 6.56557L43.5369 13.9193H38.8762L41.3005 6.56557ZM37.7009 1.22656L29.4473 22.9587H35.7265L37.2912 18.7143H45.1285L46.6127 22.9587H53.3486L44.974 1.22656H37.7009Z" fill="#30A34A"/>
<path d="M84.7302 6.56557L86.9666 13.9193H82.3059L84.7302 6.56557ZM81.1306 1.22656L72.877 22.9587H79.1562L80.721 18.7143H88.5582L90.0424 22.9587H96.7783L88.4038 1.22656H81.1306Z" fill="#30A34A"/>
<path d="M117.624 22.8044H100.029C100.029 18.6876 101.359 16.6796 106.349 13.3083C108.907 11.4951 109.069 11.3608 109.848 10.7161C110.66 10.0042 111.016 9.31921 111.016 8.47975C111.016 7.18361 110.042 6.27698 108.686 6.27698C106.678 6.27698 105.738 7.50596 105.738 10.0714V10.7161H100.197V9.6147C100.197 4.26898 103.535 0.964844 109.008 0.964844C113.837 0.964844 117.175 3.8526 117.175 8.02978C117.175 9.94377 116.496 11.5287 115.099 12.9524C114.32 13.7314 113.897 14.0538 110.788 16.0954C110.042 16.5789 109.754 16.8072 109.136 17.3915H117.624V22.8044Z" fill="#30A34A"/>
<path d="M125.401 12.0802C125.401 16.0694 126.731 18.3662 129.028 18.3662C131.325 18.3662 132.627 16.0627 132.627 12.1743C132.627 8.28585 131.331 5.82118 129.001 5.82118C126.67 5.82118 125.401 8.12467 125.401 12.0735M138.363 12.2347C138.363 18.5206 134.373 23.2216 129.001 23.2216C123.628 23.2216 119.666 18.5206 119.666 12.1071C119.666 5.69358 123.622 0.958984 129.001 0.958984C134.38 0.958984 138.363 5.62642 138.363 12.2347Z" fill="#30A34A"/>
<path d="M157.685 22.8044H140.09C140.09 18.6876 141.42 16.6796 146.409 13.3083C148.968 11.4951 149.129 11.3608 149.908 10.7161C150.721 10.0042 151.077 9.31921 151.077 8.47975C151.077 7.18361 150.103 6.27698 148.746 6.27698C146.738 6.27698 145.798 7.50596 145.798 10.0714V10.7161H140.258V9.6147C140.258 4.26898 143.595 0.964844 149.069 0.964844C153.897 0.964844 157.235 3.8526 157.235 8.02978C157.235 9.94377 156.557 11.5287 155.16 12.9524C154.381 13.7314 153.958 14.0538 150.848 16.0954C150.103 16.5789 149.814 16.8072 149.196 17.3915H157.685V22.8044Z" fill="#30A34A"/>
<path d="M178.63 22.8044H161.035C161.035 18.6876 162.365 16.6796 167.355 13.3083C169.913 11.4951 170.075 11.3608 170.854 10.7161C171.666 10.0042 172.022 9.31921 172.022 8.47975C172.022 7.18361 171.048 6.27698 169.692 6.27698C167.684 6.27698 166.744 7.50596 166.744 10.0714V10.7161H161.203V9.6147C161.203 4.26898 164.541 0.964844 170.014 0.964844C174.843 0.964844 178.18 3.8526 178.18 8.02978C178.18 9.94377 177.502 11.5287 176.105 12.9524C175.326 13.7314 174.903 14.0538 171.794 16.0954C171.048 16.5789 170.76 16.8072 170.142 17.3915H178.63V22.8044Z" fill="#30A34A"/>
</svg>
