<svg width="70" height="37" viewBox="0 0 70 37" fill="none" xmlns="http://www.w3.org/2000/svg">
<path d="M44.3743 1.68359H26.1997L10.4597 6.26281L1.375 14.1934V23.3519L10.4597 31.2825L26.1997 35.8617H44.3743L60.1144 31.2825L69.199 23.3519V14.1934L60.1144 6.26281L44.3743 1.68359Z" fill="#000036"/>
<path d="M44.3743 1.68359H26.1997L10.4597 6.26281L1.375 14.1934V23.3519L10.4597 31.2825L26.1997 35.8617H44.3743L60.1144 31.2825L69.199 23.3519V14.1934L60.1144 6.26281L44.3743 1.68359Z" stroke="#30A34A" stroke-width="1.6"/>
<path d="M14.3439 23.976V19.1364H15.5538V23.976H16.8093V13.9316H15.5538V17.9494H14.3439V13.9316H13.0884V23.976H14.3439ZM9.52718 15.6666C9.52718 17.0705 9.18476 19.2392 8.26022 20.1637C8.00912 20.4148 7.74659 20.6203 7.47266 20.7915V22.1726C8.06619 21.9329 8.6483 21.5676 9.19617 21.0197C9.60708 20.6088 9.91526 20.0496 10.155 19.4332C10.3832 20.0496 10.6914 20.6088 11.1137 21.0197C11.342 21.2594 11.5817 21.4535 11.8328 21.6247V19.924C11.0795 18.931 10.7941 17.0591 10.7827 15.7693V14.4795H9.52718V15.6666Z" fill="#30A34A"/>
<path d="M20.3248 22.6063C21.4891 22.6063 23.4523 22.3666 25.0959 22.1041V20.9855C23.2126 21.1339 21.9456 21.2024 20.6673 21.2138V18.8625H24.2969V14.4795H19.4117V15.6666H23.0414V17.6983H19.4117V22.6063H20.3248ZM27.8581 23.976V19.1364H29.3647V17.9494H27.8581V13.9316H26.4656V23.976H27.8581Z" fill="#30A34A"/>
<path d="M37.1719 23.976V19.1364H38.3818V23.976H39.6374V13.9316H38.3818V17.9494H37.1719V13.9316H35.9164V23.976H37.1719ZM32.3552 15.6666C32.3552 17.0705 32.0128 19.2392 31.0883 20.1637C30.8372 20.4148 30.5746 20.6203 30.3007 20.7915V22.1726C30.8942 21.9329 31.4763 21.5676 32.0242 21.0197C32.4351 20.6088 32.7433 20.0496 32.983 19.4332C33.2113 20.0496 33.5194 20.6088 33.9418 21.0197C34.17 21.2594 34.4097 21.4535 34.6608 21.6247V19.924C33.9075 18.931 33.6222 17.0591 33.6108 15.7693V14.4795H32.3552V15.6666Z" fill="#30A34A"/>
<path d="M50.7774 23.9303V20.4376H42.6507V21.3736H49.3849V23.9303H50.7774ZM50.7774 13.9773H42.6507V15.0274H49.2365C49.2137 15.4839 49.1452 16.0204 49.0197 16.6938H50.2752C50.5377 15.9519 50.7774 15.0959 50.7774 14.685V13.9773ZM41.6919 18.8168H51.7362V17.7439H41.6919V18.8168Z" fill="#30A34A"/>
<path d="M62.1915 22.1954C62.1915 21.8301 62.1001 21.2937 61.7235 20.9284C61.3582 20.5632 59.8858 20.4605 58.1966 20.4605C56.5073 20.4605 55.0349 20.5518 54.6582 20.9284C54.2815 21.3051 54.2016 21.8187 54.2016 22.1954C54.2016 22.5721 54.2815 23.0971 54.6582 23.4738C55.0349 23.8504 56.5073 23.9303 58.1966 23.9303C59.8858 23.9303 61.3582 23.839 61.7235 23.4738C62.0887 23.1085 62.1915 22.5606 62.1915 22.1954ZM59.338 15.21V14.1599H53.6538V15.21H55.7654C55.6855 15.7579 55.4344 16.4085 54.9664 16.8765C54.6354 17.2075 53.9734 17.4472 53.3114 17.5727V18.6685C54.3614 18.5429 55.5143 18.2461 56.0964 17.664C56.2562 17.5042 56.3817 17.3444 56.4959 17.1732C56.5986 17.3444 56.7356 17.5042 56.8839 17.664C57.2606 18.0407 57.8655 18.2804 58.539 18.4516V17.2189C58.3221 17.1162 58.1395 17.002 58.0139 16.8765C57.546 16.4085 57.2834 15.7579 57.2149 15.21H59.338ZM58.1966 21.3736C59.5891 21.3736 60.3995 21.4535 60.5593 21.6133C60.7191 21.7731 60.799 22.0128 60.799 22.1954C60.799 22.378 60.7191 22.6177 60.5593 22.7775C60.3995 22.9373 59.5891 23.0172 58.1966 23.0172C56.804 23.0172 55.9936 22.9487 55.8339 22.7775C55.6741 22.6177 55.5942 22.378 55.5942 22.1954C55.5942 22.0128 55.6741 21.7731 55.8339 21.6133C55.9936 21.4535 56.804 21.3736 58.1966 21.3736ZM62.1001 18.7484V16.9792H63.6068V15.9291H62.1001V13.9316H60.7076V18.7484H62.1001Z" fill="#30A34A"/>
</svg>
