<svg width="82" height="37" viewBox="0 0 82 37" fill="none" xmlns="http://www.w3.org/2000/svg">
<path d="M51.7732 1.15039H30.3128L11.7271 5.72961L1 13.6602V22.8187L11.7271 30.7493L30.3128 35.3285H51.7732L70.3589 30.7493L81.086 22.8187V13.6602L70.3589 5.72961L51.7732 1.15039Z" stroke="#30A34A" stroke-width="1.6"/>
<path d="M8.99592 22.4961H19.112V21.3235H14.123V18.0818H12.7205V21.3235H8.99592V22.4961ZM18.1464 14.0353H9.96155V15.1849H16.606C16.5945 16.3919 16.5255 17.6679 16.3761 19.2543H17.6406C17.905 17.7599 18.1464 15.8631 18.1464 14.84V14.0353ZM28.8373 21.7604C28.8373 21.3925 28.7454 20.8522 28.366 20.4844C27.9981 20.1165 26.5152 20.013 24.8139 20.013C23.1125 20.013 21.6296 20.105 21.2502 20.4844C20.8709 20.8637 20.7904 21.381 20.7904 21.7604C20.7904 22.1397 20.8709 22.6685 21.2502 23.0479C21.6296 23.4272 23.1125 23.5077 24.8139 23.5077C26.5152 23.5077 27.9981 23.4157 28.366 23.0479C28.7339 22.68 28.8373 22.1282 28.8373 21.7604ZM25.2507 15.9781C25.2507 15.4723 25.1013 14.7366 24.5954 14.2308C24.0666 13.702 23.239 13.5755 22.6987 13.5755C22.1584 13.5755 21.3307 13.702 20.8019 14.2308C20.2961 14.7366 20.1466 15.4723 20.1466 15.9781C20.1466 16.4839 20.2961 17.2196 20.8019 17.7254C21.3307 18.2542 22.1584 18.3807 22.6987 18.3807C23.239 18.3807 24.0666 18.2542 24.5954 17.7254C25.1013 17.2196 25.2507 16.4839 25.2507 15.9781ZM24.8139 20.9327C26.2163 20.9327 27.0325 21.0132 27.1934 21.1741C27.3544 21.335 27.4349 21.5764 27.4349 21.7604C27.4349 21.9443 27.3544 22.1857 27.1934 22.3467C27.0325 22.5076 26.2163 22.5881 24.8139 22.5881C23.4114 22.5881 22.5952 22.5191 22.4343 22.3467C22.2733 22.1857 22.1929 21.9443 22.1929 21.7604C22.1929 21.5764 22.2733 21.335 22.4343 21.1741C22.5952 21.0132 23.4114 20.9327 24.8139 20.9327ZM28.7454 18.2887V17.622H30.2628V16.5644H28.7454V15.3918H30.2628V14.3342H28.7454V13.4376H27.3429V18.2887H28.7454ZM22.6987 14.6331C22.9631 14.6331 23.3424 14.7366 23.6068 15.0125C23.8712 15.2769 23.9862 15.7022 23.9862 15.9781C23.9862 16.254 23.8827 16.6793 23.6068 16.9552C23.3424 17.2196 22.9631 17.3231 22.6987 17.3231C22.4343 17.3231 22.0549 17.2196 21.779 16.9552C21.5146 16.6908 21.4112 16.254 21.4112 15.9781C21.4112 15.7022 21.5146 15.2769 21.779 15.0125C22.0434 14.7481 22.4343 14.6331 22.6987 14.6331ZM33.3896 13.8974C32.8493 13.8974 32.1481 14.0353 31.6078 14.5756C31.0445 15.1389 30.9295 16.4609 30.9295 18.0818C30.9295 19.7027 31.0445 21.0247 31.6078 21.5879C32.1481 22.1282 32.8493 22.2662 33.3896 22.2662C33.9299 22.2662 34.6311 22.1282 35.1714 21.5879C35.7347 21.0247 35.8496 19.7027 35.8496 18.0818C35.8496 16.4609 35.7347 15.1389 35.1714 14.5756C34.6311 14.0353 33.9299 13.8974 33.3896 13.8974ZM32.194 18.0818C32.194 16.7713 32.2745 15.7137 32.5389 15.4493C32.8033 15.1849 33.1252 15.0929 33.3896 15.0929C33.654 15.0929 33.9644 15.1734 34.2288 15.4493C34.4932 15.7137 34.5851 16.7713 34.5851 18.0818C34.5851 19.3923 34.4932 20.4614 34.2288 20.7258C33.9644 20.9902 33.654 21.0706 33.3896 21.0706C33.1252 21.0706 32.8033 20.9902 32.5389 20.7258C32.2745 20.4614 32.194 19.3923 32.194 18.0818ZM39.4363 23.5537V18.6796H40.9537V17.484H39.4363V13.4376H38.0338V23.5537H39.4363ZM42.2642 23.5077H50.1272V20.013H42.2642V23.5077ZM42.5401 18.7945C43.5747 18.7945 45.7244 18.5531 47.3452 18.2887V17.3691C45.5634 17.5185 44.069 17.5875 42.8849 17.599V16.5184H46.5405V13.6675H41.6204V14.6561H45.276V15.5757H41.6204V18.7945H42.5401ZM43.6666 20.9327H48.7247V22.5881H43.6666V20.9327ZM50.1272 18.7945V16.7253H51.6446V15.7367H50.1272V13.4376H48.7247V18.7945H50.1272ZM51.7595 20.6108H56.1164V23.5077H57.5188V20.6108H61.8757V19.4153H51.7595V20.6108ZM52.7252 17.576H60.91V16.4954H54.1276V13.4835H52.7252V17.576ZM63.9219 22.1742C65.0944 22.1742 67.0717 21.9328 68.7271 21.6684V20.5418C66.8303 20.6913 65.5543 20.7603 64.2668 20.7718V18.4037H67.9224V13.9893H63.0022V15.1849H66.6578V17.2311H63.0022V22.1742H63.9219ZM71.601 23.5537V13.4376H70.1985V23.5537H71.601Z" fill="#30A34A"/>
</svg>
